  0
SECTION
  2
HEADER
  9
$ACADVER
  1
AC1018
  9
$ACADMAINTVER
 70
     0
  9
$DWGCODEPAGE
  3
ANSI_1252
  9
$EXTMIN
 10
5.1047248
 20
52.0917823
 30
0.0
  9
$EXTMAX
 10
5.4935892
 20
52.2542798
 30
0.0
  9
$LIMMIN
 10
0.0
 20
0.0
  9
$LIMMAX
 10
12.0
 20
9.0
  9
$ORTHOMODE
 70
     0
  9
$REGENMODE
 70
     1
  9
$FILLMODE
 70
     1
  9
$QTEXTMODE
 70
     0
  9
$MIRRTEXT
 70
     1
  9
$LTSCALE
 40
1.0
  9
$ATTMODE
 70
     1
  9
$TEXTSIZE
 40
0.2
  9
$TRACEWID
 40
0.05
  9
$TEXTSTYLE
  7
Standard
  9
$CLAYER
  8
0
  9
$CELTYPE
  6
ByLayer
  9
$CECOLOR
 62
   256
  9
$CELTSCALE
 40
1.0
  9
$DISPSILH
 70
     0
  9
$LUNITS
 70
     2
  9
$LUPREC
 70
     4
  9
$SKETCHINC
 40
0.1
  9
$FILLETRAD
 40
0.5
  9
$AUNITS
 70
     0
  9
$AUPREC
 70
     0
  9
$MENU
  1
.
  9
$ELEVATION
 40
0.0
  9
$PELEVATION
 40
0.0
  9
$THICKNESS
 40
0.0
  9
$LIMCHECK
 70
     0
  9
$CHAMFERA
 40
0.5
  9
$CHAMFERB
 40
0.5
  9
$CHAMFERC
 40
1.0
  9
$CHAMFERD
 40
0.0
  9
$SKPOLY
 70
     0
  9
$ANGBASE
 50
0.0
  9
$ANGDIR
 70
     0
  9
$PDMODE
 70
     0
  9
$PDSIZE
 40
0.0
  9
$PLINEWID
 40
0.0
  9
$SPLFRAME
 70
     0
  9
$SPLINETYPE
 70
     6
  9
$SPLINESEGS
 70
     8
  9
$HANDSEED
  5
00020603
  9
$SURFTAB1
 70
     6
  9
$SURFTAB2
 70
     6
  9
$SURFTYPE
 70
     6
  9
$SURFU
 70
     6
  9
$SURFV
 70
     6
  9
$UCSBASE
  2

  9
$UCSNAME
  2

  9
$UCSORG
 10
0.0
 20
0.0
 30
0.0
  9
$UCSXDIR
 10
1.0
 20
0.0
 30
0.0
  9
$UCSYDIR
 10
0.0
 20
1.0
 30
0.0
  9
$UCSORTHOREF
  2

  9
$UCSORTHOVIEW
 70
     0
  9
$UCSORGTOP
 10
0.0
 20
0.0
 30
0.0
  9
$UCSORGBOTTOM
 10
0.0
 20
0.0
 30
0.0
  9
$UCSORGLEFT
 10
0.0
 20
0.0
 30
0.0
  9
$UCSORGRIGHT
 10
0.0
 20
0.0
 30
0.0
  9
$UCSORGFRONT
 10
0.0
 20
0.0
 30
0.0
  9
$UCSORGBACK
 10
0.0
 20
0.0
 30
0.0
  9
$PUCSBASE
  2

  9
$PUCSNAME
  2

  9
$PUCSORG
 10
0.0
 20
0.0
 30
0.0
  9
$PUCSXDIR
 10
1.0
 20
0.0
 30
0.0
  9
$PUCSYDIR
 10
0.0
 20
1.0
 30
0.0
  9
$PUCSORTHOREF
  2

  9
$PUCSORTHOVIEW
 70
     0
  9
$PUCSORGTOP
 10
0.0
 20
0.0
 30
0.0
  9
$PUCSORGBOTTOM
 10
0.0
 20
0.0
 30
0.0
  9
$PUCSORGLEFT
 10
0.0
 20
0.0
 30
0.0
  9
$PUCSORGRIGHT
 10
0.0
 20
0.0
 30
0.0
  9
$PUCSORGFRONT
 10
0.0
 20
0.0
 30
0.0
  9
$PUCSORGBACK
 10
0.0
 20
0.0
 30
0.0
  9
$WORLDVIEW
 70
     1
  9
$SHADEDGE
 70
     3
  9
$SHADEDIF
 70
    70
  9
$TILEMODE
 70
     1
  9
$MAXACTVP
 70
    64
  9
$PINSBASE
 10
0.0
 20
0.0
 30
0.0
  9
$PLIMCHECK
 70
     0
  9
$PEXTMIN
 10
1.000000000000000E+20
 20
1.000000000000000E+20
 30
1.000000000000000E+20
  9
$PEXTMAX
 10
-1.000000000000000E+20
 20
-1.000000000000000E+20
 30
-1.000000000000000E+20
  9
$PLIMMIN
 10
0.0
 20
0.0
  9
$PLIMMAX
 10
12.0
 20
9.0
  9
$UNITMODE
 70
     0
  9
$VISRETAIN
 70
     1
  9
$PLINEGEN
 70
     0
  9
$PSLTSCALE
 70
     1
  9
$TREEDEPTH
 70
  3020
  9
$CMLSTYLE
  2
Standard
  9
$CMLJUST
 70
     0
  9
$CMLSCALE
 40
1.0
  9
$PROXYGRAPHICS
 70
     1
  9
$MEASUREMENT
 70
     0
  9
$CELWEIGHT
370
    -1
  9
$ENDCAPS
280
     0
  9
$JOINSTYLE
280
     0
  9
$LWDISPLAY
290
     0
  9
$INSUNITS
 70
     1
  9
$HYPERLINKBASE
  1

  9
$STYLESHEET
  1

  9
$XEDIT
290
     1
  9
$CEPSNTYPE
380
     0
  9
$PSTYLEMODE
290
     1
  9
$EXTNAMES
290
     1
  9
$PSVPSCALE
 40
0.0
  9
$OLESTARTUP
290
     0
  9
$SORTENTS
280
   127
  9
$INDEXCTL
280
     0
  9
$HIDETEXT
280
     1
  9
$XCLIPFRAME
290
     0
  9
$HALOGAP
280
     0
  9
$OBSCOLOR
 70
   257
  9
$OBSLTYPE
280
     0
  9
$INTERSECTIONDISPLAY
280
     0
  9
$INTERSECTIONCOLOR
 70
   257
  9
$DIMASSOC
280
     2
  9
$PROJECTNAME
  1

  0
ENDSEC
  0
SECTION
  2
CLASSES
  0
CLASS
  1
ACDBDICTIONARYWDFLT
  2
AcDbDictionaryWithDefault
  3
ObjectDBX Classes
 90
        0
 91
        4
280
     0
281
     0
  0
ENDSEC
  0
SECTION
  2
TABLES
  0
TABLE
  2
VPORT
  5
8
330
0
100
AcDbSymbolTable
 70
     1
  0
VPORT
  5
29
330
8
100
AcDbSymbolTableRecord
100
AcDbViewportTableRecord
  2
*Active
 70
     0
 10
0.0
 20
0.0
 11
1.0
 21
1.0
 12
80.25
 22
106.4409457059851
 13
0.0
 23
0.0
 14
0.5
 24
0.5
 15
0.5
 25
0.5
 16
0.0
 26
0.0
 36
1.0
 17
0.0
 27
0.0
 37
0.0
 40
113.3818914119703
 41
0.8863849310366128
 42
50.0
 43
0.0
 44
0.0
 50
0.0
 51
0.0
 71
     0
 72
  1000
 73
     1
 74
     3
 75
     0
 76
     0
 77
     0
 78
     0
281
     0
 65
     1
110
0.0
120
0.0
130
0.0
111
1.0
121
0.0
131
0.0
112
0.0
122
1.0
132
0.0
 79
     0
146
0.0
  0
ENDTAB
  0
TABLE
  2
LTYPE
  5
5
330
0
100
AcDbSymbolTable
 70
     1
  0
LTYPE
  5
14
330
5
100
AcDbSymbolTableRecord
100
AcDbLinetypeTableRecord
  2
ByBlock
 70
     0
  3

 72
    65
 73
     0
 40
0.0
  0
LTYPE
  5
15
330
5
100
AcDbSymbolTableRecord
100
AcDbLinetypeTableRecord
  2
ByLayer
 70
     0
  3

 72
    65
 73
     0
 40
0.0
  0
LTYPE
  5
16
330
5
100
AcDbSymbolTableRecord
100
AcDbLinetypeTableRecord
  2
Continuous
 70
     0
  3
Solid line
 72
    65
 73
     0
 40
0.0
  0
ENDTAB
  0
TABLE
  2
LAYER
  5
2
330
0
100
AcDbSymbolTable
 70
     1
  0
LAYER
  5
10
330
2
100
AcDbSymbolTableRecord
100
AcDbLayerTableRecord
  2
0
 70
     0
 62
     7
  6
Continuous
370
    -3
390
F
  0
ENDTAB
  0
TABLE
  2
STYLE
  5
3
330
0
100
AcDbSymbolTable
 70
     1
  0
STYLE
  5
11
330
3
100
AcDbSymbolTableRecord
100
AcDbTextStyleTableRecord
  2
Standard
 70
     0
 40
0.0
 41
1.0
 50
0.0
 71
     0
 42
0.2
  3
txt
  4

  0
ENDTAB
  0
TABLE
  2
VIEW
  5
6
330
0
100
AcDbSymbolTable
 70
     0
  0
ENDTAB
  0
TABLE
  2
UCS
  5
7
330
0
100
AcDbSymbolTable
 70
     0
  0
ENDTAB
  0
TABLE
  2
APPID
  5
9
330
0
100
AcDbSymbolTable
 70
     1
  0
APPID
  5
12
330
9
100
AcDbSymbolTableRecord
100
AcDbRegAppTableRecord
  2
ACAD
 70
     0
  0
ENDTAB
  0
TABLE
  2
DIMSTYLE
  5
A
330
0
100
AcDbSymbolTable
 70
     1
100
AcDbDimStyleTable
  0
DIMSTYLE
105
27
330
A
100
AcDbSymbolTableRecord
100
AcDbDimStyleTableRecord
  2
Standard
 70
     0
340
11
  0
ENDTAB
  0
TABLE
  2
BLOCK_RECORD
  5
1
330
0
100
AcDbSymbolTable
 70
     1
  0
BLOCK_RECORD
  5
1F
330
1
100
AcDbSymbolTableRecord
100
AcDbBlockTableRecord
  2
*Model_Space
340
22
  0
BLOCK_RECORD
  5
1B
330
1
100
AcDbSymbolTableRecord
100
AcDbBlockTableRecord
  2
*Paper_Space
340
1E
  0
ENDTAB
  0
ENDSEC
  0
SECTION
  2
BLOCKS
  0
BLOCK
  5
20
330
1F
100
AcDbEntity
  8
0
100
AcDbBlockBegin
  2
*Model_Space
 70
     0
 10
0.0
 20
0.0
 30
0.0
  3
*Model_Space
  1

  0
ENDBLK
  5
21
330
1F
100
AcDbEntity
  8
0
100
AcDbBlockEnd
  0
BLOCK
  5
1C
330
1B
100
AcDbEntity
 67
     1
  8
0
100
AcDbBlockBegin
  2
*Paper_Space
 70
     0
 10
0.0
 20
0.0
 30
0.0
  3
*Paper_Space
  1

  0
ENDBLK
  5
1D
330
1B
100
AcDbEntity
 67
     1
  8
0
100
AcDbBlockEnd
  0
ENDSEC
  0
SECTION
  2
ENTITIES
  0
POINT
  5
20000
100
AcDbEntity
  8
0
100
AcDbPoint
 10
5.1047248
 20
52.0917823
  0
POINT
  5
20001
100
AcDbEntity
  8
0
100
AcDbPoint
 10
5.1162173
 20
52.0963497
  0
POINT
  5
20002
100
AcDbEntity
  8
0
100
AcDbPoint
 10
5.1160599
 20
52.096621
  0
POINT
  5
20003
100
AcDbEntity
  8
0
100
AcDbPoint
 10
5.1307926
 20
52.1042223
  0
POINT
  5
20004
100
AcDbEntity
  8
0
100
AcDbPoint
 10
5.138601
 20
52.1137379
  0
POINT
  5
20005
100
AcDbEntity
  8
0
100
AcDbPoint
 10
5.1386475
 20
52.1139509
  0
POINT
  5
20006
100
AcDbEntity
  8
0
100
AcDbPoint
 10
5.1401701
 20
52.1185552
  0
POINT
  5
20007
100
AcDbEntity
  8
0
100
AcDbPoint
 10
5.1500415
 20
52.1238454
  0
POINT
  5
20008
100
AcDbEntity
  8
0
100
AcDbPoint
 10
5.1490374
 20
52.1240995
  0
POINT
  5
20009
100
AcDbEntity
  8
0
100
AcDbPoint
 10
5.1478433
 20
52.1244076
  0
POINT
  5
2000A
100
AcDbEntity
  8
0
100
AcDbPoint
 10
5.1438812
 20
52.1251661
  0
POINT
  5
2000B
100
AcDbEntity
  8
0
100
AcDbPoint
 10
5.1436408
 20
52.1254979
  0
POINT
  5
2000C
100
AcDbEntity
  8
0
100
AcDbPoint
 10
5.3589043
 20
52.1494222
  0
POINT
  5
2000D
100
AcDbEntity
  8
0
100
AcDbPoint
 10
5.3596783
 20
52.1499465
  0
POINT
  5
2000E
100
AcDbEntity
  8
0
100
AcDbPoint
 10
5.3603408
 20
52.1503251
  0
POINT
  5
2000F
100
AcDbEntity
  8
0
100
AcDbPoint
 10
5.3611827
 20
52.1508038
  0
POINT
  5
20010
100
AcDbEntity
  8
0
100
AcDbPoint
 10
5.3620664
 20
52.1512884
  0
POINT
  5
20011
100
AcDbEntity
  8
0
100
AcDbPoint
 10
5.1722623
 20
52.1516543
  0
POINT
  5
20012
100
AcDbEntity
  8
0
100
AcDbPoint
 10
5.2850652
 20
52.1559262
  0
POINT
  5
20013
100
AcDbEntity
  8
0
100
AcDbPoint
 10
5.3834301
 20
52.1560616
  0
POINT
  5
20014
100
AcDbEntity
  8
0
100
AcDbPoint
 10
5.1750192
 20
52.1583978
  0
POINT
  5
20015
100
AcDbEntity
  8
0
100
AcDbPoint
 10
5.1752059
 20
52.1584002
  0
POINT
  5
20016
100
AcDbEntity
  8
0
100
AcDbPoint
 10
5.2027479
 20
52.160567
  0
POINT
  5
20017
100
AcDbEntity
  8
0
100
AcDbPoint
 10
5.206903
 20
52.1615691
  0
POINT
  5
20018
100
AcDbEntity
  8
0
100
AcDbPoint
 10
5.3786811
 20
52.1618416
  0
POINT
  5
20019
100
AcDbEntity
  8
0
100
AcDbPoint
 10
5.3866026
 20
52.1636815
  0
POINT
  5
2001A
100
AcDbEntity
  8
0
100
AcDbPoint
 10
5.3750452
 20
52.1681559
  0
POINT
  5
2001B
100
AcDbEntity
  8
0
100
AcDbPoint
 10
5.3718582
 20
52.1713312
  0
POINT
  5
2001C
100
AcDbEntity
  8
0
100
AcDbPoint
 10
5.3683151
 20
52.1754887
  0
POINT
  5
2001D
100
AcDbEntity
  8
0
100
AcDbPoint
 10
5.3852223
 20
52.1771473
  0
POINT
  5
2001E
100
AcDbEntity
  8
0
100
AcDbPoint
 10
5.1927285
 20
52.1778267
  0
POINT
  5
2001F
100
AcDbEntity
  8
0
100
AcDbPoint
 10
5.1829698
 20
52.1779773
  0
POINT
  5
20020
100
AcDbEntity
  8
0
100
AcDbPoint
 10
5.1955535
 20
52.1783937
  0
POINT
  5
20021
100
AcDbEntity
  8
0
100
AcDbPoint
 10
5.1976415
 20
52.1787269
  0
POINT
  5
20022
100
AcDbEntity
  8
0
100
AcDbPoint
 10
5.4332383
 20
52.1863465
  0
POINT
  5
20023
100
AcDbEntity
  8
0
100
AcDbPoint
 10
5.2818438
 20
52.187058
  0
POINT
  5
20024
100
AcDbEntity
  8
0
100
AcDbPoint
 10
5.4241501
 20
52.1889218
  0
POINT
  5
20025
100
AcDbEntity
  8
0
100
AcDbPoint
 10
5.431093
 20
52.1890443
  0
POINT
  5
20026
100
AcDbEntity
  8
0
100
AcDbPoint
 10
5.4251363
 20
52.189107
  0
POINT
  5
20027
100
AcDbEntity
  8
0
100
AcDbPoint
 10
5.4307968
 20
52.1893192
  0
POINT
  5
20028
100
AcDbEntity
  8
0
100
AcDbPoint
 10
5.4266917
 20
52.1896351
  0
POINT
  5
20029
100
AcDbEntity
  8
0
100
AcDbPoint
 10
5.4298866
 20
52.1902094
  0
POINT
  5
2002A
100
AcDbEntity
  8
0
100
AcDbPoint
 10
5.4282992
 20
52.1900753
  0
POINT
  5
2002B
100
AcDbEntity
  8
0
100
AcDbPoint
 10
5.2820577
 20
52.191823
  0
POINT
  5
2002C
100
AcDbEntity
  8
0
100
AcDbPoint
 10
5.3993087
 20
52.1943469
  0
POINT
  5
2002D
100
AcDbEntity
  8
0
100
AcDbPoint
 10
5.2750395
 20
52.2023106
  0
POINT
  5
2002E
100
AcDbEntity
  8
0
100
AcDbPoint
 10
5.2755424
 20
52.2035742
  0
POINT
  5
2002F
100
AcDbEntity
  8
0
100
AcDbPoint
 10
5.3645711
 20
52.210331
  0
POINT
  5
20030
100
AcDbEntity
  8
0
100
AcDbPoint
 10
5.4709429
 20
52.2113236
  0
POINT
  5
20031
100
AcDbEntity
  8
0
100
AcDbPoint
 10
5.2824659
 20
52.2135315
  0
POINT
  5
20032
100
AcDbEntity
  8
0
100
AcDbPoint
 10
5.300728
 20
52.2153944
  0
POINT
  5
20033
100
AcDbEntity
  8
0
100
AcDbPoint
 10
5.2843393
 20
52.2159525
  0
POINT
  5
20034
100
AcDbEntity
  8
0
100
AcDbPoint
 10
5.2852854
 20
52.2180715
  0
POINT
  5
20035
100
AcDbEntity
  8
0
100
AcDbPoint
 10
5.4805774
 20
52.21912
  0
POINT
  5
20036
100
AcDbEntity
  8
0
100
AcDbPoint
 10
5.285998
 20
52.2196214
  0
POINT
  5
20037
100
AcDbEntity
  8
0
100
AcDbPoint
 10
5.2865865
 20
52.2202786
  0
POINT
  5
20038
100
AcDbEntity
  8
0
100
AcDbPoint
 10
5.4829465
 20
52.2216312
  0
POINT
  5
20039
100
AcDbEntity
  8
0
100
AcDbPoint
 10
5.4906051
 20
52.2216763
  0
POINT
  5
2003A
100
AcDbEntity
  8
0
100
AcDbPoint
 10
5.4931125
 20
52.2222032
  0
POINT
  5
2003B
100
AcDbEntity
  8
0
100
AcDbPoint
 10
5.4819706
 20
52.2259446
  0
POINT
  5
2003C
100
AcDbEntity
  8
0
100
AcDbPoint
 10
5.4771245
 20
52.2263553
  0
POINT
  5
2003D
100
AcDbEntity
  8
0
100
AcDbPoint
 10
5.3728811
 20
52.2364929
  0
POINT
  5
2003E
100
AcDbEntity
  8
0
100
AcDbPoint
 10
5.3661984
 20
52.2367941
  0
POINT
  5
2003F
100
AcDbEntity
  8
0
100
AcDbPoint
 10
5.3750946
 20
52.2366805
  0
POINT
  5
20040
100
AcDbEntity
  8
0
100
AcDbPoint
 10
5.3780054
 20
52.2375411
  0
POINT
  5
20041
100
AcDbEntity
  8
0
100
AcDbPoint
 10
5.3733501
 20
52.2383155
  0
POINT
  5
20042
100
AcDbEntity
  8
0
100
AcDbPoint
 10
5.3669038
 20
52.2404579
  0
POINT
  5
20043
100
AcDbEntity
  8
0
100
AcDbPoint
 10
5.3671395
 20
52.2408277
  0
POINT
  5
20044
100
AcDbEntity
  8
0
100
AcDbPoint
 10
5.3670459
 20
52.2408494
  0
POINT
  5
20045
100
AcDbEntity
  8
0
100
AcDbPoint
 10
5.3746533
 20
52.2426793
  0
POINT
  5
20046
100
AcDbEntity
  8
0
100
AcDbPoint
 10
5.3781197
 20
52.2441834
  0
POINT
  5
20047
100
AcDbEntity
  8
0
100
AcDbPoint
 10
5.3779628
 20
52.2449019
  0
POINT
  5
20048
100
AcDbEntity
  8
0
100
AcDbPoint
 10
5.3756347
 20
52.2452859
  0
POINT
  5
20049
100
AcDbEntity
  8
0
100
AcDbPoint
 10
5.3752262
 20
52.2448771
  0
POINT
  5
2004A
100
AcDbEntity
  8
0
100
AcDbPoint
 10
5.3754483
 20
52.2456287
  0
POINT
  5
2004B
100
AcDbEntity
  8
0
100
AcDbPoint
 10
5.3759504
 20
52.24632
  0
POINT
  5
2004C
100
AcDbEntity
  8
0
100
AcDbPoint
 10
5.3681832
 20
52.2463338
  0
POINT
  5
2004D
100
AcDbEntity
  8
0
100
AcDbPoint
 10
5.3744214
 20
52.2466806
  0
POINT
  5
2004E
100
AcDbEntity
  8
0
100
AcDbPoint
 10
5.373678
 20
52.2468665
  0
POINT
  5
2004F
100
AcDbEntity
  8
0
100
AcDbPoint
 10
5.3759747
 20
52.2473627
  0
POINT
  5
20050
100
AcDbEntity
  8
0
100
AcDbPoint
 10
5.3777095
 20
52.247732
  0
POINT
  5
20051
100
AcDbEntity
  8
0
100
AcDbPoint
 10
5.3762557
 20
52.2483202
  0
POINT
  5
20052
100
AcDbEntity
  8
0
100
AcDbPoint
 10
5.3768394
 20
52.250226
  0
POINT
  5
20053
100
AcDbEntity
  8
0
100
AcDbPoint
 10
5.3771448
 20
52.2501837
  0
POINT
  5
20054
100
AcDbEntity
  8
0
100
AcDbPoint
 10
5.3718127
 20
52.2512252
  0
POINT
  5
20055
100
AcDbEntity
  8
0
100
AcDbPoint
 10
5.3771365
 20
52.2512979
  0
POINT
  5
20056
100
AcDbEntity
  8
0
100
AcDbPoint
 10
5.3307683
 20
52.2530735
  0
POINT
  5
20057
100
AcDbEntity
  8
0
100
AcDbPoint
 10
5.3779193
 20
52.2538127
  0
POINT
  5
20058
100
AcDbEntity
  8
0
100
AcDbPoint
 10
5.3289172
 20
52.2542798
  0
POINT
  5
20059
100
AcDbEntity
  8
0
100
AcDbPoint
 10
5.3821032
 20
52.1573146
  0
POINT
  5
2005A
100
AcDbEntity
  8
0
100
AcDbPoint
 10
5.376298
 20
52.1737621
  0
POINT
  5
2005B
100
AcDbEntity
  8
0
100
AcDbPoint
 10
5.1630498
 20
52.1400855
  0
POINT
  5
2005C
100
AcDbEntity
  8
0
100
AcDbPoint
 10
5.164517
 20
52.1399234
  0
POINT
  5
2005D
100
AcDbEntity
  8
0
100
AcDbPoint
 10
5.3535985
 20
52.1506605
  0
POINT
  5
2005E
100
AcDbEntity
  8
0
100
AcDbPoint
 10
5.3534017
 20
52.150589
  0
POINT
  5
2005F
100
AcDbEntity
  8
0
100
AcDbPoint
 10
5.3026266
 20
52.1539809
  0
POINT
  5
20060
100
AcDbEntity
  8
0
100
AcDbPoint
 10
5.2494838
 20
52.1754401
  0
POINT
  5
20061
100
AcDbEntity
  8
0
100
AcDbPoint
 10
5.2646422
 20
52.1667014
  0
POINT
  5
20062
100
AcDbEntity
  8
0
100
AcDbPoint
 10
5.131172
 20
52.1036524
  0
POINT
  5
20063
100
AcDbEntity
  8
0
100
AcDbPoint
 10
5.3752591
 20
52.1664318
  0
POINT
  5
20064
100
AcDbEntity
  8
0
100
AcDbPoint
 10
5.3375841
 20
52.1530468
  0
POINT
  5
20065
100
AcDbEntity
  8
0
100
AcDbPoint
 10
5.1165717
 20
52.0934339
  0
POINT
  5
20066
100
AcDbEntity
  8
0
100
AcDbPoint
 10
5.3735657
 20
52.2390973
  0
POINT
  5
20067
100
AcDbEntity
  8
0
100
AcDbPoint
 10
5.3948096
 20
52.186427
  0
POINT
  5
20068
100
AcDbEntity
  8
0
100
AcDbPoint
 10
5.3951322
 20
52.1866532
  0
POINT
  5
20069
100
AcDbEntity
  8
0
100
AcDbPoint
 10
5.4370561
 20
52.188421
  0
POINT
  5
2006A
100
AcDbEntity
  8
0
100
AcDbPoint
 10
5.4224916
 20
52.1886156
  0
POINT
  5
2006B
100
AcDbEntity
  8
0
100
AcDbPoint
 10
5.433137
 20
52.1837378
  0
POINT
  5
2006C
100
AcDbEntity
  8
0
100
AcDbPoint
 10
5.4331178
 20
52.1838475
  0
POINT
  5
2006D
100
AcDbEntity
  8
0
100
AcDbPoint
 10
5.2696042
 20
52.16407
  0
POINT
  5
2006E
100
AcDbEntity
  8
0
100
AcDbPoint
 10
5.1166206
 20
52.0933072
  0
POINT
  5
2006F
100
AcDbEntity
  8
0
100
AcDbPoint
 10
5.1169617
 20
52.093502
  0
POINT
  5
20070
100
AcDbEntity
  8
0
100
AcDbPoint
 10
5.1344225
 20
52.1278877
  0
POINT
  5
20071
100
AcDbEntity
  8
0
100
AcDbPoint
 10
5.3800421
 20
52.1542083
  0
POINT
  5
20072
100
AcDbEntity
  8
0
100
AcDbPoint
 10
5.3743702
 20
52.1527482
  0
POINT
  5
20073
100
AcDbEntity
  8
0
100
AcDbPoint
 10
5.28267
 20
52.2083947
  0
POINT
  5
20074
100
AcDbEntity
  8
0
100
AcDbPoint
 10
5.403952
 20
52.2466919
  0
POINT
  5
20075
100
AcDbEntity
  8
0
100
AcDbPoint
 10
5.4038906
 20
52.2466142
  0
POINT
  5
20076
100
AcDbEntity
  8
0
100
AcDbPoint
 10
5.3997955
 20
52.2377001
  0
POINT
  5
20077
100
AcDbEntity
  8
0
100
AcDbPoint
 10
5.3997257
 20
52.2375316
  0
POINT
  5
20078
100
AcDbEntity
  8
0
100
AcDbPoint
 10
5.3966831
 20
52.2302726
  0
POINT
  5
20079
100
AcDbEntity
  8
0
100
AcDbPoint
 10
5.301453
 20
52.2145174
  0
POINT
  5
2007A
100
AcDbEntity
  8
0
100
AcDbPoint
 10
5.301875
 20
52.214472
  0
POINT
  5
2007B
100
AcDbEntity
  8
0
100
AcDbPoint
 10
5.3061347
 20
52.1540017
  0
POINT
  5
2007C
100
AcDbEntity
  8
0
100
AcDbPoint
 10
5.3772997
 20
52.2439191
  0
POINT
  5
2007D
100
AcDbEntity
  8
0
100
AcDbPoint
 10
5.3773046
 20
52.2439178
  0
POINT
  5
2007E
100
AcDbEntity
  8
0
100
AcDbPoint
 10
5.1374048
 20
52.1136224
  0
POINT
  5
2007F
100
AcDbEntity
  8
0
100
AcDbPoint
 10
5.4933914
 20
52.222488
  0
POINT
  5
20080
100
AcDbEntity
  8
0
100
AcDbPoint
 10
5.4935892
 20
52.2224396
  0
POINT
  5
20081
100
AcDbEntity
  8
0
100
AcDbPoint
 10
5.4732058
 20
52.2135168
  0
POINT
  5
20082
100
AcDbEntity
  8
0
100
AcDbPoint
 10
5.4745033
 20
52.2144472
  0
POINT
  5
20083
100
AcDbEntity
  8
0
100
AcDbPoint
 10
5.4806143
 20
52.219081
  0
POINT
  5
20084
100
AcDbEntity
  8
0
100
AcDbPoint
 10
5.4804188
 20
52.2191001
  0
POINT
  5
20085
100
AcDbEntity
  8
0
100
AcDbPoint
 10
5.3780625
 20
52.1608094
  0
POINT
  5
20086
100
AcDbEntity
  8
0
100
AcDbPoint
 10
5.3833756
 20
52.1560395
  0
POINT
  5
20087
100
AcDbEntity
  8
0
100
AcDbPoint
 10
5.3790487
 20
52.1644535
  0
POINT
  5
20088
100
AcDbEntity
  8
0
100
AcDbPoint
 10
5.4323948
 20
52.187177
  0
POINT
  5
20089
100
AcDbEntity
  8
0
100
AcDbPoint
 10
5.4276723
 20
52.1899874
  0
POINT
  5
2008A
100
AcDbEntity
  8
0
100
AcDbPoint
 10
5.4279268
 20
52.1899352
  0
POINT
  5
2008B
100
AcDbEntity
  8
0
100
AcDbPoint
 10
5.4312192
 20
52.1887922
  0
POINT
  5
2008C
100
AcDbEntity
  8
0
100
AcDbPoint
 10
5.4312929
 20
52.1888889
  0
POINT
  5
2008D
100
AcDbEntity
  8
0
100
AcDbPoint
 10
5.4331831
 20
52.1865415
  0
POINT
  5
2008E
100
AcDbEntity
  8
0
100
AcDbPoint
 10
5.3693508
 20
52.1818646
  0
POINT
  5
2008F
100
AcDbEntity
  8
0
100
AcDbPoint
 10
5.390802
 20
52.1947467
  0
POINT
  5
20090
100
AcDbEntity
  8
0
100
AcDbPoint
 10
5.3906704
 20
52.1950164
  0
POINT
  5
20091
100
AcDbEntity
  8
0
100
AcDbPoint
 10
5.4143341
 20
52.1891809
  0
POINT
  5
20092
100
AcDbEntity
  8
0
100
AcDbPoint
 10
5.4143489
 20
52.1890733
  0
POINT
  5
20093
100
AcDbEntity
  8
0
100
AcDbPoint
 10
5.4099185
 20
52.1925403
  0
POINT
  5
20094
100
AcDbEntity
  8
0
100
AcDbPoint
 10
5.4103946
 20
52.1920372
  0
POINT
  5
20095
100
AcDbEntity
  8
0
100
AcDbPoint
 10
5.435864
 20
52.189789
  0
POINT
  5
20096
100
AcDbEntity
  8
0
100
AcDbPoint
 10
5.2823691
 20
52.191618
  0
POINT
  5
20097
100
AcDbEntity
  8
0
100
AcDbPoint
 10
5.2819714
 20
52.1918244
  0
POINT
  5
20098
100
AcDbEntity
  8
0
100
AcDbPoint
 10
5.2758971
 20
52.2038588
  0
POINT
  5
20099
100
AcDbEntity
  8
0
100
AcDbPoint
 10
5.2756495
 20
52.2035468
  0
POINT
  5
2009A
100
AcDbEntity
  8
0
100
AcDbPoint
 10
5.3678911
 20
52.1933903
  0
POINT
  5
2009B
100
AcDbEntity
  8
0
100
AcDbPoint
 10
5.3654515
 20
52.20019
  0
POINT
  5
2009C
100
AcDbEntity
  8
0
100
AcDbPoint
 10
5.2827975
 20
52.2111485
  0
POINT
  5
2009D
100
AcDbEntity
  8
0
100
AcDbPoint
 10
5.2828953
 20
52.2109769
  0
POINT
  5
2009E
100
AcDbEntity
  8
0
100
AcDbPoint
 10
5.304864
 20
52.2174934
  0
POINT
  5
2009F
100
AcDbEntity
  8
0
100
AcDbPoint
 10
5.3644933
 20
52.210118
  0
POINT
  5
200A0
100
AcDbEntity
  8
0
100
AcDbPoint
 10
5.3701091
 20
52.2274907
  0
POINT
  5
200A1
100
AcDbEntity
  8
0
100
AcDbPoint
 10
5.3682185
 20
52.2335908
  0
POINT
  5
200A2
100
AcDbEntity
  8
0
100
AcDbPoint
 10
5.3662911
 20
52.2365257
  0
POINT
  5
200A3
100
AcDbEntity
  8
0
100
AcDbPoint
 10
5.3767236
 20
52.2323065
  0
POINT
  5
200A4
100
AcDbEntity
  8
0
100
AcDbPoint
 10
5.3780988
 20
52.2375479
  0
POINT
  5
200A5
100
AcDbEntity
  8
0
100
AcDbPoint
 10
5.3665874
 20
52.240264
  0
POINT
  5
200A6
100
AcDbEntity
  8
0
100
AcDbPoint
 10
5.368106
 20
52.2464169
  0
POINT
  5
200A7
100
AcDbEntity
  8
0
100
AcDbPoint
 10
5.3771672
 20
52.2435477
  0
POINT
  5
200A8
100
AcDbEntity
  8
0
100
AcDbPoint
 10
5.375805
 20
52.2466063
  0
POINT
  5
200A9
100
AcDbEntity
  8
0
100
AcDbPoint
 10
5.3765743
 20
52.2492202
  0
POINT
  5
200AA
100
AcDbEntity
  8
0
100
AcDbPoint
 10
5.3717573
 20
52.2513078
  0
POINT
  5
200AB
100
AcDbEntity
  8
0
100
AcDbPoint
 10
5.3771497
 20
52.2511239
  0
POINT
  5
200AC
100
AcDbEntity
  8
0
100
AcDbPoint
 10
5.3763701
 20
52.2530757
  0
POINT
  5
200AD
100
AcDbEntity
  8
0
100
AcDbPoint
 10
5.3793728
 20
52.1587294
  0
POINT
  5
200AE
100
AcDbEntity
  8
0
100
AcDbPoint
 10
5.4328001
 20
52.1937656
  0
POINT
  5
200AF
100
AcDbEntity
  8
0
100
AcDbPoint
 10
5.1899017
 20
52.1776128
  0
POINT
  5
200B0
100
AcDbEntity
  8
0
100
AcDbPoint
 10
5.1868732
 20
52.1777286
  0
POINT
  5
200B1
100
AcDbEntity
  8
0
100
AcDbPoint
 10
5.3534305
 20
52.1505579
  0
POINT
  5
200B2
100
AcDbEntity
  8
0
100
AcDbPoint
 10
5.3536283
 20
52.1506299
  0
POINT
  5
200B3
100
AcDbEntity
  8
0
100
AcDbPoint
 10
5.4298339
 20
52.1902405
  0
POINT
  5
200B4
100
AcDbEntity
  8
0
100
AcDbPoint
 10
5.3778985
 20
52.253774
  0
POINT
  5
200B5
100
AcDbEntity
  8
0
100
AcDbPoint
 10
5.3655211
 20
52.2001773
  0
POINT
  5
200B6
100
AcDbEntity
  8
0
100
AcDbPoint
 10
5.3646087
 20
52.2101233
  0
POINT
  5
200B7
100
AcDbEntity
  8
0
100
AcDbPoint
 10
5.4390372
 20
52.2226296
  0
POINT
  5
200B8
100
AcDbEntity
  8
0
100
AcDbPoint
 10
5.438729
 20
52.2227883
  0
POINT
  5
200B9
100
AcDbEntity
  8
0
100
AcDbPoint
 10
5.4827299
 20
52.2251505
  0
POINT
  5
200BA
100
AcDbEntity
  8
0
100
AcDbPoint
 10
5.4730708
 20
52.2287653
  0
POINT
  5
200BB
100
AcDbEntity
  8
0
100
AcDbPoint
 10
5.4730993
 20
52.2288756
  0
POINT
  5
200BC
100
AcDbEntity
  8
0
100
AcDbPoint
 10
5.4825653
 20
52.225252
  0
POINT
  5
200BD
100
AcDbEntity
  8
0
100
AcDbPoint
 10
5.4794888
 20
52.2257158
  0
POINT
  5
200BE
100
AcDbEntity
  8
0
100
AcDbPoint
 10
5.4791011
 20
52.2257833
  0
POINT
  5
200BF
100
AcDbEntity
  8
0
100
AcDbPoint
 10
5.1245566
 20
52.0989512
  0
POINT
  5
200C0
100
AcDbEntity
  8
0
100
AcDbPoint
 10
5.4651809
 20
52.2103836
  0
POINT
  5
200C1
100
AcDbEntity
  8
0
100
AcDbPoint
 10
5.4654578
 20
52.2103888
  0
POINT
  5
200C2
100
AcDbEntity
  8
0
100
AcDbPoint
 10
5.2759833
 20
52.2038197
  0
POINT
  5
200C3
100
AcDbEntity
  8
0
100
AcDbPoint
 10
5.3660114
 20
52.2436379
  0
POINT
  5
200C4
100
AcDbEntity
  8
0
100
AcDbPoint
 10
5.3658485
 20
52.2437485
  0
POINT
  5
200C5
100
AcDbEntity
  8
0
100
AcDbPoint
 10
5.3690607
 20
52.2473806
  0
POINT
  5
200C6
100
AcDbEntity
  8
0
100
AcDbPoint
 10
5.3771433
 20
52.2527948
  0
POINT
  5
200C7
100
AcDbEntity
  8
0
100
AcDbPoint
 10
5.3777544
 20
52.2365491
  0
POINT
  5
200C8
100
AcDbEntity
  8
0
100
AcDbPoint
 10
5.3771206
 20
52.2514203
  0
POINT
  5
200C9
100
AcDbEntity
  8
0
100
AcDbPoint
 10
5.3287176
 20
52.2541922
  0
POINT
  5
200CA
100
AcDbEntity
  8
0
100
AcDbPoint
 10
5.3299751
 20
52.2535041
  0
POINT
  5
200CB
100
AcDbEntity
  8
0
100
AcDbPoint
 10
5.3300543
 20
52.2536321
  0
POINT
  5
200CC
100
AcDbEntity
  8
0
100
AcDbPoint
 10
5.3660188
 20
52.2437097
  0
POINT
  5
200CD
100
AcDbEntity
  8
0
100
AcDbPoint
 10
5.2805188
 20
52.1859634
  0
POINT
  5
200CE
100
AcDbEntity
  8
0
100
AcDbPoint
 10
5.2803
 20
52.1859879
  0
POINT
  5
200CF
100
AcDbEntity
  8
0
100
AcDbPoint
 10
5.2802338
 20
52.186092
  0
POINT
  5
200D0
100
AcDbEntity
  8
0
100
AcDbPoint
 10
5.2804808
 20
52.1861201
  0
POINT
  5
200D1
100
AcDbEntity
  8
0
100
AcDbPoint
 10
5.2804207
 20
52.1862108
  0
POINT
  5
200D2
100
AcDbEntity
  8
0
100
AcDbPoint
 10
5.3785729
 20
52.2350274
  0
POINT
  5
200D3
100
AcDbEntity
  8
0
100
AcDbPoint
 10
5.1343965
 20
52.1278573
  0
POINT
  5
200D4
100
AcDbEntity
  8
0
100
AcDbPoint
 10
5.1165623
 20
52.0934493
  0
POINT
  5
200D5
100
AcDbEntity
  8
0
100
AcDbPoint
 10
5.4184003
 20
52.1882286
  0
POINT
  5
200D6
100
AcDbEntity
  8
0
100
AcDbPoint
 10
5.4324638
 20
52.187187
  0
POINT
  5
200D7
100
AcDbEntity
  8
0
100
AcDbPoint
 10
5.4348676
 20
52.1907571
  0
POINT
  5
200D8
100
AcDbEntity
  8
0
100
AcDbPoint
 10
5.432681
 20
52.1923379
  0
POINT
  5
200D9
100
AcDbEntity
  8
0
100
AcDbPoint
 10
5.4325867
 20
52.1926044
  0
POINT
  5
200DA
100
AcDbEntity
  8
0
100
AcDbPoint
 10
5.4333404
 20
52.1927812
  0
POINT
  5
200DB
100
AcDbEntity
  8
0
100
AcDbPoint
 10
5.4333006
 20
52.1926106
  0
POINT
  5
200DC
100
AcDbEntity
  8
0
100
AcDbPoint
 10
5.1398306
 20
52.1209117
  0
POINT
  5
200DD
100
AcDbEntity
  8
0
100
AcDbPoint
 10
5.4644938
 20
52.2100341
  0
POINT
  5
200DE
100
AcDbEntity
  8
0
100
AcDbPoint
 10
5.3757206
 20
52.2465392
  0
POINT
  5
200DF
100
AcDbEntity
  8
0
100
AcDbPoint
 10
5.3647566
 20
52.2098285
  0
POINT
  5
200E0
100
AcDbEntity
  8
0
100
AcDbPoint
 10
5.112138
 20
52.0928382
  0
POINT
  5
200E1
100
AcDbEntity
  8
0
100
AcDbPoint
 10
5.3718171
 20
52.1712766
  0
POINT
  5
200E2
100
AcDbEntity
  8
0
100
AcDbPoint
 10
5.3748236
 20
52.2425587
  0
POINT
  5
200E3
100
AcDbEntity
  8
0
100
AcDbPoint
 10
5.3756077
 20
52.2435943
  0
POINT
  5
200E4
100
AcDbEntity
  8
0
100
AcDbPoint
 10
5.3749152
 20
52.242779
  0
POINT
  5
200E5
100
AcDbEntity
  8
0
100
AcDbPoint
 10
5.3758568
 20
52.2429472
  0
POINT
  5
200E6
100
AcDbEntity
  8
0
100
AcDbPoint
 10
5.3739826
 20
52.2432616
  0
POINT
  5
200E7
100
AcDbEntity
  8
0
100
AcDbPoint
 10
5.3744172
 20
52.2423981
  0
POINT
  5
200E8
100
AcDbEntity
  8
0
100
AcDbPoint
 10
5.3760285
 20
52.2432375
  0
POINT
  5
200E9
100
AcDbEntity
  8
0
100
AcDbPoint
 10
5.3745342
 20
52.242745
  0
POINT
  5
200EA
100
AcDbEntity
  8
0
100
AcDbPoint
 10
5.3762814
 20
52.2426057
  0
POINT
  5
200EB
100
AcDbEntity
  8
0
100
AcDbPoint
 10
5.3761204
 20
52.242408
  0
POINT
  5
200EC
100
AcDbEntity
  8
0
100
AcDbPoint
 10
5.3759591
 20
52.2434325
  0
POINT
  5
200ED
100
AcDbEntity
  8
0
100
AcDbPoint
 10
5.3763253
 20
52.2428394
  0
POINT
  5
200EE
100
AcDbEntity
  8
0
100
AcDbPoint
 10
5.376047
 20
52.2432438
  0
POINT
  5
200EF
100
AcDbEntity
  8
0
100
AcDbPoint
 10
5.3764425
 20
52.2426147
  0
POINT
  5
200F0
100
AcDbEntity
  8
0
100
AcDbPoint
 10
5.3761351
 20
52.242345
  0
POINT
  5
200F1
100
AcDbEntity
  8
0
100
AcDbPoint
 10
5.3760407
 20
52.2434261
  0
POINT
  5
200F2
100
AcDbEntity
  8
0
100
AcDbPoint
 10
5.3764132
 20
52.2428304
  0
POINT
  5
200F3
100
AcDbEntity
  8
0
100
AcDbPoint
 10
5.3761212
 20
52.2432309
  0
POINT
  5
200F4
100
AcDbEntity
  8
0
100
AcDbPoint
 10
5.3762303
 20
52.2422835
  0
POINT
  5
200F5
100
AcDbEntity
  8
0
100
AcDbPoint
 10
5.3761056
 20
52.2434056
  0
POINT
  5
200F6
100
AcDbEntity
  8
0
100
AcDbPoint
 10
5.376501
 20
52.2428124
  0
POINT
  5
200F7
100
AcDbEntity
  8
0
100
AcDbPoint
 10
5.3761056
 20
52.2432169
  0
POINT
  5
200F8
100
AcDbEntity
  8
0
100
AcDbPoint
 10
5.3762093
 20
52.2434065
  0
POINT
  5
200F9
100
AcDbEntity
  8
0
100
AcDbPoint
 10
5.3765742
 20
52.2428035
  0
POINT
  5
200FA
100
AcDbEntity
  8
0
100
AcDbPoint
 10
5.3764814
 20
52.242407
  0
POINT
  5
200FB
100
AcDbEntity
  8
0
100
AcDbPoint
 10
5.3743196
 20
52.2422909
  0
POINT
  5
200FC
100
AcDbEntity
  8
0
100
AcDbPoint
 10
5.3761788
 20
52.2432079
  0
POINT
  5
200FD
100
AcDbEntity
  8
0
100
AcDbPoint
 10
5.3763105
 20
52.2433876
  0
POINT
  5
200FE
100
AcDbEntity
  8
0
100
AcDbPoint
 10
5.3766474
 20
52.2428214
  0
POINT
  5
200FF
100
AcDbEntity
  8
0
100
AcDbPoint
 10
5.3765943
 20
52.2423853
  0
POINT
  5
20100
100
AcDbEntity
  8
0
100
AcDbPoint
 10
5.3756223
 20
52.2432238
  0
POINT
  5
20101
100
AcDbEntity
  8
0
100
AcDbPoint
 10
5.375
 20
52.2429055
  0
POINT
  5
20102
100
AcDbEntity
  8
0
100
AcDbPoint
 10
5.3758861
 20
52.2427135
  0
POINT
  5
20103
100
AcDbEntity
  8
0
100
AcDbPoint
 10
5.3754884
 20
52.2426125
  0
POINT
  5
20104
100
AcDbEntity
  8
0
100
AcDbPoint
 10
5.3729871
 20
52.2429289
  0
POINT
  5
20105
100
AcDbEntity
  8
0
100
AcDbPoint
 10
5.3762227
 20
52.2431989
  0
POINT
  5
20106
100
AcDbEntity
  8
0
100
AcDbPoint
 10
5.3769989
 20
52.2424889
  0
POINT
  5
20107
100
AcDbEntity
  8
0
100
AcDbPoint
 10
5.376457
 20
52.2433697
  0
POINT
  5
20108
100
AcDbEntity
  8
0
100
AcDbPoint
 10
5.3768085
 20
52.2427765
  0
POINT
  5
20109
100
AcDbEntity
  8
0
100
AcDbPoint
 10
5.3767646
 20
52.242417
  0
POINT
  5
2010A
100
AcDbEntity
  8
0
100
AcDbPoint
 10
5.3762959
 20
52.2431899
  0
POINT
  5
2010B
100
AcDbEntity
  8
0
100
AcDbPoint
 10
5.3771014
 20
52.2423541
  0
POINT
  5
2010C
100
AcDbEntity
  8
0
100
AcDbPoint
 10
5.3765263
 20
52.2433548
  0
POINT
  5
2010D
100
AcDbEntity
  8
0
100
AcDbPoint
 10
5.3768963
 20
52.2427496
  0
POINT
  5
2010E
100
AcDbEntity
  8
0
100
AcDbPoint
 10
5.3768818
 20
52.2422912
  0
POINT
  5
2010F
100
AcDbEntity
  8
0
100
AcDbPoint
 10
5.3737712
 20
52.2423547
  0
POINT
  5
20110
100
AcDbEntity
  8
0
100
AcDbPoint
 10
5.37627
 20
52.2431688
  0
POINT
  5
20111
100
AcDbEntity
  8
0
100
AcDbPoint
 10
5.3766064
 20
52.2433413
  0
POINT
  5
20112
100
AcDbEntity
  8
0
100
AcDbPoint
 10
5.3769696
 20
52.2427406
  0
POINT
  5
20113
100
AcDbEntity
  8
0
100
AcDbPoint
 10
5.3770659
 20
52.2422924
  0
POINT
  5
20114
100
AcDbEntity
  8
0
100
AcDbPoint
 10
5.3763838
 20
52.2431809
  0
POINT
  5
20115
100
AcDbEntity
  8
0
100
AcDbPoint
 10
5.376689
 20
52.2433289
  0
POINT
  5
20116
100
AcDbEntity
  8
0
100
AcDbPoint
 10
5.3770574
 20
52.2427226
  0
POINT
  5
20117
100
AcDbEntity
  8
0
100
AcDbPoint
 10
5.376353
 20
52.2431556
  0
POINT
  5
20118
100
AcDbEntity
  8
0
100
AcDbPoint
 10
5.3768084
 20
52.2433158
  0
POINT
  5
20119
100
AcDbEntity
  8
0
100
AcDbPoint
 10
5.377116
 20
52.2427136
  0
POINT
  5
2011A
100
AcDbEntity
  8
0
100
AcDbPoint
 10
5.3747689
 20
52.2425018
  0
POINT
  5
2011B
100
AcDbEntity
  8
0
100
AcDbPoint
 10
5.3759153
 20
52.2429023
  0
POINT
  5
2011C
100
AcDbEntity
  8
0
100
AcDbPoint
 10
5.376457
 20
52.2431719
  0
POINT
  5
2011D
100
AcDbEntity
  8
0
100
AcDbPoint
 10
5.3768669
 20
52.2433068
  0
POINT
  5
2011E
100
AcDbEntity
  8
0
100
AcDbPoint
 10
5.3772185
 20
52.2427316
  0
POINT
  5
2011F
100
AcDbEntity
  8
0
100
AcDbPoint
 10
5.376457
 20
52.243145
  0
POINT
  5
20120
100
AcDbEntity
  8
0
100
AcDbPoint
 10
5.3774088
 20
52.2426777
  0
POINT
  5
20121
100
AcDbEntity
  8
0
100
AcDbPoint
 10
5.3774382
 20
52.2422822
  0
POINT
  5
20122
100
AcDbEntity
  8
0
100
AcDbPoint
 10
5.3765888
 20
52.243136
  0
POINT
  5
20123
100
AcDbEntity
  8
0
100
AcDbPoint
 10
5.3775113
 20
52.2426597
  0
POINT
  5
20124
100
AcDbEntity
  8
0
100
AcDbPoint
 10
5.3774528
 20
52.2423362
  0
POINT
  5
20125
100
AcDbEntity
  8
0
100
AcDbPoint
 10
5.3766858
 20
52.2431328
  0
POINT
  5
20126
100
AcDbEntity
  8
0
100
AcDbPoint
 10
5.3774528
 20
52.2423901
  0
POINT
  5
20127
100
AcDbEntity
  8
0
100
AcDbPoint
 10
5.3767352
 20
52.243127
  0
POINT
  5
20128
100
AcDbEntity
  8
0
100
AcDbPoint
 10
5.3751181
 20
52.2424369
  0
POINT
  5
20129
100
AcDbEntity
  8
0
100
AcDbPoint
 10
5.3743927
 20
52.2426235
  0
POINT
  5
2012A
100
AcDbEntity
  8
0
100
AcDbPoint
 10
5.3756517
 20
52.2432977
  0
POINT
  5
2012B
100
AcDbEntity
  8
0
100
AcDbPoint
 10
5.3750075
 20
52.2429921
  0
POINT
  5
2012C
100
AcDbEntity
  8
0
100
AcDbPoint
 10
5.3756225
 20
52.2429921
  0
POINT
  5
2012D
100
AcDbEntity
  8
0
100
AcDbPoint
 10
5.3759008
 20
52.2424798
  0
POINT
  5
2012E
100
AcDbEntity
  8
0
100
AcDbPoint
 10
5.3731335
 20
52.2429379
  0
POINT
  5
2012F
100
AcDbEntity
  8
0
100
AcDbPoint
 10
5.3768377
 20
52.2431091
  0
POINT
  5
20130
100
AcDbEntity
  8
0
100
AcDbPoint
 10
5.3769255
 20
52.2431091
  0
POINT
  5
20131
100
AcDbEntity
  8
0
100
AcDbPoint
 10
5.3769841
 20
52.2430641
  0
POINT
  5
20132
100
AcDbEntity
  8
0
100
AcDbPoint
 10
5.3771305
 20
52.2430462
  0
POINT
  5
20133
100
AcDbEntity
  8
0
100
AcDbPoint
 10
5.377233
 20
52.2430642
  0
POINT
  5
20134
100
AcDbEntity
  8
0
100
AcDbPoint
 10
5.3747534
 20
52.2424303
  0
POINT
  5
20135
100
AcDbEntity
  8
0
100
AcDbPoint
 10
5.3755711
 20
52.2434984
  0
POINT
  5
20136
100
AcDbEntity
  8
0
100
AcDbPoint
 10
5.3759885
 20
52.2428933
  0
POINT
  5
20137
100
AcDbEntity
  8
0
100
AcDbPoint
 10
5.3760618
 20
52.2426686
  0
POINT
  5
20138
100
AcDbEntity
  8
0
100
AcDbPoint
 10
5.3773062
 20
52.2430282
  0
POINT
  5
20139
100
AcDbEntity
  8
0
100
AcDbPoint
 10
5.3773794
 20
52.2430102
  0
POINT
  5
2013A
100
AcDbEntity
  8
0
100
AcDbPoint
 10
5.377438
 20
52.2430103
  0
POINT
  5
2013B
100
AcDbEntity
  8
0
100
AcDbPoint
 10
5.3775485
 20
52.242985
  0
POINT
  5
2013C
100
AcDbEntity
  8
0
100
AcDbPoint
 10
5.3744806
 20
52.2425965
  0
POINT
  5
2013D
100
AcDbEntity
  8
0
100
AcDbPoint
 10
5.3750514
 20
52.2430819
  0
POINT
  5
2013E
100
AcDbEntity
  8
0
100
AcDbPoint
 10
5.3755932
 20
52.243064
  0
POINT
  5
2013F
100
AcDbEntity
  8
0
100
AcDbPoint
 10
5.3759301
 20
52.2424439
  0
POINT
  5
20140
100
AcDbEntity
  8
0
100
AcDbPoint
 10
5.3744666
 20
52.2425627
  0
POINT
  5
20141
100
AcDbEntity
  8
0
100
AcDbPoint
 10
5.3747442
 20
52.2423179
  0
POINT
  5
20142
100
AcDbEntity
  8
0
100
AcDbPoint
 10
5.3750221
 20
52.2431808
  0
POINT
  5
20143
100
AcDbEntity
  8
0
100
AcDbPoint
 10
5.376091
 20
52.2429113
  0
POINT
  5
20144
100
AcDbEntity
  8
0
100
AcDbPoint
 10
5.3750661
 20
52.2431449
  0
POINT
  5
20145
100
AcDbEntity
  8
0
100
AcDbPoint
 10
5.3751539
 20
52.2431359
  0
POINT
  5
20146
100
AcDbEntity
  8
0
100
AcDbPoint
 10
5.3744312
 20
52.2424681
  0
POINT
  5
20147
100
AcDbEntity
  8
0
100
AcDbPoint
 10
5.3744867
 20
52.2428963
  0
POINT
  5
20148
100
AcDbEntity
  8
0
100
AcDbPoint
 10
5.3760179
 20
52.2424079
  0
POINT
  5
20149
100
AcDbEntity
  8
0
100
AcDbPoint
 10
5.3758859
 20
52.2434415
  0
POINT
  5
2014A
100
AcDbEntity
  8
0
100
AcDbPoint
 10
5.3762814
 20
52.2428843
  0
POINT
  5
2014B
100
AcDbEntity
  8
0
100
AcDbPoint
 10
5.3751669
 20
52.2429775
  0
POINT
  5
2014C
100
AcDbEntity
  8
0
100
AcDbPoint
 10
5.3762522
 20
52.2425248
  0
POINT
  5
2014D
100
AcDbEntity
  8
0
100
AcDbPoint
 10
5.3742744
 20
52.2468028
  0
POINT
  5
2014E
100
AcDbEntity
  8
0
100
AcDbPoint
 10
5.3746113
 20
52.2464613
  0
POINT
  5
2014F
100
AcDbEntity
  8
0
100
AcDbPoint
 10
5.3738648
 20
52.2454096
  0
POINT
  5
20150
100
AcDbEntity
  8
0
100
AcDbPoint
 10
5.3743625
 20
52.245904
  0
POINT
  5
20151
100
AcDbEntity
  8
0
100
AcDbPoint
 10
5.3748561
 20
52.2463166
  0
POINT
  5
20152
100
AcDbEntity
  8
0
100
AcDbPoint
 10
5.3744362
 20
52.2441155
  0
POINT
  5
20153
100
AcDbEntity
  8
0
100
AcDbPoint
 10
5.3738354
 20
52.2456523
  0
POINT
  5
20154
100
AcDbEntity
  8
0
100
AcDbPoint
 10
5.374011
 20
52.2462186
  0
POINT
  5
20155
100
AcDbEntity
  8
0
100
AcDbPoint
 10
5.3739962
 20
52.246641
  0
POINT
  5
20156
100
AcDbEntity
  8
0
100
AcDbPoint
 10
5.3732937
 20
52.2455714
  0
POINT
  5
20157
100
AcDbEntity
  8
0
100
AcDbPoint
 10
5.3737035
 20
52.2460657
  0
POINT
  5
20158
100
AcDbEntity
  8
0
100
AcDbPoint
 10
5.3748744
 20
52.2463607
  0
POINT
  5
20159
100
AcDbEntity
  8
0
100
AcDbPoint
 10
5.3737622
 20
52.2456703
  0
POINT
  5
2015A
100
AcDbEntity
  8
0
100
AcDbPoint
 10
5.3739378
 20
52.2462455
  0
POINT
  5
2015B
100
AcDbEntity
  8
0
100
AcDbPoint
 10
5.3748315
 20
52.2443582
  0
POINT
  5
2015C
100
AcDbEntity
  8
0
100
AcDbPoint
 10
5.3739376
 20
52.246659
  0
POINT
  5
2015D
100
AcDbEntity
  8
0
100
AcDbPoint
 10
5.3734985
 20
52.2461196
  0
POINT
  5
2015E
100
AcDbEntity
  8
0
100
AcDbPoint
 10
5.3748461
 20
52.2443492
  0
POINT
  5
2015F
100
AcDbEntity
  8
0
100
AcDbPoint
 10
5.3748893
 20
52.2464104
  0
POINT
  5
20160
100
AcDbEntity
  8
0
100
AcDbPoint
 10
5.3749047
 20
52.2444481
  0
POINT
  5
20161
100
AcDbEntity
  8
0
100
AcDbPoint
 10
5.3735865
 20
52.2456882
  0
POINT
  5
20162
100
AcDbEntity
  8
0
100
AcDbPoint
 10
5.3737181
 20
52.2462994
  0
POINT
  5
20163
100
AcDbEntity
  8
0
100
AcDbPoint
 10
5.3747795
 20
52.2444914
  0
POINT
  5
20164
100
AcDbEntity
  8
0
100
AcDbPoint
 10
5.3741432
 20
52.2448434
  0
POINT
  5
20165
100
AcDbEntity
  8
0
100
AcDbPoint
 10
5.3737912
 20
52.2466949
  0
POINT
  5
20166
100
AcDbEntity
  8
0
100
AcDbPoint
 10
5.373396
 20
52.2461466
  0
POINT
  5
20167
100
AcDbEntity
  8
0
100
AcDbPoint
 10
5.374903
 20
52.2464604
  0
POINT
  5
20168
100
AcDbEntity
  8
0
100
AcDbPoint
 10
5.3735279
 20
52.2457062
  0
POINT
  5
20169
100
AcDbEntity
  8
0
100
AcDbPoint
 10
5.3736303
 20
52.2463174
  0
POINT
  5
2016A
100
AcDbEntity
  8
0
100
AcDbPoint
 10
5.3749485
 20
52.2447986
  0
POINT
  5
2016B
100
AcDbEntity
  8
0
100
AcDbPoint
 10
5.3737034
 20
52.2467039
  0
POINT
  5
2016C
100
AcDbEntity
  8
0
100
AcDbPoint
 10
5.3749146
 20
52.2465048
  0
POINT
  5
2016D
100
AcDbEntity
  8
0
100
AcDbPoint
 10
5.374877
 20
52.2448109
  0
POINT
  5
2016E
100
AcDbEntity
  8
0
100
AcDbPoint
 10
5.3734547
 20
52.2457242
  0
POINT
  5
2016F
100
AcDbEntity
  8
0
100
AcDbPoint
 10
5.3734545
 20
52.2463623
  0
POINT
  5
20170
100
AcDbEntity
  8
0
100
AcDbPoint
 10
5.374867
 20
52.2447869
  0
POINT
  5
20171
100
AcDbEntity
  8
0
100
AcDbPoint
 10
5.3748167
 20
52.2448345
  0
POINT
  5
20172
100
AcDbEntity
  8
0
100
AcDbPoint
 10
5.3746555
 20
52.2454816
  0
POINT
  5
20173
100
AcDbEntity
  8
0
100
AcDbPoint
 10
5.3741283
 20
52.2455804
  0
POINT
  5
20174
100
AcDbEntity
  8
0
100
AcDbPoint
 10
5.3744942
 20
52.2461108
  0
POINT
  5
20175
100
AcDbEntity
  8
0
100
AcDbPoint
 10
5.3749221
 20
52.2465563
  0
POINT
  5
20176
100
AcDbEntity
  8
0
100
AcDbPoint
 10
5.3747435
 20
52.2448974
  0
POINT
  5
20177
100
AcDbEntity
  8
0
100
AcDbPoint
 10
5.3733815
 20
52.2457421
  0
POINT
  5
20178
100
AcDbEntity
  8
0
100
AcDbPoint
 10
5.3733813
 20
52.2463893
  0
POINT
  5
20179
100
AcDbEntity
  8
0
100
AcDbPoint
 10
5.3746264
 20
52.2448525
  0
POINT
  5
2017A
100
AcDbEntity
  8
0
100
AcDbPoint
 10
5.3734105
 20
52.2467667
  0
POINT
  5
2017B
100
AcDbEntity
  8
0
100
AcDbPoint
 10
5.3746263
 20
52.2448884
  0
POINT
  5
2017C
100
AcDbEntity
  8
0
100
AcDbPoint
 10
5.3742711
 20
52.2449915
  0
POINT
  5
2017D
100
AcDbEntity
  8
0
100
AcDbPoint
 10
5.3748898
 20
52.2450772
  0
POINT
  5
2017E
100
AcDbEntity
  8
0
100
AcDbPoint
 10
5.3733083
 20
52.2457601
  0
POINT
  5
2017F
100
AcDbEntity
  8
0
100
AcDbPoint
 10
5.3732495
 20
52.2464162
  0
POINT
  5
20180
100
AcDbEntity
  8
0
100
AcDbPoint
 10
5.3747169
 20
52.2452761
  0
POINT
  5
20181
100
AcDbEntity
  8
0
100
AcDbPoint
 10
5.3734398
 20
52.2467937
  0
POINT
  5
20182
100
AcDbEntity
  8
0
100
AcDbPoint
 10
5.3743541
 20
52.2453667
  0
POINT
  5
20183
100
AcDbEntity
  8
0
100
AcDbPoint
 10
5.3732351
 20
52.2457781
  0
POINT
  5
20184
100
AcDbEntity
  8
0
100
AcDbPoint
 10
5.3731763
 20
52.2464342
  0
POINT
  5
20185
100
AcDbEntity
  8
0
100
AcDbPoint
 10
5.3730741
 20
52.2455444
  0
POINT
  5
20186
100
AcDbEntity
  8
0
100
AcDbPoint
 10
5.3750508
 20
52.2453828
  0
POINT
  5
20187
100
AcDbEntity
  8
0
100
AcDbPoint
 10
5.373469
 20
52.2468387
  0
POINT
  5
20188
100
AcDbEntity
  8
0
100
AcDbPoint
 10
5.3750655
 20
52.2454457
  0
POINT
  5
20189
100
AcDbEntity
  8
0
100
AcDbPoint
 10
5.3731619
 20
52.245796
  0
POINT
  5
2018A
100
AcDbEntity
  8
0
100
AcDbPoint
 10
5.3730445
 20
52.2464701
  0
POINT
  5
2018B
100
AcDbEntity
  8
0
100
AcDbPoint
 10
5.3730594
 20
52.2455983
  0
POINT
  5
2018C
100
AcDbEntity
  8
0
100
AcDbPoint
 10
5.3750947
 20
52.2455266
  0
POINT
  5
2018D
100
AcDbEntity
  8
0
100
AcDbPoint
 10
5.3734837
 20
52.2468926
  0
POINT
  5
2018E
100
AcDbEntity
  8
0
100
AcDbPoint
 10
5.3751093
 20
52.2455895
  0
POINT
  5
2018F
100
AcDbEntity
  8
0
100
AcDbPoint
 10
5.3730886
 20
52.245823
  0
POINT
  5
20190
100
AcDbEntity
  8
0
100
AcDbPoint
 10
5.3729713
 20
52.2464881
  0
POINT
  5
20191
100
AcDbEntity
  8
0
100
AcDbPoint
 10
5.37303
 20
52.2460387
  0
POINT
  5
20192
100
AcDbEntity
  8
0
100
AcDbPoint
 10
5.3751386
 20
52.2457333
  0
POINT
  5
20193
100
AcDbEntity
  8
0
100
AcDbPoint
 10
5.3743923
 20
52.2440166
  0
POINT
  5
20194
100
AcDbEntity
  8
0
100
AcDbPoint
 10
5.3743329
 20
52.2468388
  0
POINT
  5
20195
100
AcDbEntity
  8
0
100
AcDbPoint
 10
5.3744648
 20
52.2465152
  0
POINT
  5
20196
100
AcDbEntity
  8
0
100
AcDbPoint
 10
5.3737037
 20
52.2454725
  0
POINT
  5
20197
100
AcDbEntity
  8
0
100
AcDbPoint
 10
5.37426
 20
52.245931
  0
POINT
  5
20198
100
AcDbEntity
  8
0
100
AcDbPoint
 10
5.3751679
 20
52.2457963
  0
POINT
  5
20199
100
AcDbEntity
  8
0
100
AcDbPoint
 10
5.37303
 20
52.2460926
  0
POINT
  5
2019A
100
AcDbEntity
  8
0
100
AcDbPoint
 10
5.3751971
 20
52.2458772
  0
POINT
  5
2019B
100
AcDbEntity
  8
0
100
AcDbPoint
 10
5.3752117
 20
52.2459401
  0
POINT
  5
2019C
100
AcDbEntity
  8
0
100
AcDbPoint
 10
5.3730299
 20
52.2462005
  0
POINT
  5
2019D
100
AcDbEntity
  8
0
100
AcDbPoint
 10
5.375241
 20
52.246012
  0
POINT
  5
2019E
100
AcDbEntity
  8
0
100
AcDbPoint
 10
5.3752703
 20
52.2460749
  0
POINT
  5
2019F
100
AcDbEntity
  8
0
100
AcDbPoint
 10
5.3730299
 20
52.2462724
  0
POINT
  5
201A0
100
AcDbEntity
  8
0
100
AcDbPoint
 10
5.3752995
 20
52.2462277
  0
POINT
  5
201A1
100
AcDbEntity
  8
0
100
AcDbPoint
 10
5.3753434
 20
52.2463176
  0
POINT
  5
201A2
100
AcDbEntity
  8
0
100
AcDbPoint
 10
5.3753434
 20
52.2463895
  0
POINT
  5
201A3
100
AcDbEntity
  8
0
100
AcDbPoint
 10
5.3753873
 20
52.2464524
  0
POINT
  5
201A4
100
AcDbEntity
  8
0
100
AcDbPoint
 10
5.3754019
 20
52.2465243
  0
POINT
  5
201A5
100
AcDbEntity
  8
0
100
AcDbPoint
 10
5.3740551
 20
52.2455984
  0
POINT
  5
201A6
100
AcDbEntity
  8
0
100
AcDbPoint
 10
5.3743917
 20
52.2461287
  0
POINT
  5
201A7
100
AcDbEntity
  8
0
100
AcDbPoint
 10
5.3747725
 20
52.2458322
  0
POINT
  5
201A8
100
AcDbEntity
  8
0
100
AcDbPoint
 10
5.3743622
 20
52.2468927
  0
POINT
  5
201A9
100
AcDbEntity
  8
0
100
AcDbPoint
 10
5.374377
 20
52.2465422
  0
POINT
  5
201AA
100
AcDbEntity
  8
0
100
AcDbPoint
 10
5.3736451
 20
52.2454905
  0
POINT
  5
201AB
100
AcDbEntity
  8
0
100
AcDbPoint
 10
5.3741282
 20
52.2459669
  0
POINT
  5
201AC
100
AcDbEntity
  8
0
100
AcDbPoint
 10
5.3747871
 20
52.2458951
  0
POINT
  5
201AD
100
AcDbEntity
  8
0
100
AcDbPoint
 10
5.3739819
 20
52.2456164
  0
POINT
  5
201AE
100
AcDbEntity
  8
0
100
AcDbPoint
 10
5.3742746
 20
52.2461647
  0
POINT
  5
201AF
100
AcDbEntity
  8
0
100
AcDbPoint
 10
5.3748456
 20
52.2460838
  0
POINT
  5
201B0
100
AcDbEntity
  8
0
100
AcDbPoint
 10
5.3742452
 20
52.2465781
  0
POINT
  5
201B1
100
AcDbEntity
  8
0
100
AcDbPoint
 10
5.3734548
 20
52.2455264
  0
POINT
  5
201B2
100
AcDbEntity
  8
0
100
AcDbPoint
 10
5.3740257
 20
52.2459849
  0
POINT
  5
201B3
100
AcDbEntity
  8
0
100
AcDbPoint
 10
5.3748749
 20
52.2461378
  0
POINT
  5
201B4
100
AcDbEntity
  8
0
100
AcDbPoint
 10
5.3739233
 20
52.2456343
  0
POINT
  5
201B5
100
AcDbEntity
  8
0
100
AcDbPoint
 10
5.3741721
 20
52.2461826
  0
POINT
  5
201B6
100
AcDbEntity
  8
0
100
AcDbPoint
 10
5.3746705
 20
52.2439537
  0
POINT
  5
201B7
100
AcDbEntity
  8
0
100
AcDbPoint
 10
5.3741573
 20
52.2465961
  0
POINT
  5
201B8
100
AcDbEntity
  8
0
100
AcDbPoint
 10
5.3733669
 20
52.2455534
  0
POINT
  5
201B9
100
AcDbEntity
  8
0
100
AcDbPoint
 10
5.3738207
 20
52.2460388
  0
POINT
  5
201BA
100
AcDbEntity
  8
0
100
AcDbPoint
 10
5.3788871
 20
52.245509
  0
POINT
  5
201BB
100
AcDbEntity
  8
0
100
AcDbPoint
 10
5.3787257
 20
52.244875
  0
POINT
  5
201BC
100
AcDbEntity
  8
0
100
AcDbPoint
 10
5.3812152
 20
52.2454372
  0
POINT
  5
201BD
100
AcDbEntity
  8
0
100
AcDbPoint
 10
5.3790334
 20
52.2458235
  0
POINT
  5
201BE
100
AcDbEntity
  8
0
100
AcDbPoint
 10
5.3800973
 20
52.2452392
  0
POINT
  5
201BF
100
AcDbEntity
  8
0
100
AcDbPoint
 10
5.3814786
 20
52.2465068
  0
POINT
  5
201C0
100
AcDbEntity
  8
0
100
AcDbPoint
 10
5.3784146
 20
52.2449052
  0
POINT
  5
201C1
100
AcDbEntity
  8
0
100
AcDbPoint
 10
5.3756222
 20
52.2440617
  0
POINT
  5
201C2
100
AcDbEntity
  8
0
100
AcDbPoint
 10
5.37963
 20
52.2440254
  0
POINT
  5
201C3
100
AcDbEntity
  8
0
100
AcDbPoint
 10
5.3785723
 20
52.2444197
  0
POINT
  5
201C4
100
AcDbEntity
  8
0
100
AcDbPoint
 10
5.3758567
 20
52.2442857
  0
POINT
  5
201C5
100
AcDbEntity
  8
0
100
AcDbPoint
 10
5.3763288
 20
52.2452538
  0
POINT
  5
201C6
100
AcDbEntity
  8
0
100
AcDbPoint
 10
5.3771447
 20
52.245383
  0
POINT
  5
201C7
100
AcDbEntity
  8
0
100
AcDbPoint
 10
5.3766361
 20
52.2463448
  0
POINT
  5
201C8
100
AcDbEntity
  8
0
100
AcDbPoint
 10
5.3792822
 20
52.2465516
  0
POINT
  5
201C9
100
AcDbEntity
  8
0
100
AcDbPoint
 10
5.3806005
 20
52.2436486
  0
POINT
  5
201CA
100
AcDbEntity
  8
0
100
AcDbPoint
 10
5.3799577
 20
52.2446235
  0
POINT
  5
201CB
100
AcDbEntity
  8
0
100
AcDbPoint
 10
5.3792109
 20
52.2451365
  0
POINT
  5
201CC
100
AcDbEntity
  8
0
100
AcDbPoint
 10
5.379468
 20
52.2447508
  0
POINT
  5
201CD
100
AcDbEntity
  8
0
100
AcDbPoint
 10
5.3818887
 20
52.2453204
  0
POINT
  5
201CE
100
AcDbEntity
  8
0
100
AcDbPoint
 10
5.3797216
 20
52.2457068
  0
POINT
  5
201CF
100
AcDbEntity
  8
0
100
AcDbPoint
 10
5.3808537
 20
52.2453594
  0
POINT
  5
201D0
100
AcDbEntity
  8
0
100
AcDbPoint
 10
5.3817422
 20
52.2460664
  0
POINT
  5
201D1
100
AcDbEntity
  8
0
100
AcDbPoint
 10
5.3757538
 20
52.2449515
  0
POINT
  5
201D2
100
AcDbEntity
  8
0
100
AcDbPoint
 10
5.3798972
 20
52.2467943
  0
POINT
  5
201D3
100
AcDbEntity
  8
0
100
AcDbPoint
 10
5.3796609
 20
52.244241
  0
POINT
  5
201D4
100
AcDbEntity
  8
0
100
AcDbPoint
 10
5.3787823
 20
52.2435081
  0
POINT
  5
201D5
100
AcDbEntity
  8
0
100
AcDbPoint
 10
5.3775546
 20
52.2455628
  0
POINT
  5
201D6
100
AcDbEntity
  8
0
100
AcDbPoint
 10
5.3765151
 20
52.2450144
  0
POINT
  5
201D7
100
AcDbEntity
  8
0
100
AcDbPoint
 10
5.3777085
 20
52.2444055
  0
POINT
  5
201D8
100
AcDbEntity
  8
0
100
AcDbPoint
 10
5.3805209
 20
52.2463031
  0
POINT
  5
201D9
100
AcDbEntity
  8
0
100
AcDbPoint
 10
5.3804394
 20
52.2434059
  0
POINT
  5
201DA
100
AcDbEntity
  8
0
100
AcDbPoint
 10
5.3822401
 20
52.2453204
  0
POINT
  5
201DB
100
AcDbEntity
  8
0
100
AcDbPoint
 10
5.3805624
 20
52.244814
  0
POINT
  5
201DC
100
AcDbEntity
  8
0
100
AcDbPoint
 10
5.3781984
 20
52.243934
  0
POINT
  5
201DD
100
AcDbEntity
  8
0
100
AcDbPoint
 10
5.382035
 20
52.2467495
  0
POINT
  5
201DE
100
AcDbEntity
  8
0
100
AcDbPoint
 10
5.3783455
 20
52.2439689
  0
POINT
  5
201DF
100
AcDbEntity
  8
0
100
AcDbPoint
 10
5.3822107
 20
52.2467045
  0
POINT
  5
201E0
100
AcDbEntity
  8
0
100
AcDbPoint
 10
5.3782701
 20
52.2439689
  0
POINT
  5
201E1
100
AcDbEntity
  8
0
100
AcDbPoint
 10
5.3822986
 20
52.2466955
  0
POINT
  5
201E2
100
AcDbEntity
  8
0
100
AcDbPoint
 10
5.3781915
 20
52.2439683
  0
POINT
  5
201E3
100
AcDbEntity
  8
0
100
AcDbPoint
 10
5.3823718
 20
52.2466776
  0
POINT
  5
201E4
100
AcDbEntity
  8
0
100
AcDbPoint
 10
5.3783376
 20
52.2440024
  0
POINT
  5
201E5
100
AcDbEntity
  8
0
100
AcDbPoint
 10
5.3792678
 20
52.2454371
  0
POINT
  5
201E6
100
AcDbEntity
  8
0
100
AcDbPoint
 10
5.3795473
 20
52.2447312
  0
POINT
  5
201E7
100
AcDbEntity
  8
0
100
AcDbPoint
 10
5.3819912
 20
52.2453114
  0
POINT
  5
201E8
100
AcDbEntity
  8
0
100
AcDbPoint
 10
5.3798095
 20
52.2456978
  0
POINT
  5
201E9
100
AcDbEntity
  8
0
100
AcDbPoint
 10
5.3802139
 20
52.2455006
  0
POINT
  5
201EA
100
AcDbEntity
  8
0
100
AcDbPoint
 10
5.3818301
 20
52.2460574
  0
POINT
  5
201EB
100
AcDbEntity
  8
0
100
AcDbPoint
 10
5.375783
 20
52.2450593
  0
POINT
  5
201EC
100
AcDbEntity
  8
0
100
AcDbPoint
 10
5.3797492
 20
52.2442241
  0
POINT
  5
201ED
100
AcDbEntity
  8
0
100
AcDbPoint
 10
5.3810952
 20
52.2444711
  0
POINT
  5
201EE
100
AcDbEntity
  8
0
100
AcDbPoint
 10
5.3761864
 20
52.2444808
  0
POINT
  5
201EF
100
AcDbEntity
  8
0
100
AcDbPoint
 10
5.3764418
 20
52.2457245
  0
POINT
  5
201F0
100
AcDbEntity
  8
0
100
AcDbPoint
 10
5.3772031
 20
52.2457875
  0
POINT
  5
201F1
100
AcDbEntity
  8
0
100
AcDbPoint
 10
5.3777164
 20
52.2444606
  0
POINT
  5
201F2
100
AcDbEntity
  8
0
100
AcDbPoint
 10
5.3775398
 20
52.246165
  0
POINT
  5
201F3
100
AcDbEntity
  8
0
100
AcDbPoint
 10
5.3804732
 20
52.246364
  0
POINT
  5
201F4
100
AcDbEntity
  8
0
100
AcDbPoint
 10
5.3813033
 20
52.2435857
  0
POINT
  5
201F5
100
AcDbEntity
  8
0
100
AcDbPoint
 10
5.3832211
 20
52.2466416
  0
POINT
  5
201F6
100
AcDbEntity
  8
0
100
AcDbPoint
 10
5.3800917
 20
52.2449715
  0
POINT
  5
201F7
100
AcDbEntity
  8
0
100
AcDbPoint
 10
5.3782655
 20
52.2440035
  0
POINT
  5
201F8
100
AcDbEntity
  8
0
100
AcDbPoint
 10
5.3781966
 20
52.2440029
  0
POINT
  5
201F9
100
AcDbEntity
  8
0
100
AcDbPoint
 10
5.3783538
 20
52.2440291
  0
POINT
  5
201FA
100
AcDbEntity
  8
0
100
AcDbPoint
 10
5.3782863
 20
52.2440308
  0
POINT
  5
201FB
100
AcDbEntity
  8
0
100
AcDbPoint
 10
5.3782155
 20
52.2440313
  0
POINT
  5
201FC
100
AcDbEntity
  8
0
100
AcDbPoint
 10
5.3792815
 20
52.2451218
  0
POINT
  5
201FD
100
AcDbEntity
  8
0
100
AcDbPoint
 10
5.3798681
 20
52.2456708
  0
POINT
  5
201FE
100
AcDbEntity
  8
0
100
AcDbPoint
 10
5.3808771
 20
52.2454112
  0
POINT
  5
201FF
100
AcDbEntity
  8
0
100
AcDbPoint
 10
5.3819033
 20
52.2460394
  0
POINT
  5
20200
100
AcDbEntity
  8
0
100
AcDbPoint
 10
5.3757976
 20
52.2451132
  0
POINT
  5
20201
100
AcDbEntity
  8
0
100
AcDbPoint
 10
5.3799704
 20
52.2467853
  0
POINT
  5
20202
100
AcDbEntity
  8
0
100
AcDbPoint
 10
5.3797302
 20
52.2443149
  0
POINT
  5
20203
100
AcDbEntity
  8
0
100
AcDbPoint
 10
5.3786859
 20
52.2435043
  0
POINT
  5
20204
100
AcDbEntity
  8
0
100
AcDbPoint
 10
5.3775839
 20
52.2456437
  0
POINT
  5
20205
100
AcDbEntity
  8
0
100
AcDbPoint
 10
5.376603
 20
52.2449785
  0
POINT
  5
20206
100
AcDbEntity
  8
0
100
AcDbPoint
 10
5.3777305
 20
52.2445202
  0
POINT
  5
20207
100
AcDbEntity
  8
0
100
AcDbPoint
 10
5.3805394
 20
52.2463536
  0
POINT
  5
20208
100
AcDbEntity
  8
0
100
AcDbPoint
 10
5.3805712
 20
52.243379
  0
POINT
  5
20209
100
AcDbEntity
  8
0
100
AcDbPoint
 10
5.3822255
 20
52.2452485
  0
POINT
  5
2020A
100
AcDbEntity
  8
0
100
AcDbPoint
 10
5.3805911
 20
52.2448852
  0
POINT
  5
2020B
100
AcDbEntity
  8
0
100
AcDbPoint
 10
5.3793556
 20
52.2454281
  0
POINT
  5
2020C
100
AcDbEntity
  8
0
100
AcDbPoint
 10
5.3799559
 20
52.2456618
  0
POINT
  5
2020D
100
AcDbEntity
  8
0
100
AcDbPoint
 10
5.380236
 20
52.2455507
  0
POINT
  5
2020E
100
AcDbEntity
  8
0
100
AcDbPoint
 10
5.3819912
 20
52.2460214
  0
POINT
  5
2020F
100
AcDbEntity
  8
0
100
AcDbPoint
 10
5.3759221
 20
52.2453194
  0
POINT
  5
20210
100
AcDbEntity
  8
0
100
AcDbPoint
 10
5.379705
 20
52.2443725
  0
POINT
  5
20211
100
AcDbEntity
  8
0
100
AcDbPoint
 10
5.3811752
 20
52.2444498
  0
POINT
  5
20212
100
AcDbEntity
  8
0
100
AcDbPoint
 10
5.3762129
 20
52.2445304
  0
POINT
  5
20213
100
AcDbEntity
  8
0
100
AcDbPoint
 10
5.3764857
 20
52.2458323
  0
POINT
  5
20214
100
AcDbEntity
  8
0
100
AcDbPoint
 10
5.3766717
 20
52.2447289
  0
POINT
  5
20215
100
AcDbEntity
  8
0
100
AcDbPoint
 10
5.3772031
 20
52.2458324
  0
POINT
  5
20216
100
AcDbEntity
  8
0
100
AcDbPoint
 10
5.3766469
 20
52.2452122
  0
POINT
  5
20217
100
AcDbEntity
  8
0
100
AcDbPoint
 10
5.3777388
 20
52.2445658
  0
POINT
  5
20218
100
AcDbEntity
  8
0
100
AcDbPoint
 10
5.3804916
 20
52.2464169
  0
POINT
  5
20219
100
AcDbEntity
  8
0
100
AcDbPoint
 10
5.381435
 20
52.2435947
  0
POINT
  5
2021A
100
AcDbEntity
  8
0
100
AcDbPoint
 10
5.3831625
 20
52.2465158
  0
POINT
  5
2021B
100
AcDbEntity
  8
0
100
AcDbPoint
 10
5.3801379
 20
52.2450396
  0
POINT
  5
2021C
100
AcDbEntity
  8
0
100
AcDbPoint
 10
5.3793669
 20
52.2451055
  0
POINT
  5
2021D
100
AcDbEntity
  8
0
100
AcDbPoint
 10
5.3809
 20
52.2454619
  0
POINT
  5
2021E
100
AcDbEntity
  8
0
100
AcDbPoint
 10
5.3820644
 20
52.2460484
  0
POINT
  5
2021F
100
AcDbEntity
  8
0
100
AcDbPoint
 10
5.3759565
 20
52.2454069
  0
POINT
  5
20220
100
AcDbEntity
  8
0
100
AcDbPoint
 10
5.3800436
 20
52.2467763
  0
POINT
  5
20221
100
AcDbEntity
  8
0
100
AcDbPoint
 10
5.3797844
 20
52.2444284
  0
POINT
  5
20222
100
AcDbEntity
  8
0
100
AcDbPoint
 10
5.3786794
 20
52.2435423
  0
POINT
  5
20223
100
AcDbEntity
  8
0
100
AcDbPoint
 10
5.3776131
 20
52.2457515
  0
POINT
  5
20224
100
AcDbEntity
  8
0
100
AcDbPoint
 10
5.3767494
 20
52.2449516
  0
POINT
  5
20225
100
AcDbEntity
  8
0
100
AcDbPoint
 10
5.3777027
 20
52.2446212
  0
POINT
  5
20226
100
AcDbEntity
  8
0
100
AcDbPoint
 10
5.380561
 20
52.2464062
  0
POINT
  5
20227
100
AcDbEntity
  8
0
100
AcDbPoint
 10
5.3806884
 20
52.24337
  0
POINT
  5
20228
100
AcDbEntity
  8
0
100
AcDbPoint
 10
5.3821962
 20
52.2451586
  0
POINT
  5
20229
100
AcDbEntity
  8
0
100
AcDbPoint
 10
5.3806036
 20
52.2449616
  0
POINT
  5
2022A
100
AcDbEntity
  8
0
100
AcDbPoint
 10
5.3802398
 20
52.2437799
  0
POINT
  5
2022B
100
AcDbEntity
  8
0
100
AcDbPoint
 10
5.3802766
 20
52.2438529
  0
POINT
  5
2022C
100
AcDbEntity
  8
0
100
AcDbPoint
 10
5.3803088
 20
52.2439255
  0
POINT
  5
2022D
100
AcDbEntity
  8
0
100
AcDbPoint
 10
5.3803396
 20
52.2439942
  0
POINT
  5
2022E
100
AcDbEntity
  8
0
100
AcDbPoint
 10
5.3794142
 20
52.2454101
  0
POINT
  5
2022F
100
AcDbEntity
  8
0
100
AcDbPoint
 10
5.3802616
 20
52.2456088
  0
POINT
  5
20230
100
AcDbEntity
  8
0
100
AcDbPoint
 10
5.3822254
 20
52.2460484
  0
POINT
  5
20231
100
AcDbEntity
  8
0
100
AcDbPoint
 10
5.3759733
 20
52.2455177
  0
POINT
  5
20232
100
AcDbEntity
  8
0
100
AcDbPoint
 10
5.379798
 20
52.244363
  0
POINT
  5
20233
100
AcDbEntity
  8
0
100
AcDbPoint
 10
5.3812552
 20
52.2444326
  0
POINT
  5
20234
100
AcDbEntity
  8
0
100
AcDbPoint
 10
5.3762367
 20
52.2445841
  0
POINT
  5
20235
100
AcDbEntity
  8
0
100
AcDbPoint
 10
5.3765003
 20
52.2459042
  0
POINT
  5
20236
100
AcDbEntity
  8
0
100
AcDbPoint
 10
5.3767347
 20
52.2451852
  0
POINT
  5
20237
100
AcDbEntity
  8
0
100
AcDbPoint
 10
5.3778768
 20
52.2452932
  0
POINT
  5
20238
100
AcDbEntity
  8
0
100
AcDbPoint
 10
5.3805101
 20
52.246469
  0
POINT
  5
20239
100
AcDbEntity
  8
0
100
AcDbPoint
 10
5.3815815
 20
52.2436217
  0
POINT
  5
2023A
100
AcDbEntity
  8
0
100
AcDbPoint
 10
5.3830454
 20
52.2462372
  0
POINT
  5
2023B
100
AcDbEntity
  8
0
100
AcDbPoint
 10
5.3798837
 20
52.244632
  0
POINT
  5
2023C
100
AcDbEntity
  8
0
100
AcDbPoint
 10
5.3803609
 20
52.2440572
  0
POINT
  5
2023D
100
AcDbEntity
  8
0
100
AcDbPoint
 10
5.3803967
 20
52.2441188
  0
POINT
  5
2023E
100
AcDbEntity
  8
0
100
AcDbPoint
 10
5.3804451
 20
52.2442056
  0
POINT
  5
2023F
100
AcDbEntity
  8
0
100
AcDbPoint
 10
5.3804625
 20
52.2442579
  0
POINT
  5
20240
100
AcDbEntity
  8
0
100
AcDbPoint
 10
5.3804935
 20
52.2443198
  0
POINT
  5
20241
100
AcDbEntity
  8
0
100
AcDbPoint
 10
5.3794442
 20
52.2450973
  0
POINT
  5
20242
100
AcDbEntity
  8
0
100
AcDbPoint
 10
5.3809262
 20
52.2455198
  0
POINT
  5
20243
100
AcDbEntity
  8
0
100
AcDbPoint
 10
5.3823279
 20
52.2460304
  0
POINT
  5
20244
100
AcDbEntity
  8
0
100
AcDbPoint
 10
5.3759879
 20
52.2455986
  0
POINT
  5
20245
100
AcDbEntity
  8
0
100
AcDbPoint
 10
5.3801168
 20
52.2467583
  0
POINT
  5
20246
100
AcDbEntity
  8
0
100
AcDbPoint
 10
5.378672
 20
52.2435821
  0
POINT
  5
20247
100
AcDbEntity
  8
0
100
AcDbPoint
 10
5.3776424
 20
52.2458234
  0
POINT
  5
20248
100
AcDbEntity
  8
0
100
AcDbPoint
 10
5.3768666
 20
52.2449426
  0
POINT
  5
20249
100
AcDbEntity
  8
0
100
AcDbPoint
 10
5.3778914
 20
52.2453561
  0
POINT
  5
2024A
100
AcDbEntity
  8
0
100
AcDbPoint
 10
5.3805836
 20
52.2464595
  0
POINT
  5
2024B
100
AcDbEntity
  8
0
100
AcDbPoint
 10
5.3807762
 20
52.243352
  0
POINT
  5
2024C
100
AcDbEntity
  8
0
100
AcDbPoint
 10
5.3821377
 20
52.2450777
  0
POINT
  5
2024D
100
AcDbEntity
  8
0
100
AcDbPoint
 10
5.3805061
 20
52.2445236
  0
POINT
  5
2024E
100
AcDbEntity
  8
0
100
AcDbPoint
 10
5.3802592
 20
52.2437181
  0
POINT
  5
2024F
100
AcDbEntity
  8
0
100
AcDbPoint
 10
5.3803037
 20
52.2437764
  0
POINT
  5
20250
100
AcDbEntity
  8
0
100
AcDbPoint
 10
5.3803328
 20
52.2438442
  0
POINT
  5
20251
100
AcDbEntity
  8
0
100
AcDbPoint
 10
5.3803638
 20
52.2439155
  0
POINT
  5
20252
100
AcDbEntity
  8
0
100
AcDbPoint
 10
5.3804025
 20
52.2439856
  0
POINT
  5
20253
100
AcDbEntity
  8
0
100
AcDbPoint
 10
5.379502
 20
52.2454012
  0
POINT
  5
20254
100
AcDbEntity
  8
0
100
AcDbPoint
 10
5.3802892
 20
52.2456646
  0
POINT
  5
20255
100
AcDbEntity
  8
0
100
AcDbPoint
 10
5.3825036
 20
52.2460035
  0
POINT
  5
20256
100
AcDbEntity
  8
0
100
AcDbPoint
 10
5.3813365
 20
52.2444187
  0
POINT
  5
20257
100
AcDbEntity
  8
0
100
AcDbPoint
 10
5.3762658
 20
52.244641
  0
POINT
  5
20258
100
AcDbEntity
  8
0
100
AcDbPoint
 10
5.3765295
 20
52.2460031
  0
POINT
  5
20259
100
AcDbEntity
  8
0
100
AcDbPoint
 10
5.3771588
 20
52.2446595
  0
POINT
  5
2025A
100
AcDbEntity
  8
0
100
AcDbPoint
 10
5.3768226
 20
52.2451852
  0
POINT
  5
2025B
100
AcDbEntity
  8
0
100
AcDbPoint
 10
5.3777594
 20
52.2465784
  0
POINT
  5
2025C
100
AcDbEntity
  8
0
100
AcDbPoint
 10
5.3805332
 20
52.2465229
  0
POINT
  5
2025D
100
AcDbEntity
  8
0
100
AcDbPoint
 10
5.3817864
 20
52.2436576
  0
POINT
  5
2025E
100
AcDbEntity
  8
0
100
AcDbPoint
 10
5.3829868
 20
52.2461383
  0
POINT
  5
2025F
100
AcDbEntity
  8
0
100
AcDbPoint
 10
5.3799077
 20
52.2447092
  0
POINT
  5
20260
100
AcDbEntity
  8
0
100
AcDbPoint
 10
5.3804257
 20
52.2440463
  0
POINT
  5
20261
100
AcDbEntity
  8
0
100
AcDbPoint
 10
5.3804567
 20
52.2441081
  0
POINT
  5
20262
100
AcDbEntity
  8
0
100
AcDbPoint
 10
5.3804916
 20
52.2441914
  0
POINT
  5
20263
100
AcDbEntity
  8
0
100
AcDbPoint
 10
5.3805187
 20
52.2442425
  0
POINT
  5
20264
100
AcDbEntity
  8
0
100
AcDbPoint
 10
5.380538
 20
52.2443126
  0
POINT
  5
20265
100
AcDbEntity
  8
0
100
AcDbPoint
 10
5.3795228
 20
52.2450834
  0
POINT
  5
20266
100
AcDbEntity
  8
0
100
AcDbPoint
 10
5.38095
 20
52.2455726
  0
POINT
  5
20267
100
AcDbEntity
  8
0
100
AcDbPoint
 10
5.376061
 20
52.2458413
  0
POINT
  5
20268
100
AcDbEntity
  8
0
100
AcDbPoint
 10
5.38019
 20
52.2467494
  0
POINT
  5
20269
100
AcDbEntity
  8
0
100
AcDbPoint
 10
5.3786664
 20
52.243619
  0
POINT
  5
2026A
100
AcDbEntity
  8
0
100
AcDbPoint
 10
5.3777302
 20
52.2459852
  0
POINT
  5
2026B
100
AcDbEntity
  8
0
100
AcDbPoint
 10
5.3769204
 20
52.244927
  0
POINT
  5
2026C
100
AcDbEntity
  8
0
100
AcDbPoint
 10
5.377906
 20
52.2455089
  0
POINT
  5
2026D
100
AcDbEntity
  8
0
100
AcDbPoint
 10
5.3806088
 20
52.2465103
  0
POINT
  5
2026E
100
AcDbEntity
  8
0
100
AcDbPoint
 10
5.380908
 20
52.243343
  0
POINT
  5
2026F
100
AcDbEntity
  8
0
100
AcDbPoint
 10
5.382123
 20
52.2450238
  0
POINT
  5
20270
100
AcDbEntity
  8
0
100
AcDbPoint
 10
5.3805292
 20
52.2445963
  0
POINT
  5
20271
100
AcDbEntity
  8
0
100
AcDbPoint
 10
5.3803367
 20
52.2437157
  0
POINT
  5
20272
100
AcDbEntity
  8
0
100
AcDbPoint
 10
5.3803696
 20
52.2437728
  0
POINT
  5
20273
100
AcDbEntity
  8
0
100
AcDbPoint
 10
5.3804006
 20
52.243837
  0
POINT
  5
20274
100
AcDbEntity
  8
0
100
AcDbPoint
 10
5.3804335
 20
52.2439072
  0
POINT
  5
20275
100
AcDbEntity
  8
0
100
AcDbPoint
 10
5.3804703
 20
52.2439773
  0
POINT
  5
20276
100
AcDbEntity
  8
0
100
AcDbPoint
 10
5.3795753
 20
52.2453832
  0
POINT
  5
20277
100
AcDbEntity
  8
0
100
AcDbPoint
 10
5.3801928
 20
52.2456775
  0
POINT
  5
20278
100
AcDbEntity
  8
0
100
AcDbPoint
 10
5.3760903
 20
52.2459312
  0
POINT
  5
20279
100
AcDbEntity
  8
0
100
AcDbPoint
 10
5.3814151
 20
52.2444048
  0
POINT
  5
2027A
100
AcDbEntity
  8
0
100
AcDbPoint
 10
5.3765442
 20
52.246093
  0
POINT
  5
2027B
100
AcDbEntity
  8
0
100
AcDbPoint
 10
5.3769104
 20
52.2451763
  0
POINT
  5
2027C
100
AcDbEntity
  8
0
100
AcDbPoint
 10
5.3779207
 20
52.2455898
  0
POINT
  5
2027D
100
AcDbEntity
  8
0
100
AcDbPoint
 10
5.3775105
 20
52.2464076
  0
POINT
  5
2027E
100
AcDbEntity
  8
0
100
AcDbPoint
 10
5.3805543
 20
52.2465759
  0
POINT
  5
2027F
100
AcDbEntity
  8
0
100
AcDbPoint
 10
5.381845
 20
52.2436756
  0
POINT
  5
20280
100
AcDbEntity
  8
0
100
AcDbPoint
 10
5.3829283
 20
52.2460215
  0
POINT
  5
20281
100
AcDbEntity
  8
0
100
AcDbPoint
 10
5.3799355
 20
52.2447734
  0
POINT
  5
20282
100
AcDbEntity
  8
0
100
AcDbPoint
 10
5.3804954
 20
52.2440415
  0
POINT
  5
20283
100
AcDbEntity
  8
0
100
AcDbPoint
 10
5.3805245
 20
52.2441034
  0
POINT
  5
20284
100
AcDbEntity
  8
0
100
AcDbPoint
 10
5.3805593
 20
52.2441854
  0
POINT
  5
20285
100
AcDbEntity
  8
0
100
AcDbPoint
 10
5.3805884
 20
52.2442354
  0
POINT
  5
20286
100
AcDbEntity
  8
0
100
AcDbPoint
 10
5.3806039
 20
52.244296
  0
POINT
  5
20287
100
AcDbEntity
  8
0
100
AcDbPoint
 10
5.3782141
 20
52.2440535
  0
POINT
  5
20288
100
AcDbEntity
  8
0
100
AcDbPoint
 10
5.3763415
 20
52.2453029
  0
POINT
  5
20289
100
AcDbEntity
  8
0
100
AcDbPoint
 10
5.3788551
 20
52.2451965
  0
POINT
  5
2028A
100
AcDbEntity
  8
0
100
AcDbPoint
 10
5.3788257
 20
52.244857
  0
POINT
  5
2028B
100
AcDbEntity
  8
0
100
AcDbPoint
 10
5.381303
 20
52.2454282
  0
POINT
  5
2028C
100
AcDbEntity
  8
0
100
AcDbPoint
 10
5.3791213
 20
52.2458056
  0
POINT
  5
2028D
100
AcDbEntity
  8
0
100
AcDbPoint
 10
5.3807536
 20
52.2451379
  0
POINT
  5
2028E
100
AcDbEntity
  8
0
100
AcDbPoint
 10
5.3813761
 20
52.2464798
  0
POINT
  5
2028F
100
AcDbEntity
  8
0
100
AcDbPoint
 10
5.378456
 20
52.2450398
  0
POINT
  5
20290
100
AcDbEntity
  8
0
100
AcDbPoint
 10
5.3794286
 20
52.2468482
  0
POINT
  5
20291
100
AcDbEntity
  8
0
100
AcDbPoint
 10
5.3795871
 20
52.2440547
  0
POINT
  5
20292
100
AcDbEntity
  8
0
100
AcDbPoint
 10
5.3789031
 20
52.2437734
  0
POINT
  5
20293
100
AcDbEntity
  8
0
100
AcDbPoint
 10
5.3766226
 20
52.2441584
  0
POINT
  5
20294
100
AcDbEntity
  8
0
100
AcDbPoint
 10
5.3767114
 20
52.2454138
  0
POINT
  5
20295
100
AcDbEntity
  8
0
100
AcDbPoint
 10
5.3774668
 20
52.2452842
  0
POINT
  5
20296
100
AcDbEntity
  8
0
100
AcDbPoint
 10
5.3762076
 20
52.2450594
  0
POINT
  5
20297
100
AcDbEntity
  8
0
100
AcDbPoint
 10
5.3793701
 20
52.2465246
  0
POINT
  5
20298
100
AcDbEntity
  8
0
100
AcDbPoint
 10
5.3799563
 20
52.2434778
  0
POINT
  5
20299
100
AcDbEntity
  8
0
100
AcDbPoint
 10
5.3827378
 20
52.2467764
  0
POINT
  5
2029A
100
AcDbEntity
  8
0
100
AcDbPoint
 10
5.3804223
 20
52.2445497
  0
POINT
  5
2029B
100
AcDbEntity
  8
0
100
AcDbPoint
 10
5.3796002
 20
52.2450711
  0
POINT
  5
2029C
100
AcDbEntity
  8
0
100
AcDbPoint
 10
5.381058
 20
52.2455502
  0
POINT
  5
2029D
100
AcDbEntity
  8
0
100
AcDbPoint
 10
5.376165
 20
52.2461352
  0
POINT
  5
2029E
100
AcDbEntity
  8
0
100
AcDbPoint
 10
5.3802632
 20
52.2467314
  0
POINT
  5
2029F
100
AcDbEntity
  8
0
100
AcDbPoint
 10
5.3785592
 20
52.2435313
  0
POINT
  5
202A0
100
AcDbEntity
  8
0
100
AcDbPoint
 10
5.3770276
 20
52.2449066
  0
POINT
  5
202A1
100
AcDbEntity
  8
0
100
AcDbPoint
 10
5.3779646
 20
52.2456887
  0
POINT
  5
202A2
100
AcDbEntity
  8
0
100
AcDbPoint
 10
5.3806324
 20
52.2465639
  0
POINT
  5
202A3
100
AcDbEntity
  8
0
100
AcDbPoint
 10
5.3810105
 20
52.2433251
  0
POINT
  5
202A4
100
AcDbEntity
  8
0
100
AcDbPoint
 10
5.3821523
 20
52.244916
  0
POINT
  5
202A5
100
AcDbEntity
  8
0
100
AcDbPoint
 10
5.3805565
 20
52.2446656
  0
POINT
  5
202A6
100
AcDbEntity
  8
0
100
AcDbPoint
 10
5.3810836
 20
52.2442149
  0
POINT
  5
202A7
100
AcDbEntity
  8
0
100
AcDbPoint
 10
5.3810396
 20
52.2441609
  0
POINT
  5
202A8
100
AcDbEntity
  8
0
100
AcDbPoint
 10
5.3809811
 20
52.244134
  0
POINT
  5
202A9
100
AcDbEntity
  8
0
100
AcDbPoint
 10
5.3809811
 20
52.244071
  0
POINT
  5
202AA
100
AcDbEntity
  8
0
100
AcDbPoint
 10
5.3761522
 20
52.2460929
  0
POINT
  5
202AB
100
AcDbEntity
  8
0
100
AcDbPoint
 10
5.3761531
 20
52.2460573
  0
POINT
  5
202AC
100
AcDbEntity
  8
0
100
AcDbPoint
 10
5.3796485
 20
52.2453652
  0
POINT
  5
202AD
100
AcDbEntity
  8
0
100
AcDbPoint
 10
5.3801733
 20
52.2456233
  0
POINT
  5
202AE
100
AcDbEntity
  8
0
100
AcDbPoint
 10
5.376178
 20
52.2463806
  0
POINT
  5
202AF
100
AcDbEntity
  8
0
100
AcDbPoint
 10
5.3814898
 20
52.2443917
  0
POINT
  5
202B0
100
AcDbEntity
  8
0
100
AcDbPoint
 10
5.3773576
 20
52.2446268
  0
POINT
  5
202B1
100
AcDbEntity
  8
0
100
AcDbPoint
 10
5.3769983
 20
52.2451763
  0
POINT
  5
202B2
100
AcDbEntity
  8
0
100
AcDbPoint
 10
5.3779938
 20
52.2457785
  0
POINT
  5
202B3
100
AcDbEntity
  8
0
100
AcDbPoint
 10
5.3805728
 20
52.2466301
  0
POINT
  5
202B4
100
AcDbEntity
  8
0
100
AcDbPoint
 10
5.3819036
 20
52.2437745
  0
POINT
  5
202B5
100
AcDbEntity
  8
0
100
AcDbPoint
 10
5.3829136
 20
52.2458777
  0
POINT
  5
202B6
100
AcDbEntity
  8
0
100
AcDbPoint
 10
5.3799641
 20
52.2448398
  0
POINT
  5
202B7
100
AcDbEntity
  8
0
100
AcDbPoint
 10
5.3809811
 20
52.2440351
  0
POINT
  5
202B8
100
AcDbEntity
  8
0
100
AcDbPoint
 10
5.3809518
 20
52.2439812
  0
POINT
  5
202B9
100
AcDbEntity
  8
0
100
AcDbPoint
 10
5.3808786
 20
52.2439452
  0
POINT
  5
202BA
100
AcDbEntity
  8
0
100
AcDbPoint
 10
5.380864
 20
52.2438913
  0
POINT
  5
202BB
100
AcDbEntity
  8
0
100
AcDbPoint
 10
5.3814057
 20
52.2441609
  0
POINT
  5
202BC
100
AcDbEntity
  8
0
100
AcDbPoint
 10
5.3796775
 20
52.2450556
  0
POINT
  5
202BD
100
AcDbEntity
  8
0
100
AcDbPoint
 10
5.3810327
 20
52.2454943
  0
POINT
  5
202BE
100
AcDbEntity
  8
0
100
AcDbPoint
 10
5.3762219
 20
52.2464704
  0
POINT
  5
202BF
100
AcDbEntity
  8
0
100
AcDbPoint
 10
5.3803218
 20
52.2466775
  0
POINT
  5
202C0
100
AcDbEntity
  8
0
100
AcDbPoint
 10
5.3785481
 20
52.2435542
  0
POINT
  5
202C1
100
AcDbEntity
  8
0
100
AcDbPoint
 10
5.3771008
 20
52.2449246
  0
POINT
  5
202C2
100
AcDbEntity
  8
0
100
AcDbPoint
 10
5.3780085
 20
52.2458684
  0
POINT
  5
202C3
100
AcDbEntity
  8
0
100
AcDbPoint
 10
5.3806444
 20
52.2466202
  0
POINT
  5
202C4
100
AcDbEntity
  8
0
100
AcDbPoint
 10
5.3811423
 20
52.2433161
  0
POINT
  5
202C5
100
AcDbEntity
  8
0
100
AcDbPoint
 10
5.3805851
 20
52.2447348
  0
POINT
  5
202C6
100
AcDbEntity
  8
0
100
AcDbPoint
 10
5.3813764
 20
52.244107
  0
POINT
  5
202C7
100
AcDbEntity
  8
0
100
AcDbPoint
 10
5.3813471
 20
52.2440621
  0
POINT
  5
202C8
100
AcDbEntity
  8
0
100
AcDbPoint
 10
5.3813618
 20
52.2440081
  0
POINT
  5
202C9
100
AcDbEntity
  8
0
100
AcDbPoint
 10
5.3813179
 20
52.2439722
  0
POINT
  5
202CA
100
AcDbEntity
  8
0
100
AcDbPoint
 10
5.3812739
 20
52.2439183
  0
POINT
  5
202CB
100
AcDbEntity
  8
0
100
AcDbPoint
 10
5.3797217
 20
52.2453562
  0
POINT
  5
202CC
100
AcDbEntity
  8
0
100
AcDbPoint
 10
5.3801435
 20
52.2455665
  0
POINT
  5
202CD
100
AcDbEntity
  8
0
100
AcDbPoint
 10
5.3762805
 20
52.2465603
  0
POINT
  5
202CE
100
AcDbEntity
  8
0
100
AcDbPoint
 10
5.3815738
 20
52.2443803
  0
POINT
  5
202CF
100
AcDbEntity
  8
0
100
AcDbPoint
 10
5.3770861
 20
52.2451943
  0
POINT
  5
202D0
100
AcDbEntity
  8
0
100
AcDbPoint
 10
5.3780231
 20
52.2459583
  0
POINT
  5
202D1
100
AcDbEntity
  8
0
100
AcDbPoint
 10
5.380592
 20
52.2466842
  0
POINT
  5
202D2
100
AcDbEntity
  8
0
100
AcDbPoint
 10
5.3820207
 20
52.2438194
  0
POINT
  5
202D3
100
AcDbEntity
  8
0
100
AcDbPoint
 10
5.3799955
 20
52.2449147
  0
POINT
  5
202D4
100
AcDbEntity
  8
0
100
AcDbPoint
 10
5.381274
 20
52.2438733
  0
POINT
  5
202D5
100
AcDbEntity
  8
0
100
AcDbPoint
 10
5.3812447
 20
52.2438284
  0
POINT
  5
202D6
100
AcDbEntity
  8
0
100
AcDbPoint
 10
5.382573
 20
52.244211
  0
POINT
  5
202D7
100
AcDbEntity
  8
0
100
AcDbPoint
 10
5.382597
 20
52.2443086
  0
POINT
  5
202D8
100
AcDbEntity
  8
0
100
AcDbPoint
 10
5.382621
 20
52.244396
  0
POINT
  5
202D9
100
AcDbEntity
  8
0
100
AcDbPoint
 10
5.3809917
 20
52.2448249
  0
POINT
  5
202DA
100
AcDbEntity
  8
0
100
AcDbPoint
 10
5.3810098
 20
52.2454437
  0
POINT
  5
202DB
100
AcDbEntity
  8
0
100
AcDbPoint
 10
5.3785388
 20
52.2436002
  0
POINT
  5
202DC
100
AcDbEntity
  8
0
100
AcDbPoint
 10
5.3771594
 20
52.2448797
  0
POINT
  5
202DD
100
AcDbEntity
  8
0
100
AcDbPoint
 10
5.3780231
 20
52.2460572
  0
POINT
  5
202DE
100
AcDbEntity
  8
0
100
AcDbPoint
 10
5.3806732
 20
52.2466775
  0
POINT
  5
202DF
100
AcDbEntity
  8
0
100
AcDbPoint
 10
5.381274
 20
52.2433251
  0
POINT
  5
202E0
100
AcDbEntity
  8
0
100
AcDbPoint
 10
5.3806156
 20
52.244801
  0
POINT
  5
202E1
100
AcDbEntity
  8
0
100
AcDbPoint
 10
5.3826432
 20
52.244488
  0
POINT
  5
202E2
100
AcDbEntity
  8
0
100
AcDbPoint
 10
5.3826636
 20
52.2445833
  0
POINT
  5
202E3
100
AcDbEntity
  8
0
100
AcDbPoint
 10
5.3798095
 20
52.2453472
  0
POINT
  5
202E4
100
AcDbEntity
  8
0
100
AcDbPoint
 10
5.3801178
 20
52.2455135
  0
POINT
  5
202E5
100
AcDbEntity
  8
0
100
AcDbPoint
 10
5.3766173
 20
52.2465514
  0
POINT
  5
202E6
100
AcDbEntity
  8
0
100
AcDbPoint
 10
5.3816458
 20
52.244368
  0
POINT
  5
202E7
100
AcDbEntity
  8
0
100
AcDbPoint
 10
5.377379
 20
52.2451044
  0
POINT
  5
202E8
100
AcDbEntity
  8
0
100
AcDbPoint
 10
5.3780377
 20
52.2461201
  0
POINT
  5
202E9
100
AcDbEntity
  8
0
100
AcDbPoint
 10
5.3820646
 20
52.2439363
  0
POINT
  5
202EA
100
AcDbEntity
  8
0
100
AcDbPoint
 10
5.3827233
 20
52.2452485
  0
POINT
  5
202EB
100
AcDbEntity
  8
0
100
AcDbPoint
 10
5.3800214
 20
52.24498
  0
POINT
  5
202EC
100
AcDbEntity
  8
0
100
AcDbPoint
 10
5.3810717
 20
52.2448045
  0
POINT
  5
202ED
100
AcDbEntity
  8
0
100
AcDbPoint
 10
5.3809862
 20
52.2453915
  0
POINT
  5
202EE
100
AcDbEntity
  8
0
100
AcDbPoint
 10
5.3785295
 20
52.2436445
  0
POINT
  5
202EF
100
AcDbEntity
  8
0
100
AcDbPoint
 10
5.3773058
 20
52.2448617
  0
POINT
  5
202F0
100
AcDbEntity
  8
0
100
AcDbPoint
 10
5.3780669
 20
52.2462279
  0
POINT
  5
202F1
100
AcDbEntity
  8
0
100
AcDbPoint
 10
5.3813765
 20
52.2433251
  0
POINT
  5
202F2
100
AcDbEntity
  8
0
100
AcDbPoint
 10
5.3806415
 20
52.2448759
  0
POINT
  5
202F3
100
AcDbEntity
  8
0
100
AcDbPoint
 10
5.3800962
 20
52.2454631
  0
POINT
  5
202F4
100
AcDbEntity
  8
0
100
AcDbPoint
 10
5.3764123
 20
52.2468142
  0
POINT
  5
202F5
100
AcDbEntity
  8
0
100
AcDbPoint
 10
5.3817298
 20
52.244359
  0
POINT
  5
202F6
100
AcDbEntity
  8
0
100
AcDbPoint
 10
5.3774815
 20
52.2450685
  0
POINT
  5
202F7
100
AcDbEntity
  8
0
100
AcDbPoint
 10
5.3780816
 20
52.2463088
  0
POINT
  5
202F8
100
AcDbEntity
  8
0
100
AcDbPoint
 10
5.3820792
 20
52.2439992
  0
POINT
  5
202F9
100
AcDbEntity
  8
0
100
AcDbPoint
 10
5.3827234
 20
52.2451676
  0
POINT
  5
202FA
100
AcDbEntity
  8
0
100
AcDbPoint
 10
5.3800584
 20
52.2450527
  0
POINT
  5
202FB
100
AcDbEntity
  8
0
100
AcDbPoint
 10
5.3811397
 20
52.2447938
  0
POINT
  5
202FC
100
AcDbEntity
  8
0
100
AcDbPoint
 10
5.3809625
 20
52.2453391
  0
POINT
  5
202FD
100
AcDbEntity
  8
0
100
AcDbPoint
 10
5.3784445
 20
52.2435559
  0
POINT
  5
202FE
100
AcDbEntity
  8
0
100
AcDbPoint
 10
5.3774083
 20
52.2448887
  0
POINT
  5
202FF
100
AcDbEntity
  8
0
100
AcDbPoint
 10
5.3815083
 20
52.2433161
  0
POINT
  5
20300
100
AcDbEntity
  8
0
100
AcDbPoint
 10
5.3806702
 20
52.244948
  0
POINT
  5
20301
100
AcDbEntity
  8
0
100
AcDbPoint
 10
5.3783158
 20
52.2468211
  0
POINT
  5
20302
100
AcDbEntity
  8
0
100
AcDbPoint
 10
5.3783743
 20
52.2468391
  0
POINT
  5
20303
100
AcDbEntity
  8
0
100
AcDbPoint
 10
5.3783597
 20
52.2468661
  0
POINT
  5
20304
100
AcDbEntity
  8
0
100
AcDbPoint
 10
5.3783597
 20
52.246902
  0
POINT
  5
20305
100
AcDbEntity
  8
0
100
AcDbPoint
 10
5.3800747
 20
52.2454107
  0
POINT
  5
20306
100
AcDbEntity
  8
0
100
AcDbPoint
 10
5.3818071
 20
52.24435
  0
POINT
  5
20307
100
AcDbEntity
  8
0
100
AcDbPoint
 10
5.3775694
 20
52.2450595
  0
POINT
  5
20308
100
AcDbEntity
  8
0
100
AcDbPoint
 10
5.3826941
 20
52.2450778
  0
POINT
  5
20309
100
AcDbEntity
  8
0
100
AcDbPoint
 10
5.3798106
 20
52.2446428
  0
POINT
  5
2030A
100
AcDbEntity
  8
0
100
AcDbPoint
 10
5.3789749
 20
52.245491
  0
POINT
  5
2030B
100
AcDbEntity
  8
0
100
AcDbPoint
 10
5.378907
 20
52.2448468
  0
POINT
  5
2030C
100
AcDbEntity
  8
0
100
AcDbPoint
 10
5.3813762
 20
52.2454102
  0
POINT
  5
2030D
100
AcDbEntity
  8
0
100
AcDbPoint
 10
5.3844951
 20
52.2442689
  0
POINT
  5
2030E
100
AcDbEntity
  8
0
100
AcDbPoint
 10
5.3791945
 20
52.2457966
  0
POINT
  5
2030F
100
AcDbEntity
  8
0
100
AcDbPoint
 10
5.3801199
 20
52.2452947
  0
POINT
  5
20310
100
AcDbEntity
  8
0
100
AcDbPoint
 10
5.3813615
 20
52.2464169
  0
POINT
  5
20311
100
AcDbEntity
  8
0
100
AcDbPoint
 10
5.3785065
 20
52.2451663
  0
POINT
  5
20312
100
AcDbEntity
  8
0
100
AcDbPoint
 10
5.3755197
 20
52.2442774
  0
POINT
  5
20313
100
AcDbEntity
  8
0
100
AcDbPoint
 10
5.3796891
 20
52.2440434
  0
POINT
  5
20314
100
AcDbEntity
  8
0
100
AcDbPoint
 10
5.3759083
 20
52.2444646
  0
POINT
  5
20315
100
AcDbEntity
  8
0
100
AcDbPoint
 10
5.3763551
 20
52.2453478
  0
POINT
  5
20316
100
AcDbEntity
  8
0
100
AcDbPoint
 10
5.3771593
 20
52.2454549
  0
POINT
  5
20317
100
AcDbEntity
  8
0
100
AcDbPoint
 10
5.376729
 20
52.2463298
  0
POINT
  5
20318
100
AcDbEntity
  8
0
100
AcDbPoint
 10
5.3795458
 20
52.2464977
  0
POINT
  5
20319
100
AcDbEntity
  8
0
100
AcDbPoint
 10
5.3807176
 20
52.2436306
  0
POINT
  5
2031A
100
AcDbEntity
  8
0
100
AcDbPoint
 10
5.3799734
 20
52.2447019
  0
POINT
  5
2031B
100
AcDbEntity
  8
0
100
AcDbPoint
 10
5.381223
 20
52.2447824
  0
POINT
  5
2031C
100
AcDbEntity
  8
0
100
AcDbPoint
 10
5.3809389
 20
52.245287
  0
POINT
  5
2031D
100
AcDbEntity
  8
0
100
AcDbPoint
 10
5.3784408
 20
52.2435934
  0
POINT
  5
2031E
100
AcDbEntity
  8
0
100
AcDbPoint
 10
5.3775108
 20
52.2448707
  0
POINT
  5
2031F
100
AcDbEntity
  8
0
100
AcDbPoint
 10
5.3816108
 20
52.24337
  0
POINT
  5
20320
100
AcDbEntity
  8
0
100
AcDbPoint
 10
5.3805611
 20
52.2445154
  0
POINT
  5
20321
100
AcDbEntity
  8
0
100
AcDbPoint
 10
5.3810834
 20
52.2451316
  0
POINT
  5
20322
100
AcDbEntity
  8
0
100
AcDbPoint
 10
5.3800531
 20
52.2453571
  0
POINT
  5
20323
100
AcDbEntity
  8
0
100
AcDbPoint
 10
5.3821085
 20
52.2442958
  0
POINT
  5
20324
100
AcDbEntity
  8
0
100
AcDbPoint
 10
5.3776572
 20
52.2450595
  0
POINT
  5
20325
100
AcDbEntity
  8
0
100
AcDbPoint
 10
5.3826794
 20
52.2449969
  0
POINT
  5
20326
100
AcDbEntity
  8
0
100
AcDbPoint
 10
5.379843
 20
52.2447172
  0
POINT
  5
20327
100
AcDbEntity
  8
0
100
AcDbPoint
 10
5.381299
 20
52.2447726
  0
POINT
  5
20328
100
AcDbEntity
  8
0
100
AcDbPoint
 10
5.3809148
 20
52.2452337
  0
POINT
  5
20329
100
AcDbEntity
  8
0
100
AcDbPoint
 10
5.3784325
 20
52.243632
  0
POINT
  5
2032A
100
AcDbEntity
  8
0
100
AcDbPoint
 10
5.377584
 20
52.2448348
  0
POINT
  5
2032B
100
AcDbEntity
  8
0
100
AcDbPoint
 10
5.3817425
 20
52.243361
  0
POINT
  5
2032C
100
AcDbEntity
  8
0
100
AcDbPoint
 10
5.3805916
 20
52.2445832
  0
POINT
  5
2032D
100
AcDbEntity
  8
0
100
AcDbPoint
 10
5.3811567
 20
52.2451136
  0
POINT
  5
2032E
100
AcDbEntity
  8
0
100
AcDbPoint
 10
5.3800377
 20
52.2453079
  0
POINT
  5
2032F
100
AcDbEntity
  8
0
100
AcDbPoint
 10
5.3821475
 20
52.2443994
  0
POINT
  5
20330
100
AcDbEntity
  8
0
100
AcDbPoint
 10
5.3777451
 20
52.2450595
  0
POINT
  5
20331
100
AcDbEntity
  8
0
100
AcDbPoint
 10
5.3826648
 20
52.244916
  0
POINT
  5
20332
100
AcDbEntity
  8
0
100
AcDbPoint
 10
5.3798689
 20
52.2447847
  0
POINT
  5
20333
100
AcDbEntity
  8
0
100
AcDbPoint
 10
5.3813877
 20
52.2447558
  0
POINT
  5
20334
100
AcDbEntity
  8
0
100
AcDbPoint
 10
5.3808926
 20
52.2451845
  0
POINT
  5
20335
100
AcDbEntity
  8
0
100
AcDbPoint
 10
5.3784287
 20
52.2436672
  0
POINT
  5
20336
100
AcDbEntity
  8
0
100
AcDbPoint
 10
5.3776573
 20
52.2448438
  0
POINT
  5
20337
100
AcDbEntity
  8
0
100
AcDbPoint
 10
5.381845
 20
52.243424
  0
POINT
  5
20338
100
AcDbEntity
  8
0
100
AcDbPoint
 10
5.3806175
 20
52.2446545
  0
POINT
  5
20339
100
AcDbEntity
  8
0
100
AcDbPoint
 10
5.3812299
 20
52.2451047
  0
POINT
  5
2033A
100
AcDbEntity
  8
0
100
AcDbPoint
 10
5.38001
 20
52.2452524
  0
POINT
  5
2033B
100
AcDbEntity
  8
0
100
AcDbPoint
 10
5.3821642
 20
52.2445311
  0
POINT
  5
2033C
100
AcDbEntity
  8
0
100
AcDbPoint
 10
5.3778329
 20
52.2450865
  0
POINT
  5
2033D
100
AcDbEntity
  8
0
100
AcDbPoint
 10
5.3826355
 20
52.2448081
  0
POINT
  5
2033E
100
AcDbEntity
  8
0
100
AcDbPoint
 10
5.3799012
 20
52.2448517
  0
POINT
  5
2033F
100
AcDbEntity
  8
0
100
AcDbPoint
 10
5.3814623
 20
52.2447452
  0
POINT
  5
20340
100
AcDbEntity
  8
0
100
AcDbPoint
 10
5.3808688
 20
52.2451318
  0
POINT
  5
20341
100
AcDbEntity
  8
0
100
AcDbPoint
 10
5.3783613
 20
52.243565
  0
POINT
  5
20342
100
AcDbEntity
  8
0
100
AcDbPoint
 10
5.3777451
 20
52.2447988
  0
POINT
  5
20343
100
AcDbEntity
  8
0
100
AcDbPoint
 10
5.3819329
 20
52.2434689
  0
POINT
  5
20344
100
AcDbEntity
  8
0
100
AcDbPoint
 10
5.3806498
 20
52.2447232
  0
POINT
  5
20345
100
AcDbEntity
  8
0
100
AcDbPoint
 10
5.3813031
 20
52.2450867
  0
POINT
  5
20346
100
AcDbEntity
  8
0
100
AcDbPoint
 10
5.3821938
 20
52.2446605
  0
POINT
  5
20347
100
AcDbEntity
  8
0
100
AcDbPoint
 10
5.3790332
 20
52.2468482
  0
POINT
  5
20348
100
AcDbEntity
  8
0
100
AcDbPoint
 10
5.379929
 20
52.2449232
  0
POINT
  5
20349
100
AcDbEntity
  8
0
100
AcDbPoint
 10
5.3815443
 20
52.2447358
  0
POINT
  5
2034A
100
AcDbEntity
  8
0
100
AcDbPoint
 10
5.3783576
 20
52.2436036
  0
POINT
  5
2034B
100
AcDbEntity
  8
0
100
AcDbPoint
 10
5.3820061
 20
52.2435138
  0
POINT
  5
2034C
100
AcDbEntity
  8
0
100
AcDbPoint
 10
5.380673
 20
52.2447924
  0
POINT
  5
2034D
100
AcDbEntity
  8
0
100
AcDbPoint
 10
5.3813909
 20
52.2450777
  0
POINT
  5
2034E
100
AcDbEntity
  8
0
100
AcDbPoint
 10
5.3789893
 20
52.2466954
  0
POINT
  5
2034F
100
AcDbEntity
  8
0
100
AcDbPoint
 10
5.3799581
 20
52.2449877
  0
POINT
  5
20350
100
AcDbEntity
  8
0
100
AcDbPoint
 10
5.3763662
 20
52.245396
  0
POINT
  5
20351
100
AcDbEntity
  8
0
100
AcDbPoint
 10
5.3789656
 20
52.2451815
  0
POINT
  5
20352
100
AcDbEntity
  8
0
100
AcDbPoint
 10
5.3789863
 20
52.2448345
  0
POINT
  5
20353
100
AcDbEntity
  8
0
100
AcDbPoint
 10
5.3814348
 20
52.2454013
  0
POINT
  5
20354
100
AcDbEntity
  8
0
100
AcDbPoint
 10
5.3792677
 20
52.2457876
  0
POINT
  5
20355
100
AcDbEntity
  8
0
100
AcDbPoint
 10
5.3807793
 20
52.2451947
  0
POINT
  5
20356
100
AcDbEntity
  8
0
100
AcDbPoint
 10
5.3813468
 20
52.2463809
  0
POINT
  5
20357
100
AcDbEntity
  8
0
100
AcDbPoint
 10
5.37855
 20
52.2452771
  0
POINT
  5
20358
100
AcDbEntity
  8
0
100
AcDbPoint
 10
5.3755343
 20
52.2443133
  0
POINT
  5
20359
100
AcDbEntity
  8
0
100
AcDbPoint
 10
5.3795457
 20
52.2468302
  0
POINT
  5
2035A
100
AcDbEntity
  8
0
100
AcDbPoint
 10
5.3796079
 20
52.244102
  0
POINT
  5
2035B
100
AcDbEntity
  8
0
100
AcDbPoint
 10
5.3788717
 20
52.2437019
  0
POINT
  5
2035C
100
AcDbEntity
  8
0
100
AcDbPoint
 10
5.3767246
 20
52.2454667
  0
POINT
  5
2035D
100
AcDbEntity
  8
0
100
AcDbPoint
 10
5.3774522
 20
52.2453561
  0
POINT
  5
2035E
100
AcDbEntity
  8
0
100
AcDbPoint
 10
5.3762808
 20
52.2450594
  0
POINT
  5
2035F
100
AcDbEntity
  8
0
100
AcDbPoint
 10
5.3796336
 20
52.2464797
  0
POINT
  5
20360
100
AcDbEntity
  8
0
100
AcDbPoint
 10
5.3801027
 20
52.2434419
  0
POINT
  5
20361
100
AcDbEntity
  8
0
100
AcDbPoint
 10
5.3827232
 20
52.2466956
  0
POINT
  5
20362
100
AcDbEntity
  8
0
100
AcDbPoint
 10
5.3804829
 20
52.2446051
  0
POINT
  5
20363
100
AcDbEntity
  8
0
100
AcDbPoint
 10
5.3816277
 20
52.2447214
  0
POINT
  5
20364
100
AcDbEntity
  8
0
100
AcDbPoint
 10
5.3783492
 20
52.2436416
  0
POINT
  5
20365
100
AcDbEntity
  8
0
100
AcDbPoint
 10
5.3821086
 20
52.2435678
  0
POINT
  5
20366
100
AcDbEntity
  8
0
100
AcDbPoint
 10
5.3807099
 20
52.2448674
  0
POINT
  5
20367
100
AcDbEntity
  8
0
100
AcDbPoint
 10
5.3814641
 20
52.2450687
  0
POINT
  5
20368
100
AcDbEntity
  8
0
100
AcDbPoint
 10
5.3789454
 20
52.2465605
  0
POINT
  5
20369
100
AcDbEntity
  8
0
100
AcDbPoint
 10
5.3799895
 20
52.2450609
  0
POINT
  5
2036A
100
AcDbEntity
  8
0
100
AcDbPoint
 10
5.381713
 20
52.2447075
  0
POINT
  5
2036B
100
AcDbEntity
  8
0
100
AcDbPoint
 10
5.3783511
 20
52.2436785
  0
POINT
  5
2036C
100
AcDbEntity
  8
0
100
AcDbPoint
 10
5.3821525
 20
52.2436307
  0
POINT
  5
2036D
100
AcDbEntity
  8
0
100
AcDbPoint
 10
5.3807459
 20
52.2449357
  0
POINT
  5
2036E
100
AcDbEntity
  8
0
100
AcDbPoint
 10
5.3815374
 20
52.2450507
  0
POINT
  5
2036F
100
AcDbEntity
  8
0
100
AcDbPoint
 10
5.381789
 20
52.2446949
  0
POINT
  5
20370
100
AcDbEntity
  8
0
100
AcDbPoint
 10
5.3783014
 20
52.2435764
  0
POINT
  5
20371
100
AcDbEntity
  8
0
100
AcDbPoint
 10
5.382255
 20
52.2437026
  0
POINT
  5
20372
100
AcDbEntity
  8
0
100
AcDbPoint
 10
5.3816106
 20
52.2450418
  0
POINT
  5
20373
100
AcDbEntity
  8
0
100
AcDbPoint
 10
5.3818878
 20
52.244681
  0
POINT
  5
20374
100
AcDbEntity
  8
0
100
AcDbPoint
 10
5.3782678
 20
52.2435911
  0
POINT
  5
20375
100
AcDbEntity
  8
0
100
AcDbPoint
 10
5.3823282
 20
52.2437475
  0
POINT
  5
20376
100
AcDbEntity
  8
0
100
AcDbPoint
 10
5.3816838
 20
52.2450328
  0
POINT
  5
20377
100
AcDbEntity
  8
0
100
AcDbPoint
 10
5.3781615
 20
52.2435888
  0
POINT
  5
20378
100
AcDbEntity
  8
0
100
AcDbPoint
 10
5.3823282
 20
52.2438284
  0
POINT
  5
20379
100
AcDbEntity
  8
0
100
AcDbPoint
 10
5.381757
 20
52.2450238
  0
POINT
  5
2037A
100
AcDbEntity
  8
0
100
AcDbPoint
 10
5.3790481
 20
52.245482
  0
POINT
  5
2037B
100
AcDbEntity
  8
0
100
AcDbPoint
 10
5.379079
 20
52.2448222
  0
POINT
  5
2037C
100
AcDbEntity
  8
0
100
AcDbPoint
 10
5.3815227
 20
52.2453923
  0
POINT
  5
2037D
100
AcDbEntity
  8
0
100
AcDbPoint
 10
5.3793409
 20
52.2457696
  0
POINT
  5
2037E
100
AcDbEntity
  8
0
100
AcDbPoint
 10
5.3801492
 20
52.2453521
  0
POINT
  5
2037F
100
AcDbEntity
  8
0
100
AcDbPoint
 10
5.3813029
 20
52.246318
  0
POINT
  5
20380
100
AcDbEntity
  8
0
100
AcDbPoint
 10
5.3785356
 20
52.2455359
  0
POINT
  5
20381
100
AcDbEntity
  8
0
100
AcDbPoint
 10
5.3755636
 20
52.2444032
  0
POINT
  5
20382
100
AcDbEntity
  8
0
100
AcDbPoint
 10
5.3797052
 20
52.2440781
  0
POINT
  5
20383
100
AcDbEntity
  8
0
100
AcDbPoint
 10
5.3808638
 20
52.2445113
  0
POINT
  5
20384
100
AcDbEntity
  8
0
100
AcDbPoint
 10
5.3760858
 20
52.2442101
  0
POINT
  5
20385
100
AcDbEntity
  8
0
100
AcDbPoint
 10
5.37713
 20
52.2455987
  0
POINT
  5
20386
100
AcDbEntity
  8
0
100
AcDbPoint
 10
5.3769248
 20
52.2462997
  0
POINT
  5
20387
100
AcDbEntity
  8
0
100
AcDbPoint
 10
5.3797508
 20
52.2464617
  0
POINT
  5
20388
100
AcDbEntity
  8
0
100
AcDbPoint
 10
5.3808494
 20
52.2436216
  0
POINT
  5
20389
100
AcDbEntity
  8
0
100
AcDbPoint
 10
5.3800039
 20
52.2447649
  0
POINT
  5
2038A
100
AcDbEntity
  8
0
100
AcDbPoint
 10
5.378266
 20
52.243624
  0
POINT
  5
2038B
100
AcDbEntity
  8
0
100
AcDbPoint
 10
5.3824014
 20
52.2438734
  0
POINT
  5
2038C
100
AcDbEntity
  8
0
100
AcDbPoint
 10
5.3818448
 20
52.2450148
  0
POINT
  5
2038D
100
AcDbEntity
  8
0
100
AcDbPoint
 10
5.3781671
 20
52.2436229
  0
POINT
  5
2038E
100
AcDbEntity
  8
0
100
AcDbPoint
 10
5.3824014
 20
52.2439633
  0
POINT
  5
2038F
100
AcDbEntity
  8
0
100
AcDbPoint
 10
5.3782614
 20
52.2436558
  0
POINT
  5
20390
100
AcDbEntity
  8
0
100
AcDbPoint
 10
5.3781707
 20
52.2436547
  0
POINT
  5
20391
100
AcDbEntity
  8
0
100
AcDbPoint
 10
5.3818154
 20
52.2464618
  0
POINT
  5
20392
100
AcDbEntity
  8
0
100
AcDbPoint
 10
5.3782614
 20
52.2436882
  0
POINT
  5
20393
100
AcDbEntity
  8
0
100
AcDbPoint
 10
5.3808092
 20
52.2445536
  0
POINT
  5
20394
100
AcDbEntity
  8
0
100
AcDbPoint
 10
5.3790416
 20
52.2451644
  0
POINT
  5
20395
100
AcDbEntity
  8
0
100
AcDbPoint
 10
5.3791643
 20
52.2448059
  0
POINT
  5
20396
100
AcDbEntity
  8
0
100
AcDbPoint
 10
5.3815959
 20
52.2453743
  0
POINT
  5
20397
100
AcDbEntity
  8
0
100
AcDbPoint
 10
5.3794141
 20
52.2457607
  0
POINT
  5
20398
100
AcDbEntity
  8
0
100
AcDbPoint
 10
5.3808034
 20
52.245248
  0
POINT
  5
20399
100
AcDbEntity
  8
0
100
AcDbPoint
 10
5.3813029
 20
52.2462731
  0
POINT
  5
2039A
100
AcDbEntity
  8
0
100
AcDbPoint
 10
5.3785503
 20
52.2456797
  0
POINT
  5
2039B
100
AcDbEntity
  8
0
100
AcDbPoint
 10
5.375505
 20
52.24452
  0
POINT
  5
2039C
100
AcDbEntity
  8
0
100
AcDbPoint
 10
5.3797215
 20
52.2467763
  0
POINT
  5
2039D
100
AcDbEntity
  8
0
100
AcDbPoint
 10
5.379624
 20
52.2441493
  0
POINT
  5
2039E
100
AcDbEntity
  8
0
100
AcDbPoint
 10
5.3788384
 20
52.2436241
  0
POINT
  5
2039F
100
AcDbEntity
  8
0
100
AcDbPoint
 10
5.3774668
 20
52.24541
  0
POINT
  5
203A0
100
AcDbEntity
  8
0
100
AcDbPoint
 10
5.3763535
 20
52.2450304
  0
POINT
  5
203A1
100
AcDbEntity
  8
0
100
AcDbPoint
 10
5.3798826
 20
52.2464348
  0
POINT
  5
203A2
100
AcDbEntity
  8
0
100
AcDbPoint
 10
5.3801759
 20
52.2434329
  0
POINT
  5
203A3
100
AcDbEntity
  8
0
100
AcDbPoint
 10
5.3826939
 20
52.2465787
  0
POINT
  5
203A4
100
AcDbEntity
  8
0
100
AcDbPoint
 10
5.3805116
 20
52.2446741
  0
POINT
  5
203A5
100
AcDbEntity
  8
0
100
AcDbPoint
 10
5.3819032
 20
52.2464529
  0
POINT
  5
203A6
100
AcDbEntity
  8
0
100
AcDbPoint
 10
5.3781781
 20
52.2436859
  0
POINT
  5
203A7
100
AcDbEntity
  8
0
100
AcDbPoint
 10
5.3819911
 20
52.2464349
  0
POINT
  5
203A8
100
AcDbEntity
  8
0
100
AcDbPoint
 10
5.3782604
 20
52.2437268
  0
POINT
  5
203A9
100
AcDbEntity
  8
0
100
AcDbPoint
 10
5.3820643
 20
52.2464259
  0
POINT
  5
203AA
100
AcDbEntity
  8
0
100
AcDbPoint
 10
5.3781791
 20
52.2437256
  0
POINT
  5
203AB
100
AcDbEntity
  8
0
100
AcDbPoint
 10
5.3821375
 20
52.2464079
  0
POINT
  5
203AC
100
AcDbEntity
  8
0
100
AcDbPoint
 10
5.378327
 20
52.243762
  0
POINT
  5
203AD
100
AcDbEntity
  8
0
100
AcDbPoint
 10
5.3821815
 20
52.246363
  0
POINT
  5
203AE
100
AcDbEntity
  8
0
100
AcDbPoint
 10
5.3782577
 20
52.2437591
  0
POINT
  5
203AF
100
AcDbEntity
  8
0
100
AcDbPoint
 10
5.3755782
 20
52.244565
  0
POINT
  5
203B0
100
AcDbEntity
  8
0
100
AcDbPoint
 10
5.3756514
 20
52.244583
  0
POINT
  5
203B1
100
AcDbEntity
  8
0
100
AcDbPoint
 10
5.3757246
 20
52.244529
  0
POINT
  5
203B2
100
AcDbEntity
  8
0
100
AcDbPoint
 10
5.3791213
 20
52.245473
  0
POINT
  5
203B3
100
AcDbEntity
  8
0
100
AcDbPoint
 10
5.3792383
 20
52.2447915
  0
POINT
  5
203B4
100
AcDbEntity
  8
0
100
AcDbPoint
 10
5.3816691
 20
52.2453653
  0
POINT
  5
203B5
100
AcDbEntity
  8
0
100
AcDbPoint
 10
5.3794873
 20
52.2457427
  0
POINT
  5
203B6
100
AcDbEntity
  8
0
100
AcDbPoint
 10
5.380173
 20
52.2454033
  0
POINT
  5
203B7
100
AcDbEntity
  8
0
100
AcDbPoint
 10
5.3812736
 20
52.2462191
  0
POINT
  5
203B8
100
AcDbEntity
  8
0
100
AcDbPoint
 10
5.3786088
 20
52.2457966
  0
POINT
  5
203B9
100
AcDbEntity
  8
0
100
AcDbPoint
 10
5.3756806
 20
52.2447447
  0
POINT
  5
203BA
100
AcDbEntity
  8
0
100
AcDbPoint
 10
5.3797191
 20
52.2441324
  0
POINT
  5
203BB
100
AcDbEntity
  8
0
100
AcDbPoint
 10
5.3809398
 20
52.2445031
  0
POINT
  5
203BC
100
AcDbEntity
  8
0
100
AcDbPoint
 10
5.3761401
 20
52.2443199
  0
POINT
  5
203BD
100
AcDbEntity
  8
0
100
AcDbPoint
 10
5.3761531
 20
52.2448071
  0
POINT
  5
203BE
100
AcDbEntity
  8
0
100
AcDbPoint
 10
5.3771446
 20
52.2456616
  0
POINT
  5
203BF
100
AcDbEntity
  8
0
100
AcDbPoint
 10
5.3775404
 20
52.2436843
  0
POINT
  5
203C0
100
AcDbEntity
  8
0
100
AcDbPoint
 10
5.377042
 20
52.2462818
  0
POINT
  5
203C1
100
AcDbEntity
  8
0
100
AcDbPoint
 10
5.3799997
 20
52.2464168
  0
POINT
  5
203C2
100
AcDbEntity
  8
0
100
AcDbPoint
 10
5.3809665
 20
52.2436037
  0
POINT
  5
203C3
100
AcDbEntity
  8
0
100
AcDbPoint
 10
5.3833089
 20
52.2468753
  0
POINT
  5
203C4
100
AcDbEntity
  8
0
100
AcDbPoint
 10
5.3800316
 20
52.2448296
  0
POINT
  5
203C5
100
AcDbEntity
  8
0
100
AcDbPoint
 10
5.3823425
 20
52.246327
  0
POINT
  5
203C6
100
AcDbEntity
  8
0
100
AcDbPoint
 10
5.3781818
 20
52.2437625
  0
POINT
  5
203C7
100
AcDbEntity
  8
0
100
AcDbPoint
 10
5.3824743
 20
52.2462821
  0
POINT
  5
203C8
100
AcDbEntity
  8
0
100
AcDbPoint
 10
5.3783242
 20
52.2438
  0
POINT
  5
203C9
100
AcDbEntity
  8
0
100
AcDbPoint
 10
5.3826061
 20
52.2462911
  0
POINT
  5
203CA
100
AcDbEntity
  8
0
100
AcDbPoint
 10
5.3782576
 20
52.2438006
  0
POINT
  5
203CB
100
AcDbEntity
  8
0
100
AcDbPoint
 10
5.3781874
 20
52.2438011
  0
POINT
  5
203CC
100
AcDbEntity
  8
0
100
AcDbPoint
 10
5.3783219
 20
52.2438344
  0
POINT
  5
203CD
100
AcDbEntity
  8
0
100
AcDbPoint
 10
5.3791189
 20
52.2451513
  0
POINT
  5
203CE
100
AcDbEntity
  8
0
100
AcDbPoint
 10
5.3793169
 20
52.2447772
  0
POINT
  5
203CF
100
AcDbEntity
  8
0
100
AcDbPoint
 10
5.3817423
 20
52.2453563
  0
POINT
  5
203D0
100
AcDbEntity
  8
0
100
AcDbPoint
 10
5.3795752
 20
52.2457337
  0
POINT
  5
203D1
100
AcDbEntity
  8
0
100
AcDbPoint
 10
5.3808254
 20
52.2452966
  0
POINT
  5
203D2
100
AcDbEntity
  8
0
100
AcDbPoint
 10
5.3813029
 20
52.2461652
  0
POINT
  5
203D3
100
AcDbEntity
  8
0
100
AcDbPoint
 10
5.3786381
 20
52.2459134
  0
POINT
  5
203D4
100
AcDbEntity
  8
0
100
AcDbPoint
 10
5.3757392
 20
52.2446998
  0
POINT
  5
203D5
100
AcDbEntity
  8
0
100
AcDbPoint
 10
5.3798239
 20
52.2468033
  0
POINT
  5
203D6
100
AcDbEntity
  8
0
100
AcDbPoint
 10
5.379647
 20
52.2441924
  0
POINT
  5
203D7
100
AcDbEntity
  8
0
100
AcDbPoint
 10
5.3788014
 20
52.2435622
  0
POINT
  5
203D8
100
AcDbEntity
  8
0
100
AcDbPoint
 10
5.3775253
 20
52.2454549
  0
POINT
  5
203D9
100
AcDbEntity
  8
0
100
AcDbPoint
 10
5.3764126
 20
52.2450234
  0
POINT
  5
203DA
100
AcDbEntity
  8
0
100
AcDbPoint
 10
5.3775403
 20
52.2437473
  0
POINT
  5
203DB
100
AcDbEntity
  8
0
100
AcDbPoint
 10
5.3801608
 20
52.2463809
  0
POINT
  5
203DC
100
AcDbEntity
  8
0
100
AcDbPoint
 10
5.3803077
 20
52.2434239
  0
POINT
  5
203DD
100
AcDbEntity
  8
0
100
AcDbPoint
 10
5.380531
 20
52.2447447
  0
POINT
  5
203DE
100
AcDbEntity
  8
0
100
AcDbPoint
 10
5.3782609
 20
52.2438349
  0
POINT
  5
203DF
100
AcDbEntity
  8
0
100
AcDbPoint
 10
5.378191
 20
52.2438352
  0
POINT
  5
203E0
100
AcDbEntity
  8
0
100
AcDbPoint
 10
5.3811857
 20
52.2468663
  0
POINT
  5
203E1
100
AcDbEntity
  8
0
100
AcDbPoint
 10
5.3783311
 20
52.2438679
  0
POINT
  5
203E2
100
AcDbEntity
  8
0
100
AcDbPoint
 10
5.3812589
 20
52.2468033
  0
POINT
  5
203E3
100
AcDbEntity
  8
0
100
AcDbPoint
 10
5.3782664
 20
52.2438687
  0
POINT
  5
203E4
100
AcDbEntity
  8
0
100
AcDbPoint
 10
5.3813175
 20
52.2467944
  0
POINT
  5
203E5
100
AcDbEntity
  8
0
100
AcDbPoint
 10
5.378198
 20
52.2438693
  0
POINT
  5
203E6
100
AcDbEntity
  8
0
100
AcDbPoint
 10
5.3813907
 20
52.2467764
  0
POINT
  5
203E7
100
AcDbEntity
  8
0
100
AcDbPoint
 10
5.3758124
 20
52.2447268
  0
POINT
  5
203E8
100
AcDbEntity
  8
0
100
AcDbPoint
 10
5.3770978
 20
52.2442463
  0
POINT
  5
203E9
100
AcDbEntity
  8
0
100
AcDbPoint
 10
5.3791946
 20
52.2454551
  0
POINT
  5
203EA
100
AcDbEntity
  8
0
100
AcDbPoint
 10
5.3793956
 20
52.2447662
  0
POINT
  5
203EB
100
AcDbEntity
  8
0
100
AcDbPoint
 10
5.3818155
 20
52.2453384
  0
POINT
  5
203EC
100
AcDbEntity
  8
0
100
AcDbPoint
 10
5.3796484
 20
52.2457157
  0
POINT
  5
203ED
100
AcDbEntity
  8
0
100
AcDbPoint
 10
5.3801949
 20
52.2454542
  0
POINT
  5
203EE
100
AcDbEntity
  8
0
100
AcDbPoint
 10
5.381669
 20
52.2461113
  0
POINT
  5
203EF
100
AcDbEntity
  8
0
100
AcDbPoint
 10
5.3757538
 20
52.2448796
  0
POINT
  5
203F0
100
AcDbEntity
  8
0
100
AcDbPoint
 10
5.3797308
 20
52.2441783
  0
POINT
  5
203F1
100
AcDbEntity
  8
0
100
AcDbPoint
 10
5.3810184
 20
52.24449
  0
POINT
  5
203F2
100
AcDbEntity
  8
0
100
AcDbPoint
 10
5.3761745
 20
52.2443987
  0
POINT
  5
203F3
100
AcDbEntity
  8
0
100
AcDbPoint
 10
5.3771592
 20
52.2457335
  0
POINT
  5
203F4
100
AcDbEntity
  8
0
100
AcDbPoint
 10
5.377663
 20
52.2443621
  0
POINT
  5
203F5
100
AcDbEntity
  8
0
100
AcDbPoint
 10
5.377408
 20
52.2462189
  0
POINT
  5
203F6
100
AcDbEntity
  8
0
100
AcDbPoint
 10
5.3804403
 20
52.2463182
  0
POINT
  5
203F7
100
AcDbEntity
  8
0
100
AcDbPoint
 10
5.3811569
 20
52.2436037
  0
POINT
  5
203F8
100
AcDbEntity
  8
0
100
AcDbPoint
 10
5.383221
 20
52.2467585
  0
POINT
  5
203F9
100
AcDbEntity
  8
0
100
AcDbPoint
 10
5.3800649
 20
52.2449062
  0
POINT
  5
203FA
100
AcDbEntity
  8
0
100
AcDbPoint
 10
5.3783358
 20
52.2438985
  0
POINT
  5
203FB
100
AcDbEntity
  8
0
100
AcDbPoint
 10
5.3815079
 20
52.2468213
  0
POINT
  5
203FC
100
AcDbEntity
  8
0
100
AcDbPoint
 10
5.3782696
 20
52.2439002
  0
POINT
  5
203FD
100
AcDbEntity
  8
0
100
AcDbPoint
 10
5.3816836
 20
52.2468034
  0
POINT
  5
203FE
100
AcDbEntity
  8
0
100
AcDbPoint
 10
5.3782012
 20
52.2438996
  0
POINT
  5
203FF
100
AcDbEntity
  8
0
100
AcDbPoint
 10
5.3817568
 20
52.2467405
  0
POINT
  5
20400
100
AcDbEntity
  8
0
100
AcDbPoint
 10
5.3783418
 20
52.2439331
  0
POINT
  5
20401
100
AcDbEntity
  8
0
100
AcDbPoint
 10
5.3818593
 20
52.2467225
  0
POINT
  5
20402
100
AcDbEntity
  8
0
100
AcDbPoint
 10
5.378277
 20
52.2439348
  0
POINT
  5
20403
100
AcDbEntity
  8
0
100
AcDbPoint
 10
5.3819471
 20
52.2467135
  0
POINT
  5
20404
100
AcDbEntity
  8
0
100
AcDbPoint
 10
5.4000209
 20
52.1939484
  0
POINT
  5
20405
100
AcDbEntity
  8
0
100
AcDbPoint
 10
5.4042512
 20
52.1943186
  0
POINT
  5
20406
100
AcDbEntity
  8
0
100
AcDbPoint
 10
5.3760008
 20
52.2531458
  0
POINT
  5
20407
100
AcDbEntity
  8
0
100
AcDbPoint
 10
5.3719489
 20
52.2514092
  0
POINT
  5
20408
100
AcDbEntity
  8
0
100
AcDbPoint
 10
5.3755436
 20
52.243646
  0
POINT
  5
20409
100
AcDbEntity
  8
0
100
AcDbPoint
 10
5.3912934
 20
52.2288331
  0
POINT
  5
2040A
100
AcDbEntity
  8
0
100
AcDbPoint
 10
5.3896577
 20
52.1950883
  0
POINT
  5
2040B
100
AcDbEntity
  8
0
100
AcDbPoint
 10
5.4320972
 20
52.1949047
  0
POINT
  5
2040C
100
AcDbEntity
  8
0
100
AcDbPoint
 10
5.3916104
 20
52.23056
  0
POINT
  5
2040D
100
AcDbEntity
  8
0
100
AcDbPoint
 10
5.3919909
 20
52.2307524
  0
POINT
  5
2040E
100
AcDbEntity
  8
0
100
AcDbPoint
 10
5.3647821
 20
52.2069776
  0
POINT
  5
2040F
100
AcDbEntity
  8
0
100
AcDbPoint
 10
5.3967101
 20
52.1945596
  0
POINT
  5
20410
100
AcDbEntity
  8
0
100
AcDbPoint
 10
5.3965576
 20
52.1944949
  0
POINT
  5
20411
100
AcDbEntity
  8
0
100
AcDbPoint
 10
5.1736584
 20
52.1537497
  0
POINT
  5
20412
100
AcDbEntity
  8
0
100
AcDbPoint
 10
5.2005822
 20
52.1600307
  0
POINT
  5
20413
100
AcDbEntity
  8
0
100
AcDbPoint
 10
5.240503
 20
52.1684284
  0
POINT
  5
20414
100
AcDbEntity
  8
0
100
AcDbPoint
 10
5.3791179
 20
52.1648924
  0
POINT
  5
20415
100
AcDbEntity
  8
0
100
AcDbPoint
 10
5.3753594
 20
52.166446
  0
POINT
  5
20416
100
AcDbEntity
  8
0
100
AcDbPoint
 10
5.3757738
 20
52.1664537
  0
POINT
  5
20417
100
AcDbEntity
  8
0
100
AcDbPoint
 10
5.3755096
 20
52.1665389
  0
POINT
  5
20418
100
AcDbEntity
  8
0
100
AcDbPoint
 10
5.3808298
 20
52.1544458
  0
POINT
  5
20419
100
AcDbEntity
  8
0
100
AcDbPoint
 10
5.3785061
 20
52.1536635
  0
POINT
  5
2041A
100
AcDbEntity
  8
0
100
AcDbPoint
 10
5.3788894
 20
52.1537329
  0
POINT
  5
2041B
100
AcDbEntity
  8
0
100
AcDbPoint
 10
5.3785698
 20
52.1537855
  0
POINT
  5
2041C
100
AcDbEntity
  8
0
100
AcDbPoint
 10
5.3689703
 20
52.2473999
  0
POINT
  5
2041D
100
AcDbEntity
  8
0
100
AcDbPoint
 10
5.3750392
 20
52.2435837
  0
POINT
  5
2041E
100
AcDbEntity
  8
0
100
AcDbPoint
 10
5.3751162
 20
52.2436029
  0
POINT
  5
2041F
100
AcDbEntity
  8
0
100
AcDbPoint
 10
5.3721246
 20
52.2515468
  0
POINT
  5
20420
100
AcDbEntity
  8
0
100
AcDbPoint
 10
5.4074468
 20
52.1958035
  0
POINT
  5
20421
100
AcDbEntity
  8
0
100
AcDbPoint
 10
5.369488
 20
52.1818065
  0
POINT
  5
20422
100
AcDbEntity
  8
0
100
AcDbPoint
 10
5.3791121
 20
52.164544
  0
POINT
  5
20423
100
AcDbEntity
  8
0
100
AcDbPoint
 10
5.3791105
 20
52.1644068
  0
POINT
  5
20424
100
AcDbEntity
  8
0
100
AcDbPoint
 10
5.3694766
 20
52.181879
  0
POINT
  5
20425
100
AcDbEntity
  8
0
100
AcDbPoint
 10
5.4144056
 20
52.1890936
  0
POINT
  5
20426
100
AcDbEntity
  8
0
100
AcDbPoint
 10
5.4142207
 20
52.1891947
  0
POINT
  5
20427
100
AcDbEntity
  8
0
100
AcDbPoint
 10
5.4103476
 20
52.1920281
  0
POINT
  5
20428
100
AcDbEntity
  8
0
100
AcDbPoint
 10
5.4099708
 20
52.1925485
  0
POINT
  5
20429
100
AcDbEntity
  8
0
100
AcDbPoint
 10
5.4320503
 20
52.1949298
  0
POINT
  5
2042A
100
AcDbEntity
  8
0
100
AcDbPoint
 10
5.4332547
 20
52.1926297
  0
POINT
  5
2042B
100
AcDbEntity
  8
0
100
AcDbPoint
 10
5.4328578
 20
52.1946895
  0
POINT
  5
2042C
100
AcDbEntity
  8
0
100
AcDbPoint
 10
5.4329539
 20
52.1947009
  0
POINT
  5
2042D
100
AcDbEntity
  8
0
100
AcDbPoint
 10
5.3746188
 20
52.1529645
  0
POINT
  5
2042E
100
AcDbEntity
  8
0
100
AcDbPoint
 10
5.3746261
 20
52.1529929
  0
POINT
  5
2042F
100
AcDbEntity
  8
0
100
AcDbPoint
 10
5.3800585
 20
52.1541628
  0
POINT
  5
20430
100
AcDbEntity
  8
0
100
AcDbPoint
 10
5.3793432
 20
52.1587743
  0
POINT
  5
20431
100
AcDbEntity
  8
0
100
AcDbPoint
 10
5.3786093
 20
52.1616752
  0
POINT
  5
20432
100
AcDbEntity
  8
0
100
AcDbPoint
 10
5.378214
 20
52.1608608
  0
POINT
  5
20433
100
AcDbEntity
  8
0
100
AcDbPoint
 10
5.3962407
 20
52.1947756
  0
POINT
  5
20434
100
AcDbEntity
  8
0
100
AcDbPoint
 10
5.3964833
 20
52.1945687
  0
POINT
  5
20435
100
AcDbEntity
  8
0
100
AcDbPoint
 10
5.3962216
 20
52.194698
  0
POINT
  5
20436
100
AcDbEntity
  8
0
100
AcDbPoint
 10
5.390792
 20
52.194789
  0
POINT
  5
20437
100
AcDbEntity
  8
0
100
AcDbPoint
 10
5.3906686
 20
52.1949288
  0
POINT
  5
20438
100
AcDbEntity
  8
0
100
AcDbPoint
 10
5.368017
 20
52.1933901
  0
POINT
  5
20439
100
AcDbEntity
  8
0
100
AcDbPoint
 10
5.4279161
 20
52.1899715
  0
POINT
  5
2043A
100
AcDbEntity
  8
0
100
AcDbPoint
 10
5.4277166
 20
52.1899179
  0
POINT
  5
2043B
100
AcDbEntity
  8
0
100
AcDbPoint
 10
5.2804297
 20
52.1861994
  0
POINT
  5
2043C
100
AcDbEntity
  8
0
100
AcDbPoint
 10
5.4737532
 20
52.213826
  0
POINT
  5
2043D
100
AcDbEntity
  8
0
100
AcDbPoint
 10
5.4740144
 20
52.2142238
  0
POINT
  5
2043E
100
AcDbEntity
  8
0
100
AcDbPoint
 10
5.3001915
 20
52.2152406
  0
POINT
  5
2043F
100
AcDbEntity
  8
0
100
AcDbPoint
 10
5.3006877
 20
52.2154444
  0
POINT
  5
20440
100
AcDbEntity
  8
0
100
AcDbPoint
 10
5.3001351
 20
52.2152143
  0
POINT
  5
20441
100
AcDbEntity
  8
0
100
AcDbPoint
 10
5.2896893
 20
52.2195313
  0
POINT
  5
20442
100
AcDbEntity
  8
0
100
AcDbPoint
 10
5.2900514
 20
52.2193407
  0
POINT
  5
20443
100
AcDbEntity
  8
0
100
AcDbPoint
 10
5.2900738
 20
52.2193822
  0
POINT
  5
20444
100
AcDbEntity
  8
0
100
AcDbPoint
 10
5.2896572
 20
52.2194843
  0
POINT
  5
20445
100
AcDbEntity
  8
0
100
AcDbPoint
 10
5.286071
 20
52.219613
  0
POINT
  5
20446
100
AcDbEntity
  8
0
100
AcDbPoint
 10
5.2857095
 20
52.2191414
  0
POINT
  5
20447
100
AcDbEntity
  8
0
100
AcDbPoint
 10
5.2857766
 20
52.2191346
  0
POINT
  5
20448
100
AcDbEntity
  8
0
100
AcDbPoint
 10
5.2844614
 20
52.2160222
  0
POINT
  5
20449
100
AcDbEntity
  8
0
100
AcDbPoint
 10
5.2842629
 20
52.2159573
  0
POINT
  5
2044A
100
AcDbEntity
  8
0
100
AcDbPoint
 10
5.2843679
 20
52.2160315
  0
POINT
  5
2044B
100
AcDbEntity
  8
0
100
AcDbPoint
 10
5.282606
 20
52.2084188
  0
POINT
  5
2044C
100
AcDbEntity
  8
0
100
AcDbPoint
 10
5.3766264
 20
52.2323178
  0
POINT
  5
2044D
100
AcDbEntity
  8
0
100
AcDbPoint
 10
5.3778196
 20
52.2365588
  0
POINT
  5
2044E
100
AcDbEntity
  8
0
100
AcDbPoint
 10
5.3771267
 20
52.2434818
  0
POINT
  5
2044F
100
AcDbEntity
  8
0
100
AcDbPoint
 10
5.3757419
 20
52.246628
  0
POINT
  5
20450
100
AcDbEntity
  8
0
100
AcDbPoint
 10
5.3765195
 20
52.2492221
  0
POINT
  5
20451
100
AcDbEntity
  8
0
100
AcDbPoint
 10
5.3770928
 20
52.2511265
  0
POINT
  5
20452
100
AcDbEntity
  8
0
100
AcDbPoint
 10
5.3771684
 20
52.2514154
  0
POINT
  5
20453
100
AcDbEntity
  8
0
100
AcDbPoint
 10
5.377155
 20
52.252829
  0
POINT
  5
20454
100
AcDbEntity
  8
0
100
AcDbPoint
 10
5.3763505
 20
52.2530492
  0
POINT
  5
20455
100
AcDbEntity
  8
0
100
AcDbPoint
 10
5.3720663
 20
52.2515637
  0
POINT
  5
20456
100
AcDbEntity
  8
0
100
AcDbPoint
 10
5.3718634
 20
52.251291
  0
POINT
  5
20457
100
AcDbEntity
  8
0
100
AcDbPoint
 10
5.3666915
 20
52.2402589
  0
POINT
  5
20458
100
AcDbEntity
  8
0
100
AcDbPoint
 10
5.3663717
 20
52.2365836
  0
POINT
  5
20459
100
AcDbEntity
  8
0
100
AcDbPoint
 10
5.3683528
 20
52.2336191
  0
POINT
  5
2045A
100
AcDbEntity
  8
0
100
AcDbPoint
 10
5.3641391
 20
52.2298054
  0
POINT
  5
2045B
100
AcDbEntity
  8
0
100
AcDbPoint
 10
5.3646702
 20
52.2311065
  0
POINT
  5
2045C
100
AcDbEntity
  8
0
100
AcDbPoint
 10
5.364587
 20
52.2311122
  0
POINT
  5
2045D
100
AcDbEntity
  8
0
100
AcDbPoint
 10
5.3642102
 20
52.2298013
  0
POINT
  5
2045E
100
AcDbEntity
  8
0
100
AcDbPoint
 10
5.3702411
 20
52.2274812
  0
POINT
  5
2045F
100
AcDbEntity
  8
0
100
AcDbPoint
 10
5.3913981
 20
52.2294905
  0
POINT
  5
20460
100
AcDbEntity
  8
0
100
AcDbPoint
 10
5.391221
 20
52.2295513
  0
POINT
  5
20461
100
AcDbEntity
  8
0
100
AcDbPoint
 10
5.3913065
 20
52.2294961
  0
POINT
  5
20462
100
AcDbEntity
  8
0
100
AcDbPoint
 10
5.3913132
 20
52.2295446
  0
POINT
  5
20463
100
AcDbEntity
  8
0
100
AcDbPoint
 10
5.3885767
 20
52.2094065
  0
POINT
  5
20464
100
AcDbEntity
  8
0
100
AcDbPoint
 10
5.3886248
 20
52.2094225
  0
POINT
  5
20465
100
AcDbEntity
  8
0
100
AcDbPoint
 10
5.3885613
 20
52.209285
  0
POINT
  5
20466
100
AcDbEntity
  8
0
100
AcDbPoint
 10
5.3885152
 20
52.2093073
  0
POINT
  5
20467
100
AcDbEntity
  8
0
100
AcDbPoint
 10
5.3912127
 20
52.200454
  0
POINT
  5
20468
100
AcDbEntity
  8
0
100
AcDbPoint
 10
5.391282
 20
52.200546
  0
POINT
  5
20469
100
AcDbEntity
  8
0
100
AcDbPoint
 10
5.282916
 20
52.2111074
  0
POINT
  5
2046A
100
AcDbEntity
  8
0
100
AcDbPoint
 10
5.2828119
 20
52.211008
  0
POINT
  5
2046B
100
AcDbEntity
  8
0
100
AcDbPoint
 10
5.4341355
 20
52.1827343
  0
POINT
  5
2046C
100
AcDbEntity
  8
0
100
AcDbPoint
 10
5.4357951
 20
52.1897688
  0
POINT
  5
2046D
100
AcDbEntity
  8
0
100
AcDbPoint
 10
5.4349359
 20
52.190776
  0
POINT
  5
2046E
100
AcDbEntity
  8
0
100
AcDbPoint
 10
5.4330652
 20
52.1865209
  0
POINT
  5
2046F
100
AcDbEntity
  8
0
100
AcDbPoint
 10
5.4312678
 20
52.1888047
  0
POINT
  5
20470
100
AcDbEntity
  8
0
100
AcDbPoint
 10
5.4312159
 20
52.1888759
  0
POINT
  5
20471
100
AcDbEntity
  8
0
100
AcDbPoint
 10
5.3047864
 20
52.2175031
  0
POINT
  5
20472
100
AcDbEntity
  8
0
100
AcDbPoint
 10
5.3657952
 20
52.2437045
  0
POINT
  5
20473
100
AcDbEntity
  8
0
100
AcDbPoint
 10
5.3287748
 20
52.2541757
  0
POINT
  5
20474
100
AcDbEntity
  8
0
100
AcDbPoint
 10
5.3299497
 20
52.2535508
  0
POINT
  5
20475
100
AcDbEntity
  8
0
100
AcDbPoint
 10
5.329997
 20
52.2536091
  0
POINT
  5
20476
100
AcDbEntity
  8
0
100
AcDbPoint
 10
5.3772712
 20
52.2434222
  0
POINT
  5
20477
100
AcDbEntity
  8
0
100
AcDbPoint
 10
5.3772836
 20
52.2434384
  0
POINT
  5
20478
100
AcDbEntity
  8
0
100
AcDbPoint
 10
5.3757463
 20
52.246647
  0
POINT
  5
20479
100
AcDbEntity
  8
0
100
AcDbPoint
 10
5.3757068
 20
52.2466436
  0
POINT
  5
2047A
100
AcDbEntity
  8
0
100
AcDbPoint
 10
5.4804416
 20
52.2190658
  0
POINT
  5
2047B
100
AcDbEntity
  8
0
100
AcDbPoint
 10
5.4744183
 20
52.2144709
  0
POINT
  5
2047C
100
AcDbEntity
  8
0
100
AcDbPoint
 10
5.4732607
 20
52.2134888
  0
POINT
  5
2047D
100
AcDbEntity
  8
0
100
AcDbPoint
 10
5.4654328
 20
52.2104216
  0
POINT
  5
2047E
100
AcDbEntity
  8
0
100
AcDbPoint
 10
5.4652024
 20
52.2103475
  0
POINT
  5
2047F
100
AcDbEntity
  8
0
100
AcDbPoint
 10
5.4934577
 20
52.2224595
  0
POINT
  5
20480
100
AcDbEntity
  8
0
100
AcDbPoint
 10
5.4791219
 20
52.2257456
  0
POINT
  5
20481
100
AcDbEntity
  8
0
100
AcDbPoint
 10
5.479487
 20
52.2257533
  0
POINT
  5
20482
100
AcDbEntity
  8
0
100
AcDbPoint
 10
5.4826848
 20
52.2252315
  0
POINT
  5
20483
100
AcDbEntity
  8
0
100
AcDbPoint
 10
5.4825754
 20
52.2251997
  0
POINT
  5
20484
100
AcDbEntity
  8
0
100
AcDbPoint
 10
5.4731299
 20
52.2287997
  0
POINT
  5
20485
100
AcDbEntity
  8
0
100
AcDbPoint
 10
5.4730465
 20
52.2288513
  0
POINT
  5
20486
100
AcDbEntity
  8
0
100
AcDbPoint
 10
5.2822774
 20
52.1916126
  0
POINT
  5
20487
100
AcDbEntity
  8
0
100
AcDbPoint
 10
5.2789967
 20
52.1970277
  0
POINT
  5
20488
100
AcDbEntity
  8
0
100
AcDbPoint
 10
5.4386778
 20
52.2227583
  0
POINT
  5
20489
100
AcDbEntity
  8
0
100
AcDbPoint
 10
5.4392645
 20
52.2226243
  0
POINT
  5
2048A
100
AcDbEntity
  8
0
100
AcDbPoint
 10
5.3733669
 20
52.2441484
  0
POINT
  5
2048B
100
AcDbEntity
  8
0
100
AcDbPoint
 10
5.3731596
 20
52.2441198
  0
POINT
  5
2048C
100
AcDbEntity
  8
0
100
AcDbPoint
 10
5.3732662
 20
52.2440033
  0
POINT
  5
2048D
100
AcDbEntity
  8
0
100
AcDbPoint
 10
5.3731596
 20
52.2440806
  0
POINT
  5
2048E
100
AcDbEntity
  8
0
100
AcDbPoint
 10
5.3729871
 20
52.2443136
  0
POINT
  5
2048F
100
AcDbEntity
  8
0
100
AcDbPoint
 10
5.3733036
 20
52.2440463
  0
POINT
  5
20490
100
AcDbEntity
  8
0
100
AcDbPoint
 10
5.3732622
 20
52.2441234
  0
POINT
  5
20491
100
AcDbEntity
  8
0
100
AcDbPoint
 10
5.3732974
 20
52.2440822
  0
POINT
  5
20492
100
AcDbEntity
  8
0
100
AcDbPoint
 10
5.37333
 20
52.2442197
  0
POINT
  5
20493
100
AcDbEntity
  8
0
100
AcDbPoint
 10
5.3733281
 20
52.2441234
  0
POINT
  5
20494
100
AcDbEntity
  8
0
100
AcDbPoint
 10
5.3729989
 20
52.2440199
  0
POINT
  5
20495
100
AcDbEntity
  8
0
100
AcDbPoint
 10
5.3732584
 20
52.2440461
  0
POINT
  5
20496
100
AcDbEntity
  8
0
100
AcDbPoint
 10
5.3729911
 20
52.2441709
  0
POINT
  5
20497
100
AcDbEntity
  8
0
100
AcDbPoint
 10
5.372993
 20
52.2442173
  0
POINT
  5
20498
100
AcDbEntity
  8
0
100
AcDbPoint
 10
5.3733746
 20
52.2441935
  0
POINT
  5
20499
100
AcDbEntity
  8
0
100
AcDbPoint
 10
5.3732584
 20
52.2441638
  0
POINT
  5
2049A
100
AcDbEntity
  8
0
100
AcDbPoint
 10
5.3731557
 20
52.2441578
  0
POINT
  5
2049B
100
AcDbEntity
  8
0
100
AcDbPoint
 10
5.3731596
 20
52.2440009
  0
POINT
  5
2049C
100
AcDbEntity
  8
0
100
AcDbPoint
 10
5.3732724
 20
52.2440314
  0
POINT
  5
2049D
100
AcDbEntity
  8
0
100
AcDbPoint
 10
5.3731557
 20
52.2442684
  0
POINT
  5
2049E
100
AcDbEntity
  8
0
100
AcDbPoint
 10
5.3729911
 20
52.244121
  0
POINT
  5
2049F
100
AcDbEntity
  8
0
100
AcDbPoint
 10
5.3731616
 20
52.2440389
  0
POINT
  5
204A0
100
AcDbEntity
  8
0
100
AcDbPoint
 10
5.3732559
 20
52.2440945
  0
POINT
  5
204A1
100
AcDbEntity
  8
0
100
AcDbPoint
 10
5.3729989
 20
52.2439759
  0
POINT
  5
204A2
100
AcDbEntity
  8
0
100
AcDbPoint
 10
5.3731557
 20
52.2443124
  0
POINT
  5
204A3
100
AcDbEntity
  8
0
100
AcDbPoint
 10
5.3731557
 20
52.2441947
  0
POINT
  5
204A4
100
AcDbEntity
  8
0
100
AcDbPoint
 10
5.3729988
 20
52.2440675
  0
POINT
  5
204A5
100
AcDbEntity
  8
0
100
AcDbPoint
 10
5.3732583
 20
52.2441971
  0
POINT
  5
204A6
100
AcDbEntity
  8
0
100
AcDbPoint
 10
5.3731557
 20
52.2442304
  0
POINT
  5
204A7
100
AcDbEntity
  8
0
100
AcDbPoint
 10
5.3731635
 20
52.2439593
  0
POINT
  5
204A8
100
AcDbEntity
  8
0
100
AcDbPoint
 10
5.37333
 20
52.2441852
  0
POINT
  5
204A9
100
AcDbEntity
  8
0
100
AcDbPoint
 10
5.372991
 20
52.2442636
  0
POINT
  5
204AA
100
AcDbEntity
  8
0
100
AcDbPoint
 10
5.3811674
 20
52.2466547
  0
POINT
  5
204AB
100
AcDbEntity
  8
0
100
AcDbPoint
 10
5.374326
 20
52.2428413
  0
POINT
  5
204AC
100
AcDbEntity
  8
0
100
AcDbPoint
 10
5.3741927
 20
52.2428447
  0
POINT
  5
204AD
100
AcDbEntity
  8
0
100
AcDbPoint
 10
5.3740901
 20
52.2424797
  0
POINT
  5
204AE
100
AcDbEntity
  8
0
100
AcDbPoint
 10
5.3740048
 20
52.2428292
  0
POINT
  5
204AF
100
AcDbEntity
  8
0
100
AcDbPoint
 10
5.3737608
 20
52.2427495
  0
POINT
  5
204B0
100
AcDbEntity
  8
0
100
AcDbPoint
 10
5.3737124
 20
52.242507
  0
POINT
  5
204B1
100
AcDbEntity
  8
0
100
AcDbPoint
 10
5.3741366
 20
52.2426437
  0
POINT
  5
204B2
100
AcDbEntity
  8
0
100
AcDbPoint
 10
5.3737279
 20
52.2425902
  0
POINT
  5
204B3
100
AcDbEntity
  8
0
100
AcDbPoint
 10
5.3737395
 20
52.2426675
  0
POINT
  5
204B4
100
AcDbEntity
  8
0
100
AcDbPoint
 10
5.3741172
 20
52.2425867
  0
POINT
  5
204B5
100
AcDbEntity
  8
0
100
AcDbPoint
 10
5.3741056
 20
52.2425355
  0
POINT
  5
204B6
100
AcDbEntity
  8
0
100
AcDbPoint
 10
5.3878203
 20
52.1913709
  0
POINT
  5
204B7
100
AcDbEntity
  8
0
100
AcDbPoint
 10
5.4058758
 20
52.1949539
  0
POINT
  5
204B8
100
AcDbEntity
  8
0
100
AcDbPoint
 10
5.4059861
 20
52.195252
  0
POINT
  5
204B9
100
AcDbEntity
  8
0
100
AcDbPoint
 10
5.3738192
 20
52.2441267
  0
POINT
  5
204BA
100
AcDbEntity
  8
0
100
AcDbPoint
 10
5.3738986
 20
52.2441255
  0
POINT
  5
204BB
100
AcDbEntity
  8
0
100
AcDbPoint
 10
5.3741416
 20
52.244057
  0
POINT
  5
204BC
100
AcDbEntity
  8
0
100
AcDbPoint
 10
5.3737475
 20
52.2441279
  0
POINT
  5
204BD
100
AcDbEntity
  8
0
100
AcDbPoint
 10
5.3739728
 20
52.2441371
  0
POINT
  5
204BE
100
AcDbEntity
  8
0
100
AcDbPoint
 10
5.3741853
 20
52.2440328
  0
POINT
  5
204BF
100
AcDbEntity
  8
0
100
AcDbPoint
 10
5.3740206
 20
52.2441553
  0
POINT
  5
204C0
100
AcDbEntity
  8
0
100
AcDbPoint
 10
5.3740207
 20
52.2440549
  0
POINT
  5
204C1
100
AcDbEntity
  8
0
100
AcDbPoint
 10
5.3739635
 20
52.2439594
  0
POINT
  5
204C2
100
AcDbEntity
  8
0
100
AcDbPoint
 10
5.3740681
 20
52.2439618
  0
POINT
  5
204C3
100
AcDbEntity
  8
0
100
AcDbPoint
 10
5.3740807
 20
52.2440328
  0
POINT
  5
204C4
100
AcDbEntity
  8
0
100
AcDbPoint
 10
5.3737378
 20
52.2440803
  0
POINT
  5
204C5
100
AcDbEntity
  8
0
100
AcDbPoint
 10
5.3738589
 20
52.2439594
  0
POINT
  5
204C6
100
AcDbEntity
  8
0
100
AcDbPoint
 10
5.3738327
 20
52.2440815
  0
POINT
  5
204C7
100
AcDbEntity
  8
0
100
AcDbPoint
 10
5.3739225
 20
52.2440463
  0
POINT
  5
204C8
100
AcDbEntity
  8
0
100
AcDbPoint
 10
5.3737155
 20
52.2439605
  0
POINT
  5
204C9
100
AcDbEntity
  8
0
100
AcDbPoint
 10
5.3884172
 20
52.1993791
  0
POINT
  5
204CA
100
AcDbEntity
  8
0
100
AcDbPoint
 10
5.3748899
 20
52.244678
  0
POINT
  5
204CB
100
AcDbEntity
  8
0
100
AcDbPoint
 10
5.3739948
 20
52.2537202
  0
POINT
  5
204CC
100
AcDbEntity
  8
0
100
AcDbPoint
 10
5.372871
 20
52.2526284
  0
POINT
  5
204CD
100
AcDbEntity
  8
0
100
AcDbPoint
 10
5.1054293
 20
52.0920561
  0
POINT
  5
204CE
100
AcDbEntity
  8
0
100
AcDbPoint
 10
5.1456353
 20
52.1249822
  0
POINT
  5
204CF
100
AcDbEntity
  8
0
100
AcDbPoint
 10
5.1456863
 20
52.1249684
  0
POINT
  5
204D0
100
AcDbEntity
  8
0
100
AcDbPoint
 10
5.1368806
 20
52.1124713
  0
POINT
  5
204D1
100
AcDbEntity
  8
0
100
AcDbPoint
 10
5.136861
 20
52.1125047
  0
POINT
  5
204D2
100
AcDbEntity
  8
0
100
AcDbPoint
 10
5.1366825
 20
52.1124278
  0
POINT
  5
204D3
100
AcDbEntity
  8
0
100
AcDbPoint
 10
5.1366625
 20
52.1124611
  0
POINT
  5
204D4
100
AcDbEntity
  8
0
100
AcDbPoint
 10
5.283277
 20
52.2073599
  0
POINT
  5
204D5
100
AcDbEntity
  8
0
100
AcDbPoint
 10
5.2833301
 20
52.2073865
  0
POINT
  5
204D6
100
AcDbEntity
  8
0
100
AcDbPoint
 10
5.2834393
 20
52.2074413
  0
POINT
  5
204D7
100
AcDbEntity
  8
0
100
AcDbPoint
 10
5.2905745
 20
52.1584819
  0
POINT
  5
204D8
100
AcDbEntity
  8
0
100
AcDbPoint
 10
5.3668052
 20
52.2404842
  0
POINT
  5
204D9
100
AcDbEntity
  8
0
100
AcDbPoint
 10
5.2927634
 20
52.2186842
  0
POINT
  5
204DA
100
AcDbEntity
  8
0
100
AcDbPoint
 10
5.3712366
 20
52.1719752
  0
POINT
  5
204DB
100
AcDbEntity
  8
0
100
AcDbPoint
 10
5.3834295
 20
52.1560043
  0
POINT
  5
204DC
100
AcDbEntity
  8
0
100
AcDbPoint
 10
5.3794248
 20
52.1587318
  0
POINT
  5
204DD
100
AcDbEntity
  8
0
100
AcDbPoint
 10
5.2928036
 20
52.2186753
  0
POINT
  5
204DE
100
AcDbEntity
  8
0
100
AcDbPoint
 10
5.2926949
 20
52.2187022
  0
POINT
  5
204DF
100
AcDbEntity
  8
0
100
AcDbPoint
 10
5.3731599
 20
52.2452013
  0
POINT
  5
204E0
100
AcDbEntity
  8
0
100
AcDbPoint
 10
5.3742729
 20
52.1698421
  0
POINT
  5
204E1
100
AcDbEntity
  8
0
100
AcDbPoint
 10
5.3741125
 20
52.1699532
  0
POINT
  5
204E2
100
AcDbEntity
  8
0
100
AcDbPoint
 10
5.3742713
 20
52.1697462
  0
POINT
  5
204E3
100
AcDbEntity
  8
0
100
AcDbPoint
 10
5.3739578
 20
52.1695835
  0
POINT
  5
204E4
100
AcDbEntity
  8
0
100
AcDbPoint
 10
5.3739359
 20
52.1699296
  0
POINT
  5
204E5
100
AcDbEntity
  8
0
100
AcDbPoint
 10
5.3736135
 20
52.1697577
  0
POINT
  5
204E6
100
AcDbEntity
  8
0
100
AcDbPoint
 10
5.373674
 20
52.1698594
  0
POINT
  5
204E7
100
AcDbEntity
  8
0
100
AcDbPoint
 10
5.2749011
 20
52.2033031
  0
POINT
  5
204E8
100
AcDbEntity
  8
0
100
AcDbPoint
 10
5.2749322
 20
52.2028246
  0
POINT
  5
204E9
100
AcDbEntity
  8
0
100
AcDbPoint
 10
5.1056126
 20
52.0920944
  0
POINT
  5
204EA
100
AcDbEntity
  8
0
100
AcDbPoint
 10
5.1051761
 20
52.0919149
  0
POINT
  5
204EB
100
AcDbEntity
  8
0
100
AcDbPoint
 10
5.1048128
 20
52.0918013
  0
POINT
  5
204EC
100
AcDbEntity
  8
0
100
AcDbPoint
 10
5.1149735
 20
52.0932254
  0
POINT
  5
204ED
100
AcDbEntity
  8
0
100
AcDbPoint
 10
5.1145499
 20
52.092963
  0
POINT
  5
204EE
100
AcDbEntity
  8
0
100
AcDbPoint
 10
5.1113879
 20
52.0929289
  0
POINT
  5
204EF
100
AcDbEntity
  8
0
100
AcDbPoint
 10
5.1110851
 20
52.0929634
  0
POINT
  5
204F0
100
AcDbEntity
  8
0
100
AcDbPoint
 10
5.3734487
 20
52.2438838
  0
POINT
  5
204F1
100
AcDbEntity
  8
0
100
AcDbPoint
 10
5.4188082
 20
52.1882016
  0
POINT
  5
204F2
100
AcDbEntity
  8
0
100
AcDbPoint
 10
5.3768677
 20
52.233159
  0
POINT
  5
204F3
100
AcDbEntity
  8
0
100
AcDbPoint
 10
5.3768231
 20
52.2331618
  0
POINT
  5
204F4
100
AcDbEntity
  8
0
100
AcDbPoint
 10
5.3671712
 20
52.240887
  0
POINT
  5
204F5
100
AcDbEntity
  8
0
100
AcDbPoint
 10
5.3672278
 20
52.2408872
  0
POINT
  5
204F6
100
AcDbEntity
  8
0
100
AcDbPoint
 10
5.3659751
 20
52.2373101
  0
POINT
  5
204F7
100
AcDbEntity
  8
0
100
AcDbPoint
 10
5.3660379
 20
52.2373285
  0
POINT
  5
204F8
100
AcDbEntity
  8
0
100
AcDbPoint
 10
5.3784496
 20
52.2327679
  0
POINT
  5
204F9
100
AcDbEntity
  8
0
100
AcDbPoint
 10
5.3784652
 20
52.232792
  0
POINT
  5
204FA
100
AcDbEntity
  8
0
100
AcDbPoint
 10
5.368821
 20
52.2233
  0
POINT
  5
204FB
100
AcDbEntity
  8
0
100
AcDbPoint
 10
5.403886
 20
52.24667
  0
POINT
  5
204FC
100
AcDbEntity
  8
0
100
AcDbPoint
 10
5.3912324
 20
52.2004919
  0
POINT
  5
204FD
100
AcDbEntity
  8
0
100
AcDbPoint
 10
5.1303567
 20
52.1033141
  0
POINT
  5
204FE
100
AcDbEntity
  8
0
100
AcDbPoint
 10
5.1304565
 20
52.1033103
  0
POINT
  5
204FF
100
AcDbEntity
  8
0
100
AcDbPoint
 10
5.1299655
 20
52.1038089
  0
POINT
  5
20500
100
AcDbEntity
  8
0
100
AcDbPoint
 10
5.1298681
 20
52.1034987
  0
POINT
  5
20501
100
AcDbEntity
  8
0
100
AcDbPoint
 10
5.1302292
 20
52.1033213
  0
POINT
  5
20502
100
AcDbEntity
  8
0
100
AcDbPoint
 10
5.1306252
 20
52.1032958
  0
POINT
  5
20503
100
AcDbEntity
  8
0
100
AcDbPoint
 10
5.130965
 20
52.1033237
  0
POINT
  5
20504
100
AcDbEntity
  8
0
100
AcDbPoint
 10
5.1315137
 20
52.1056155
  0
POINT
  5
20505
100
AcDbEntity
  8
0
100
AcDbPoint
 10
5.1342469
 20
52.1072038
  0
POINT
  5
20506
100
AcDbEntity
  8
0
100
AcDbPoint
 10
5.4718047
 20
52.229335
  0
POINT
  5
20507
100
AcDbEntity
  8
0
100
AcDbPoint
 10
5.4722193
 20
52.2293599
  0
POINT
  5
20508
100
AcDbEntity
  8
0
100
AcDbPoint
 10
5.4768302
 20
52.2164476
  0
POINT
  5
20509
100
AcDbEntity
  8
0
100
AcDbPoint
 10
5.4764306
 20
52.2161533
  0
POINT
  5
2050A
100
AcDbEntity
  8
0
100
AcDbPoint
 10
5.369014
 20
52.2238135
  0
POINT
  5
2050B
100
AcDbEntity
  8
0
100
AcDbPoint
 10
5.386169
 20
52.2436499
  0
POINT
  5
2050C
100
AcDbEntity
  8
0
100
AcDbPoint
 10
5.3762837
 20
52.2484182
  0
POINT
  5
2050D
100
AcDbEntity
  8
0
100
AcDbPoint
 10
5.3774989
 20
52.2470682
  0
POINT
  5
2050E
100
AcDbEntity
  8
0
100
AcDbPoint
 10
5.3759097
 20
52.2531718
  0
POINT
  5
2050F
100
AcDbEntity
  8
0
100
AcDbPoint
 10
5.3750738
 20
52.2507722
  0
POINT
  5
20510
100
AcDbEntity
  8
0
100
AcDbPoint
 10
5.3932558
 20
52.243622
  0
POINT
  5
20511
100
AcDbEntity
  8
0
100
AcDbPoint
 10
5.3740814
 20
52.2453493
  0
POINT
  5
20512
100
AcDbEntity
  8
0
100
AcDbPoint
 10
5.373976
 20
52.2439529
  0
POINT
  5
20513
100
AcDbEntity
  8
0
100
AcDbPoint
 10
5.3743544
 20
52.2451707
  0
POINT
  5
20514
100
AcDbEntity
  8
0
100
AcDbPoint
 10
5.3770102
 20
52.2438019
  0
POINT
  5
20515
100
AcDbEntity
  8
0
100
AcDbPoint
 10
5.374829
 20
52.2450808
  0
POINT
  5
20516
100
AcDbEntity
  8
0
100
AcDbPoint
 10
5.3749774
 20
52.2450666
  0
POINT
  5
20517
100
AcDbEntity
  8
0
100
AcDbPoint
 10
5.3748649
 20
52.2451075
  0
POINT
  5
20518
100
AcDbEntity
  8
0
100
AcDbPoint
 10
5.3749812
 20
52.2450923
  0
POINT
  5
20519
100
AcDbEntity
  8
0
100
AcDbPoint
 10
5.3749068
 20
52.2425541
  0
POINT
  5
2051A
100
AcDbEntity
  8
0
100
AcDbPoint
 10
5.3725867
 20
52.2437981
  0
POINT
  5
2051B
100
AcDbEntity
  8
0
100
AcDbPoint
 10
5.3741625
 20
52.2460986
  0
POINT
  5
2051C
100
AcDbEntity
  8
0
100
AcDbPoint
 10
5.3731929
 20
52.2463408
  0
POINT
  5
2051D
100
AcDbEntity
  8
0
100
AcDbPoint
 10
5.3737575
 20
52.2455478
  0
POINT
  5
2051E
100
AcDbEntity
  8
0
100
AcDbPoint
 10
5.3773598
 20
52.2466323
  0
POINT
  5
2051F
100
AcDbEntity
  8
0
100
AcDbPoint
 10
5.3772305
 20
52.2462269
  0
POINT
  5
20520
100
AcDbEntity
  8
0
100
AcDbPoint
 10
5.367647
 20
52.2435201
  0
POINT
  5
20521
100
AcDbEntity
  8
0
100
AcDbPoint
 10
5.36751
 20
52.243521
  0
POINT
  5
20522
100
AcDbEntity
  8
0
100
AcDbPoint
 10
5.3675246
 20
52.2439588
  0
POINT
  5
20523
100
AcDbEntity
  8
0
100
AcDbPoint
 10
5.3676647
 20
52.2439576
  0
POINT
  5
20524
100
AcDbEntity
  8
0
100
AcDbPoint
 10
5.3671922
 20
52.2437097
  0
POINT
  5
20525
100
AcDbEntity
  8
0
100
AcDbPoint
 10
5.3671963
 20
52.2437718
  0
POINT
  5
20526
100
AcDbEntity
  8
0
100
AcDbPoint
 10
5.3683256
 20
52.246606
  0
POINT
  5
20527
100
AcDbEntity
  8
0
100
AcDbPoint
 10
5.3684146
 20
52.2465817
  0
POINT
  5
20528
100
AcDbEntity
  8
0
100
AcDbPoint
 10
5.3687488
 20
52.2469927
  0
POINT
  5
20529
100
AcDbEntity
  8
0
100
AcDbPoint
 10
5.3686431
 20
52.2470219
  0
POINT
  5
2052A
100
AcDbEntity
  8
0
100
AcDbPoint
 10
5.37623
 20
52.2424389
  0
POINT
  5
2052B
100
AcDbEntity
  8
0
100
AcDbPoint
 10
5.3767763
 20
52.2421775
  0
POINT
  5
2052C
100
AcDbEntity
  8
0
100
AcDbPoint
 10
5.3773973
 20
52.2425381
  0
POINT
  5
2052D
100
AcDbEntity
  8
0
100
AcDbPoint
 10
5.3731209
 20
52.2374324
  0
POINT
  5
2052E
100
AcDbEntity
  8
0
100
AcDbPoint
 10
5.3758845
 20
52.2427786
  0
POINT
  5
2052F
100
AcDbEntity
  8
0
100
AcDbPoint
 10
5.3767871
 20
52.2456077
  0
POINT
  5
20530
100
AcDbEntity
  8
0
100
AcDbPoint
 10
5.3768026
 20
52.2456553
  0
POINT
  5
20531
100
AcDbEntity
  8
0
100
AcDbPoint
 10
5.3768258
 20
52.2457029
  0
POINT
  5
20532
100
AcDbEntity
  8
0
100
AcDbPoint
 10
5.3768394
 20
52.2457516
  0
POINT
  5
20533
100
AcDbEntity
  8
0
100
AcDbPoint
 10
5.3768761
 20
52.2458563
  0
POINT
  5
20534
100
AcDbEntity
  8
0
100
AcDbPoint
 10
5.3768936
 20
52.2459026
  0
POINT
  5
20535
100
AcDbEntity
  8
0
100
AcDbPoint
 10
5.376911
 20
52.2459597
  0
POINT
  5
20536
100
AcDbEntity
  8
0
100
AcDbPoint
 10
5.3744484
 20
52.2445225
  0
POINT
  5
20537
100
AcDbEntity
  8
0
100
AcDbPoint
 10
5.3740021
 20
52.244017
  0
POINT
  5
20538
100
AcDbEntity
  8
0
100
AcDbPoint
 10
5.374102
 20
52.2440218
  0
POINT
  5
20539
100
AcDbEntity
  8
0
100
AcDbPoint
 10
5.3742004
 20
52.2440274
  0
POINT
  5
2053A
100
AcDbEntity
  8
0
100
AcDbPoint
 10
5.3887472
 20
52.2108367
  0
POINT
  5
2053B
100
AcDbEntity
  8
0
100
AcDbPoint
 10
5.1160959
 20
52.0965585
  0
POINT
  5
2053C
100
AcDbEntity
  8
0
100
AcDbPoint
 10
5.389681
 20
52.2176616
  0
POINT
  5
2053D
100
AcDbEntity
  8
0
100
AcDbPoint
 10
5.2821522
 20
52.1921749
  0
POINT
  5
2053E
100
AcDbEntity
  8
0
100
AcDbPoint
 10
5.281844
 20
52.192691
  0
POINT
  5
2053F
100
AcDbEntity
  8
0
100
AcDbPoint
 10
5.1361364
 20
52.1135007
  0
POINT
  5
20540
100
AcDbEntity
  8
0
100
AcDbPoint
 10
5.1400547
 20
52.1183845
  0
POINT
  5
20541
100
AcDbEntity
  8
0
100
AcDbPoint
 10
5.3722183
 20
52.2513309
  0
POINT
  5
20542
100
AcDbEntity
  8
0
100
AcDbPoint
 10
5.3722303
 20
52.2513585
  0
POINT
  5
20543
100
AcDbEntity
  8
0
100
AcDbPoint
 10
5.3761723
 20
52.2504139
  0
POINT
  5
20544
100
AcDbEntity
  8
0
100
AcDbPoint
 10
5.376184
 20
52.2504416
  0
POINT
  5
20545
100
AcDbEntity
  8
0
100
AcDbPoint
 10
5.3761525
 20
52.250376
  0
POINT
  5
20546
100
AcDbEntity
  8
0
100
AcDbPoint
 10
5.3724015
 20
52.2512776
  0
POINT
  5
20547
100
AcDbEntity
  8
0
100
AcDbPoint
 10
5.372358
 20
52.2512524
  0
POINT
  5
20548
100
AcDbEntity
  8
0
100
AcDbPoint
 10
5.3808596
 20
52.165336
  0
POINT
  5
20549
100
AcDbEntity
  8
0
100
AcDbPoint
 10
5.3810462
 20
52.1651741
  0
POINT
  5
2054A
100
AcDbEntity
  8
0
100
AcDbPoint
 10
5.3670714
 20
52.2408878
  0
POINT
  5
2054B
100
AcDbEntity
  8
0
100
AcDbPoint
 10
5.3671566
 20
52.2408595
  0
POINT
  5
2054C
100
AcDbEntity
  8
0
100
AcDbPoint
 10
5.3667837
 20
52.2404473
  0
POINT
  5
2054D
100
AcDbEntity
  8
0
100
AcDbPoint
 10
5.366883
 20
52.2404247
  0
POINT
  5
2054E
100
AcDbEntity
  8
0
100
AcDbPoint
 10
5.3707031
 20
52.2309159
  0
POINT
  5
2054F
100
AcDbEntity
  8
0
100
AcDbPoint
 10
5.3702002
 20
52.2272996
  0
POINT
  5
20550
100
AcDbEntity
  8
0
100
AcDbPoint
 10
5.3662946
 20
52.2368177
  0
POINT
  5
20551
100
AcDbEntity
  8
0
100
AcDbPoint
 10
5.3659194
 20
52.2372272
  0
POINT
  5
20552
100
AcDbEntity
  8
0
100
AcDbPoint
 10
5.3660196
 20
52.2372493
  0
POINT
  5
20553
100
AcDbEntity
  8
0
100
AcDbPoint
 10
5.3777567
 20
52.1600457
  0
POINT
  5
20554
100
AcDbEntity
  8
0
100
AcDbPoint
 10
5.3676454
 20
52.2339739
  0
POINT
  5
20555
100
AcDbEntity
  8
0
100
AcDbPoint
 10
5.3681718
 20
52.2338548
  0
POINT
  5
20556
100
AcDbEntity
  8
0
100
AcDbPoint
 10
5.3679468
 20
52.2342741
  0
POINT
  5
20557
100
AcDbEntity
  8
0
100
AcDbPoint
 10
5.3865114
 20
52.1636644
  0
POINT
  5
20558
100
AcDbEntity
  8
0
100
AcDbPoint
 10
5.3798758
 20
52.1657466
  0
POINT
  5
20559
100
AcDbEntity
  8
0
100
AcDbPoint
 10
5.3799766
 20
52.1657617
  0
POINT
  5
2055A
100
AcDbEntity
  8
0
100
AcDbPoint
 10
5.3813039
 20
52.1651944
  0
POINT
  5
2055B
100
AcDbEntity
  8
0
100
AcDbPoint
 10
5.3905933
 20
52.176934
  0
POINT
  5
2055C
100
AcDbEntity
  8
0
100
AcDbPoint
 10
5.3894502
 20
52.2157752
  0
POINT
  5
2055D
100
AcDbEntity
  8
0
100
AcDbPoint
 10
5.3934495
 20
52.1874404
  0
POINT
  5
2055E
100
AcDbEntity
  8
0
100
AcDbPoint
 10
5.3891216
 20
52.2133898
  0
POINT
  5
2055F
100
AcDbEntity
  8
0
100
AcDbPoint
 10
5.3879421
 20
52.1914503
  0
POINT
  5
20560
100
AcDbEntity
  8
0
100
AcDbPoint
 10
5.3935798
 20
52.187502
  0
POINT
  5
20561
100
AcDbEntity
  8
0
100
AcDbPoint
 10
5.3749549
 20
52.2439802
  0
POINT
  5
20562
100
AcDbEntity
  8
0
100
AcDbPoint
 10
5.3775858
 20
52.2527854
  0
POINT
  5
20563
100
AcDbEntity
  8
0
100
AcDbPoint
 10
5.3757328
 20
52.2465907
  0
POINT
  5
20564
100
AcDbEntity
  8
0
100
AcDbPoint
 10
5.2418697
 20
52.1685229
  0
POINT
  5
20565
100
AcDbEntity
  8
0
100
AcDbPoint
 10
5.2154301
 20
52.1634643
  0
POINT
  5
20566
100
AcDbEntity
  8
0
100
AcDbPoint
 10
5.2111733
 20
52.1625454
  0
POINT
  5
20567
100
AcDbEntity
  8
0
100
AcDbPoint
 10
5.2407157
 20
52.1684685
  0
POINT
  5
20568
100
AcDbEntity
  8
0
100
AcDbPoint
 10
5.2196086
 20
52.1643755
  0
POINT
  5
20569
100
AcDbEntity
  8
0
100
AcDbPoint
 10
5.3058699
 20
52.1539995
  0
POINT
  5
2056A
100
AcDbEntity
  8
0
100
AcDbPoint
 10
5.3734996
 20
52.1527197
  0
POINT
  5
2056B
100
AcDbEntity
  8
0
100
AcDbPoint
 10
5.3730633
 20
52.1526413
  0
POINT
  5
2056C
100
AcDbEntity
  8
0
100
AcDbPoint
 10
5.3805897
 20
52.2420388
  0
POINT
  5
2056D
100
AcDbEntity
  8
0
100
AcDbPoint
 10
5.3777782
 20
52.2442603
  0
POINT
  5
2056E
100
AcDbEntity
  8
0
100
AcDbPoint
 10
5.393314
 20
52.2426806
  0
POINT
  5
2056F
100
AcDbEntity
  8
0
100
AcDbPoint
 10
5.3933543
 20
52.2451475
  0
POINT
  5
20570
100
AcDbEntity
  8
0
100
AcDbPoint
 10
5.3871702
 20
52.246065
  0
POINT
  5
20571
100
AcDbEntity
  8
0
100
AcDbPoint
 10
5.3736519
 20
52.2450634
  0
POINT
  5
20572
100
AcDbEntity
  8
0
100
AcDbPoint
 10
5.373424
 20
52.2447249
  0
POINT
  5
20573
100
AcDbEntity
  8
0
100
AcDbPoint
 10
5.3735096
 20
52.2446965
  0
POINT
  5
20574
100
AcDbEntity
  8
0
100
AcDbPoint
 10
5.3735845
 20
52.2446808
  0
POINT
  5
20575
100
AcDbEntity
  8
0
100
AcDbPoint
 10
5.3731413
 20
52.2448
  0
POINT
  5
20576
100
AcDbEntity
  8
0
100
AcDbPoint
 10
5.3731569
 20
52.244741
  0
POINT
  5
20577
100
AcDbEntity
  8
0
100
AcDbPoint
 10
5.3740391
 20
52.2445681
  0
POINT
  5
20578
100
AcDbEntity
  8
0
100
AcDbPoint
 10
5.3741108
 20
52.2445474
  0
POINT
  5
20579
100
AcDbEntity
  8
0
100
AcDbPoint
 10
5.3742045
 20
52.2445314
  0
POINT
  5
2057A
100
AcDbEntity
  8
0
100
AcDbPoint
 10
5.3736579
 20
52.2446626
  0
POINT
  5
2057B
100
AcDbEntity
  8
0
100
AcDbPoint
 10
5.37375
 20
52.2446441
  0
POINT
  5
2057C
100
AcDbEntity
  8
0
100
AcDbPoint
 10
5.3739658
 20
52.2445863
  0
POINT
  5
2057D
100
AcDbEntity
  8
0
100
AcDbPoint
 10
5.3738785
 20
52.2446122
  0
POINT
  5
2057E
100
AcDbEntity
  8
0
100
AcDbPoint
 10
5.3731395
 20
52.2449566
  0
POINT
  5
2057F
100
AcDbEntity
  8
0
100
AcDbPoint
 10
5.3731417
 20
52.2448486
  0
POINT
  5
20580
100
AcDbEntity
  8
0
100
AcDbPoint
 10
5.3731378
 20
52.244897
  0
POINT
  5
20581
100
AcDbEntity
  8
0
100
AcDbPoint
 10
5.3729752
 20
52.245237
  0
POINT
  5
20582
100
AcDbEntity
  8
0
100
AcDbPoint
 10
5.3730575
 20
52.2452036
  0
POINT
  5
20583
100
AcDbEntity
  8
0
100
AcDbPoint
 10
5.3731324
 20
52.2451879
  0
POINT
  5
20584
100
AcDbEntity
  8
0
100
AcDbPoint
 10
5.3732074
 20
52.2451694
  0
POINT
  5
20585
100
AcDbEntity
  8
0
100
AcDbPoint
 10
5.3734132
 20
52.2451183
  0
POINT
  5
20586
100
AcDbEntity
  8
0
100
AcDbPoint
 10
5.3733383
 20
52.2451369
  0
POINT
  5
20587
100
AcDbEntity
  8
0
100
AcDbPoint
 10
5.3734865
 20
52.2451002
  0
POINT
  5
20588
100
AcDbEntity
  8
0
100
AcDbPoint
 10
5.3735598
 20
52.245082
  0
POINT
  5
20589
100
AcDbEntity
  8
0
100
AcDbPoint
 10
5.333133
 20
52.2520895
  0
POINT
  5
2058A
100
AcDbEntity
  8
0
100
AcDbPoint
 10
5.3321463
 20
52.2523189
  0
POINT
  5
2058B
100
AcDbEntity
  8
0
100
AcDbPoint
 10
5.4151674
 20
52.1890187
  0
POINT
  5
2058C
100
AcDbEntity
  8
0
100
AcDbPoint
 10
5.4145101
 20
52.1890341
  0
POINT
  5
2058D
100
AcDbEntity
  8
0
100
AcDbPoint
 10
5.3558141
 20
52.1508261
  0
POINT
  5
2058E
100
AcDbEntity
  8
0
100
AcDbPoint
 10
5.3694898
 20
52.1817491
  0
POINT
  5
2058F
100
AcDbEntity
  8
0
100
AcDbPoint
 10
5.37347
 20
52.2438033
  0
POINT
  5
20590
100
AcDbEntity
  8
0
100
AcDbPoint
 10
5.3727896
 20
52.2437985
  0
POINT
  5
20591
100
AcDbEntity
  8
0
100
AcDbPoint
 10
5.3753542
 20
52.2456395
  0
POINT
  5
20592
100
AcDbEntity
  8
0
100
AcDbPoint
 10
5.3757289
 20
52.2452702
  0
POINT
  5
20593
100
AcDbEntity
  8
0
100
AcDbPoint
 10
5.3760486
 20
52.2463022
  0
POINT
  5
20594
100
AcDbEntity
  8
0
100
AcDbPoint
 10
5.3773632
 20
52.2527603
  0
POINT
  5
20595
100
AcDbEntity
  8
0
100
AcDbPoint
 10
5.3766846
 20
52.2502695
  0
POINT
  5
20596
100
AcDbEntity
  8
0
100
AcDbPoint
 10
5.3756405
 20
52.246555
  0
POINT
  5
20597
100
AcDbEntity
  8
0
100
AcDbPoint
 10
5.3747314
 20
52.2463689
  0
POINT
  5
20598
100
AcDbEntity
  8
0
100
AcDbPoint
 10
5.3747972
 20
52.2465897
  0
POINT
  5
20599
100
AcDbEntity
  8
0
100
AcDbPoint
 10
5.3789646
 20
52.2439927
  0
POINT
  5
2059A
100
AcDbEntity
  8
0
100
AcDbPoint
 10
5.3763275
 20
52.248563
  0
POINT
  5
2059B
100
AcDbEntity
  8
0
100
AcDbPoint
 10
5.4374747
 20
52.1882713
  0
POINT
  5
2059C
100
AcDbEntity
  8
0
100
AcDbPoint
 10
5.4565745
 20
52.2218621
  0
POINT
  5
2059D
100
AcDbEntity
  8
0
100
AcDbPoint
 10
5.4546452
 20
52.2226443
  0
POINT
  5
2059E
100
AcDbEntity
  8
0
100
AcDbPoint
 10
5.46373
 20
52.2276886
  0
POINT
  5
2059F
100
AcDbEntity
  8
0
100
AcDbPoint
 10
5.3772915
 20
52.2438821
  0
POINT
  5
205A0
100
AcDbEntity
  8
0
100
AcDbPoint
 10
5.3750913
 20
52.2428924
  0
POINT
  5
205A1
100
AcDbEntity
  8
0
100
AcDbPoint
 10
5.3765109
 20
52.2426212
  0
POINT
  5
205A2
100
AcDbEntity
  8
0
100
AcDbPoint
 10
5.463215
 20
52.227636
  0
POINT
  5
205A3
100
AcDbEntity
  8
0
100
AcDbPoint
 10
5.4565392
 20
52.2217942
  0
POINT
  5
205A4
100
AcDbEntity
  8
0
100
AcDbPoint
 10
5.1162334
 20
52.096317
  0
POINT
  5
205A5
100
AcDbEntity
  8
0
100
AcDbPoint
 10
5.3888186
 20
52.2525374
  0
POINT
  5
205A6
100
AcDbEntity
  8
0
100
AcDbPoint
 10
5.4330172
 20
52.1847252
  0
POINT
  5
205A7
100
AcDbEntity
  8
0
100
AcDbPoint
 10
5.3813826
 20
52.2323364
  0
POINT
  5
205A8
100
AcDbEntity
  8
0
100
AcDbPoint
 10
5.3813991
 20
52.2323904
  0
POINT
  5
205A9
100
AcDbEntity
  8
0
100
AcDbPoint
 10
5.3753503
 20
52.2437902
  0
POINT
  5
205AA
100
AcDbEntity
  8
0
100
AcDbPoint
 10
5.3753308
 20
52.2437326
  0
POINT
  5
205AB
100
AcDbEntity
  8
0
100
AcDbPoint
 10
5.3799678
 20
52.2425079
  0
POINT
  5
205AC
100
AcDbEntity
  8
0
100
AcDbPoint
 10
5.379903
 20
52.2424813
  0
POINT
  5
205AD
100
AcDbEntity
  8
0
100
AcDbPoint
 10
5.451202
 20
52.2117716
  0
POINT
  5
205AE
100
AcDbEntity
  8
0
100
AcDbPoint
 10
5.4648883
 20
52.2102477
  0
POINT
  5
205AF
100
AcDbEntity
  8
0
100
AcDbPoint
 10
5.3885007
 20
52.1582537
  0
POINT
  5
205B0
100
AcDbEntity
  8
0
100
AcDbPoint
 10
5.3760257
 20
52.1529831
  0
POINT
  5
205B1
100
AcDbEntity
  8
0
100
AcDbPoint
 10
5.376018
 20
52.1527675
  0
POINT
  5
205B2
100
AcDbEntity
  8
0
100
AcDbPoint
 10
5.3759298
 20
52.1529381
  0
POINT
  5
205B3
100
AcDbEntity
  8
0
100
AcDbPoint
 10
5.3760864
 20
52.15294
  0
POINT
  5
205B4
100
AcDbEntity
  8
0
100
AcDbPoint
 10
5.3975137
 20
52.1946443
  0
POINT
  5
205B5
100
AcDbEntity
  8
0
100
AcDbPoint
 10
5.3733761
 20
52.2440932
  0
POINT
  5
205B6
100
AcDbEntity
  8
0
100
AcDbPoint
 10
5.2413622
 20
52.1683119
  0
POINT
  5
205B7
100
AcDbEntity
  8
0
100
AcDbPoint
 10
5.3900971
 20
52.1949522
  0
POINT
  5
205B8
100
AcDbEntity
  8
0
100
AcDbPoint
 10
5.3763449
 20
52.1737592
  0
POINT
  5
205B9
100
AcDbEntity
  8
0
100
AcDbPoint
 10
5.3765175
 20
52.1737343
  0
POINT
  5
205BA
100
AcDbEntity
  8
0
100
AcDbPoint
 10
5.4038743
 20
52.1939052
  0
POINT
  5
205BB
100
AcDbEntity
  8
0
100
AcDbPoint
 10
5.1463783
 20
52.1247727
  0
POINT
  5
205BC
100
AcDbEntity
  8
0
100
AcDbPoint
 10
5.1476141
 20
52.1244542
  0
POINT
  5
205BD
100
AcDbEntity
  8
0
100
AcDbPoint
 10
5.1513639
 20
52.123492
  0
POINT
  5
205BE
100
AcDbEntity
  8
0
100
AcDbPoint
 10
5.379124
 20
52.2442225
  0
POINT
  5
205BF
100
AcDbEntity
  8
0
100
AcDbPoint
 10
5.3833785
 20
52.2445055
  0
POINT
  5
205C0
100
AcDbEntity
  8
0
100
AcDbPoint
 10
5.3835384
 20
52.2446438
  0
POINT
  5
205C1
100
AcDbEntity
  8
0
100
AcDbPoint
 10
5.1325651
 20
52.1070272
  0
POINT
  5
205C2
100
AcDbEntity
  8
0
100
AcDbPoint
 10
5.1323231
 20
52.1071934
  0
POINT
  5
205C3
100
AcDbEntity
  8
0
100
AcDbPoint
 10
5.1324002
 20
52.1069522
  0
POINT
  5
205C4
100
AcDbEntity
  8
0
100
AcDbPoint
 10
5.1321448
 20
52.1071003
  0
POINT
  5
205C5
100
AcDbEntity
  8
0
100
AcDbPoint
 10
5.1317242
 20
52.1064571
  0
POINT
  5
205C6
100
AcDbEntity
  8
0
100
AcDbPoint
 10
5.1319866
 20
52.1063988
  0
POINT
  5
205C7
100
AcDbEntity
  8
0
100
AcDbPoint
 10
5.1318948
 20
52.1062524
  0
POINT
  5
205C8
100
AcDbEntity
  8
0
100
AcDbPoint
 10
5.1316353
 20
52.1063083
  0
POINT
  5
205C9
100
AcDbEntity
  8
0
100
AcDbPoint
 10
5.1312569
 20
52.1056731
  0
POINT
  5
205CA
100
AcDbEntity
  8
0
100
AcDbPoint
 10
5.3742842
 20
52.2443868
  0
POINT
  5
205CB
100
AcDbEntity
  8
0
100
AcDbPoint
 10
5.3746388
 20
52.2442161
  0
POINT
  5
205CC
100
AcDbEntity
  8
0
100
AcDbPoint
 10
5.3746733
 20
52.2442642
  0
POINT
  5
205CD
100
AcDbEntity
  8
0
100
AcDbPoint
 10
5.3746818
 20
52.2442088
  0
POINT
  5
205CE
100
AcDbEntity
  8
0
100
AcDbPoint
 10
5.3747495
 20
52.2441824
  0
POINT
  5
205CF
100
AcDbEntity
  8
0
100
AcDbPoint
 10
5.3742263
 20
52.2443031
  0
POINT
  5
205D0
100
AcDbEntity
  8
0
100
AcDbPoint
 10
5.3745527
 20
52.2442217
  0
POINT
  5
205D1
100
AcDbEntity
  8
0
100
AcDbPoint
 10
5.4330579
 20
52.1928006
  0
POINT
  5
205D2
100
AcDbEntity
  8
0
100
AcDbPoint
 10
5.3792063
 20
52.1647976
  0
POINT
  5
205D3
100
AcDbEntity
  8
0
100
AcDbPoint
 10
5.4321319
 20
52.1949482
  0
POINT
  5
205D4
100
AcDbEntity
  8
0
100
AcDbPoint
 10
5.4325646
 20
52.1948209
  0
POINT
  5
205D5
100
AcDbEntity
  8
0
100
AcDbPoint
 10
5.4327519
 20
52.1948659
  0
POINT
  5
205D6
100
AcDbEntity
  8
0
100
AcDbPoint
 10
5.4000685
 20
52.1942021
  0
POINT
  5
205D7
100
AcDbEntity
  8
0
100
AcDbPoint
 10
5.3765026
 20
52.2426087
  0
POINT
  5
205D8
100
AcDbEntity
  8
0
100
AcDbPoint
 10
5.418811
 20
52.1881657
  0
POINT
  5
205D9
100
AcDbEntity
  8
0
100
AcDbPoint
 10
5.3648184
 20
52.2097586
  0
POINT
  5
205DA
100
AcDbEntity
  8
0
100
AcDbPoint
 10
5.2838203
 20
52.2116987
  0
POINT
  5
205DB
100
AcDbEntity
  8
0
100
AcDbPoint
 10
5.4872009
 20
52.2252099
  0
POINT
  5
205DC
100
AcDbEntity
  8
0
100
AcDbPoint
 10
5.4833119
 20
52.2254173
  0
POINT
  5
205DD
100
AcDbEntity
  8
0
100
AcDbPoint
 10
5.4558048
 20
52.2107711
  0
POINT
  5
205DE
100
AcDbEntity
  8
0
100
AcDbPoint
 10
5.4608935
 20
52.2090398
  0
POINT
  5
205DF
100
AcDbEntity
  8
0
100
AcDbPoint
 10
5.4606541
 20
52.2089498
  0
POINT
  5
205E0
100
AcDbEntity
  8
0
100
AcDbPoint
 10
5.4497979
 20
52.2133596
  0
POINT
  5
205E1
100
AcDbEntity
  8
0
100
AcDbPoint
 10
5.4497534
 20
52.2134391
  0
POINT
  5
205E2
100
AcDbEntity
  8
0
100
AcDbPoint
 10
5.456488
 20
52.210505
  0
POINT
  5
205E3
100
AcDbEntity
  8
0
100
AcDbPoint
 10
5.4544091
 20
52.2228383
  0
POINT
  5
205E4
100
AcDbEntity
  8
0
100
AcDbPoint
 10
5.4543314
 20
52.2225136
  0
POINT
  5
205E5
100
AcDbEntity
  8
0
100
AcDbPoint
 10
5.4564696
 20
52.2218435
  0
POINT
  5
205E6
100
AcDbEntity
  8
0
100
AcDbPoint
 10
5.4566468
 20
52.2215724
  0
POINT
  5
205E7
100
AcDbEntity
  8
0
100
AcDbPoint
 10
5.4512329
 20
52.2178733
  0
POINT
  5
205E8
100
AcDbEntity
  8
0
100
AcDbPoint
 10
5.4697408
 20
52.2275566
  0
POINT
  5
205E9
100
AcDbEntity
  8
0
100
AcDbPoint
 10
5.4694257
 20
52.227368
  0
POINT
  5
205EA
100
AcDbEntity
  8
0
100
AcDbPoint
 10
5.4830016
 20
52.2253252
  0
POINT
  5
205EB
100
AcDbEntity
  8
0
100
AcDbPoint
 10
5.4832723
 20
52.2254075
  0
POINT
  5
205EC
100
AcDbEntity
  8
0
100
AcDbPoint
 10
5.4825757
 20
52.2226962
  0
POINT
  5
205ED
100
AcDbEntity
  8
0
100
AcDbPoint
 10
5.4825913
 20
52.2227488
  0
POINT
  5
205EE
100
AcDbEntity
  8
0
100
AcDbPoint
 10
5.4825895
 20
52.2237706
  0
POINT
  5
205EF
100
AcDbEntity
  8
0
100
AcDbPoint
 10
5.482555
 20
52.2238395
  0
POINT
  5
205F0
100
AcDbEntity
  8
0
100
AcDbPoint
 10
5.4828488
 20
52.2216584
  0
POINT
  5
205F1
100
AcDbEntity
  8
0
100
AcDbPoint
 10
5.4873183
 20
52.2251753
  0
POINT
  5
205F2
100
AcDbEntity
  8
0
100
AcDbPoint
 10
5.4090009
 20
52.1945542
  0
POINT
  5
205F3
100
AcDbEntity
  8
0
100
AcDbPoint
 10
5.4088613
 20
52.1949289
  0
POINT
  5
205F4
100
AcDbEntity
  8
0
100
AcDbPoint
 10
5.4091613
 20
52.1946047
  0
POINT
  5
205F5
100
AcDbEntity
  8
0
100
AcDbPoint
 10
5.4092275
 20
52.1944937
  0
POINT
  5
205F6
100
AcDbEntity
  8
0
100
AcDbPoint
 10
5.3655361
 20
52.2010606
  0
POINT
  5
205F7
100
AcDbEntity
  8
0
100
AcDbPoint
 10
5.3059666
 20
52.220109
  0
POINT
  5
205F8
100
AcDbEntity
  8
0
100
AcDbPoint
 10
5.3060444
 20
52.2204279
  0
POINT
  5
205F9
100
AcDbEntity
  8
0
100
AcDbPoint
 10
5.3048248
 20
52.2183072
  0
POINT
  5
205FA
100
AcDbEntity
  8
0
100
AcDbPoint
 10
5.3049276
 20
52.2179269
  0
POINT
  5
205FB
100
AcDbEntity
  8
0
100
AcDbPoint
 10
5.4929712
 20
52.2220944
  0
POINT
  5
205FC
100
AcDbEntity
  8
0
100
AcDbPoint
 10
5.3777309
 20
52.160012
  0
POINT
  5
205FD
100
AcDbEntity
  8
0
100
AcDbPoint
 10
5.3786403
 20
52.161747
  0
POINT
  5
205FE
100
AcDbEntity
  8
0
100
AcDbPoint
 10
5.3794596
 20
52.1587138
  0
POINT
  5
205FF
100
AcDbEntity
  8
0
100
AcDbPoint
 10
5.4829785
 20
52.2253184
  0
POINT
  5
20600
100
AcDbEntity
  8
0
100
AcDbPoint
 10
5.4824414
 20
52.2251607
  0
POINT
  5
20601
100
AcDbEntity
  8
0
100
AcDbPoint
 10
5.4822336
 20
52.2251806
  0
POINT
  5
20602
100
AcDbEntity
  8
0
100
AcDbPoint
 10
5.482235
 20
52.2250185
  0
ENDSEC
  0
SECTION
  2
OBJECTS
  0
DICTIONARY
  5
C
330
0
100
AcDbDictionary
281
     1
  3
ACAD_GROUP
350
D
  3
ACAD_LAYOUT
350
1A
  3
ACAD_MLEADERSTYLE
350
43
  3
ACAD_PLOTSETTINGS
350
19
  3
ACAD_PLOTSTYLENAME
350
E
  3
ACAD_TABLESTYLE
350
42
  0
DICTIONARY
  5
D
102
{ACAD_REACTORS
330
C
102
}
330
C
100
AcDbDictionary
281
     1
  0
DICTIONARY
  5
1A
102
{ACAD_REACTORS
330
C
102
}
330
C
100
AcDbDictionary
281
     1
  3
Layout1
350
1E
  3
Model
350
22
  0
DICTIONARY
  5
43
102
{ACAD_REACTORS
330
C
102
}
330
C
100
AcDbDictionary
281
     1
  0
DICTIONARY
  5
19
102
{ACAD_REACTORS
330
C
102
}
330
C
100
AcDbDictionary
281
     1
  0
ACDBDICTIONARYWDFLT
  5
E
102
{ACAD_REACTORS
330
C
102
}
330
C
100
AcDbDictionary
281
     1
  3
Normal
350
F
100
AcDbDictionaryWithDefault
340
F
  0
DICTIONARY
  5
42
102
{ACAD_REACTORS
330
C
102
}
330
C
100
AcDbDictionary
281
     1
  0
LAYOUT
  5
1E
102
{ACAD_REACTORS
330
1A
102
}
330
1A
100
AcDbPlotSettings
  1

  2
none_device
  4

  6

 40
0.0
 41
0.0
 42
0.0
 43
0.0
 44
0.0
 45
0.0
 46
0.0
 47
0.0
 48
0.0
 49
0.0
140
0.0
141
0.0
142
1.0
143
1.0
 70
   688
 72
     0
 73
     0
 74
     5
  7

 75
    16
 76
     0
 77
     2
 78
   300
147
1.0
148
0.0
149
0.0
100
AcDbLayout
  1
Layout1
 70
     1
 71
     1
 10
0.0
 20
0.0
 11
12.0
 21
9.0
 12
0.0
 22
0.0
 32
0.0
 14
1.000000000000000E+20
 24
1.000000000000000E+20
 34
1.000000000000000E+20
 15
-1.000000000000000E+20
 25
-1.000000000000000E+20
 35
-1.000000000000000E+20
146
0.0
 13
0.0
 23
0.0
 33
0.0
 16
1.0
 26
0.0
 36
0.0
 17
0.0
 27
1.0
 37
0.0
 76
     0
330
1B
  0
LAYOUT
  5
22
102
{ACAD_REACTORS
330
1A
102
}
330
1A
100
AcDbPlotSettings
  1

  2
none_device
  4

  6

 40
0.0
 41
0.0
 42
0.0
 43
0.0
 44
0.0
 45
0.0
 46
0.0
 47
0.0
 48
0.0
 49
0.0
140
0.0
141
0.0
142
1.0
143
1.0
 70
  1712
 72
     0
 73
     0
 74
     0
  7

 75
     0
 76
     0
 77
     2
 78
   300
147
1.0
148
0.0
149
0.0
100
AcDbLayout
  1
Model
 70
     1
 71
     0
 10
0.0
 20
0.0
 11
12.0
 21
9.0
 12
0.0
 22
0.0
 32
0.0
 14
30.0
 24
49.75
 34
0.0
 15
130.5
 25
163.1318914119703
 35
0.0
146
0.0
 13
0.0
 23
0.0
 33
0.0
 16
1.0
 26
0.0
 36
0.0
 17
0.0
 27
1.0
 37
0.0
 76
     0
330
1F
331
29
  0
ACDBPLACEHOLDER
  5
F
102
{ACAD_REACTORS
330
E
102
}
330
E
  0
ENDSEC
  0
EOF
