  0
SECTION
  2
HEADER
  9
$ACADVER
  1
AC1018
  9
$ACADMAINTVER
 70
     0
  9
$DWGCODEPAGE
  3
ANSI_1252
  9
$EXTMIN
 10
5.3758108
 20
52.2452303
 30
0.0
  9
$EXTMAX
 10
5.3764461
 20
52.2456516
 30
0.0
  9
$LIMMIN
 10
0.0
 20
0.0
  9
$LIMMAX
 10
12.0
 20
9.0
  9
$ORTHOMODE
 70
     0
  9
$REGENMODE
 70
     1
  9
$FILLMODE
 70
     1
  9
$QTEXTMODE
 70
     0
  9
$MIRRTEXT
 70
     1
  9
$LTSCALE
 40
1.0
  9
$ATTMODE
 70
     1
  9
$TEXTSIZE
 40
0.2
  9
$TRACEWID
 40
0.05
  9
$TEXTSTYLE
  7
Standard
  9
$CLAYER
  8
0
  9
$CELTYPE
  6
ByLayer
  9
$CECOLOR
 62
   256
  9
$CELTSCALE
 40
1.0
  9
$DISPSILH
 70
     0
  9
$LUNITS
 70
     2
  9
$LUPREC
 70
     4
  9
$SKETCHINC
 40
0.1
  9
$FILLETRAD
 40
0.5
  9
$AUNITS
 70
     0
  9
$AUPREC
 70
     0
  9
$MENU
  1
.
  9
$ELEVATION
 40
0.0
  9
$PELEVATION
 40
0.0
  9
$THICKNESS
 40
0.0
  9
$LIMCHECK
 70
     0
  9
$CHAMFERA
 40
0.5
  9
$CHAMFERB
 40
0.5
  9
$CHAMFERC
 40
1.0
  9
$CHAMFERD
 40
0.0
  9
$SKPOLY
 70
     0
  9
$ANGBASE
 50
0.0
  9
$ANGDIR
 70
     0
  9
$PDMODE
 70
     0
  9
$PDSIZE
 40
0.0
  9
$PLINEWID
 40
0.0
  9
$SPLFRAME
 70
     0
  9
$SPLINETYPE
 70
     6
  9
$SPLINESEGS
 70
     8
  9
$HANDSEED
  5
00020010
  9
$SURFTAB1
 70
     6
  9
$SURFTAB2
 70
     6
  9
$SURFTYPE
 70
     6
  9
$SURFU
 70
     6
  9
$SURFV
 70
     6
  9
$UCSBASE
  2

  9
$UCSNAME
  2

  9
$UCSORG
 10
0.0
 20
0.0
 30
0.0
  9
$UCSXDIR
 10
1.0
 20
0.0
 30
0.0
  9
$UCSYDIR
 10
0.0
 20
1.0
 30
0.0
  9
$UCSORTHOREF
  2

  9
$UCSORTHOVIEW
 70
     0
  9
$UCSORGTOP
 10
0.0
 20
0.0
 30
0.0
  9
$UCSORGBOTTOM
 10
0.0
 20
0.0
 30
0.0
  9
$UCSORGLEFT
 10
0.0
 20
0.0
 30
0.0
  9
$UCSORGRIGHT
 10
0.0
 20
0.0
 30
0.0
  9
$UCSORGFRONT
 10
0.0
 20
0.0
 30
0.0
  9
$UCSORGBACK
 10
0.0
 20
0.0
 30
0.0
  9
$PUCSBASE
  2

  9
$PUCSNAME
  2

  9
$PUCSORG
 10
0.0
 20
0.0
 30
0.0
  9
$PUCSXDIR
 10
1.0
 20
0.0
 30
0.0
  9
$PUCSYDIR
 10
0.0
 20
1.0
 30
0.0
  9
$PUCSORTHOREF
  2

  9
$PUCSORTHOVIEW
 70
     0
  9
$PUCSORGTOP
 10
0.0
 20
0.0
 30
0.0
  9
$PUCSORGBOTTOM
 10
0.0
 20
0.0
 30
0.0
  9
$PUCSORGLEFT
 10
0.0
 20
0.0
 30
0.0
  9
$PUCSORGRIGHT
 10
0.0
 20
0.0
 30
0.0
  9
$PUCSORGFRONT
 10
0.0
 20
0.0
 30
0.0
  9
$PUCSORGBACK
 10
0.0
 20
0.0
 30
0.0
  9
$WORLDVIEW
 70
     1
  9
$SHADEDGE
 70
     3
  9
$SHADEDIF
 70
    70
  9
$TILEMODE
 70
     1
  9
$MAXACTVP
 70
    64
  9
$PINSBASE
 10
0.0
 20
0.0
 30
0.0
  9
$PLIMCHECK
 70
     0
  9
$PEXTMIN
 10
1.000000000000000E+20
 20
1.000000000000000E+20
 30
1.000000000000000E+20
  9
$PEXTMAX
 10
-1.000000000000000E+20
 20
-1.000000000000000E+20
 30
-1.000000000000000E+20
  9
$PLIMMIN
 10
0.0
 20
0.0
  9
$PLIMMAX
 10
12.0
 20
9.0
  9
$UNITMODE
 70
     0
  9
$VISRETAIN
 70
     1
  9
$PLINEGEN
 70
     0
  9
$PSLTSCALE
 70
     1
  9
$TREEDEPTH
 70
  3020
  9
$CMLSTYLE
  2
Standard
  9
$CMLJUST
 70
     0
  9
$CMLSCALE
 40
1.0
  9
$PROXYGRAPHICS
 70
     1
  9
$MEASUREMENT
 70
     0
  9
$CELWEIGHT
370
    -1
  9
$ENDCAPS
280
     0
  9
$JOINSTYLE
280
     0
  9
$LWDISPLAY
290
     0
  9
$INSUNITS
 70
     1
  9
$HYPERLINKBASE
  1

  9
$STYLESHEET
  1

  9
$XEDIT
290
     1
  9
$CEPSNTYPE
380
     0
  9
$PSTYLEMODE
290
     1
  9
$EXTNAMES
290
     1
  9
$PSVPSCALE
 40
0.0
  9
$OLESTARTUP
290
     0
  9
$SORTENTS
280
   127
  9
$INDEXCTL
280
     0
  9
$HIDETEXT
280
     1
  9
$XCLIPFRAME
290
     0
  9
$HALOGAP
280
     0
  9
$OBSCOLOR
 70
   257
  9
$OBSLTYPE
280
     0
  9
$INTERSECTIONDISPLAY
280
     0
  9
$INTERSECTIONCOLOR
 70
   257
  9
$DIMASSOC
280
     2
  9
$PROJECTNAME
  1

  0
ENDSEC
  0
SECTION
  2
CLASSES
  0
CLASS
  1
ACDBDICTIONARYWDFLT
  2
AcDbDictionaryWithDefault
  3
ObjectDBX Classes
 90
        0
 91
        4
280
     0
281
     0
  0
ENDSEC
  0
SECTION
  2
TABLES
  0
TABLE
  2
VPORT
  5
8
330
0
100
AcDbSymbolTable
 70
     1
  0
VPORT
  5
29
330
8
100
AcDbSymbolTableRecord
100
AcDbViewportTableRecord
  2
*Active
 70
     0
 10
0.0
 20
0.0
 11
1.0
 21
1.0
 12
80.25
 22
106.4409457059851
 13
0.0
 23
0.0
 14
0.5
 24
0.5
 15
0.5
 25
0.5
 16
0.0
 26
0.0
 36
1.0
 17
0.0
 27
0.0
 37
0.0
 40
113.3818914119703
 41
0.8863849310366128
 42
50.0
 43
0.0
 44
0.0
 50
0.0
 51
0.0
 71
     0
 72
  1000
 73
     1
 74
     3
 75
     0
 76
     0
 77
     0
 78
     0
281
     0
 65
     1
110
0.0
120
0.0
130
0.0
111
1.0
121
0.0
131
0.0
112
0.0
122
1.0
132
0.0
 79
     0
146
0.0
  0
ENDTAB
  0
TABLE
  2
LTYPE
  5
5
330
0
100
AcDbSymbolTable
 70
     1
  0
LTYPE
  5
14
330
5
100
AcDbSymbolTableRecord
100
AcDbLinetypeTableRecord
  2
ByBlock
 70
     0
  3

 72
    65
 73
     0
 40
0.0
  0
LTYPE
  5
15
330
5
100
AcDbSymbolTableRecord
100
AcDbLinetypeTableRecord
  2
ByLayer
 70
     0
  3

 72
    65
 73
     0
 40
0.0
  0
LTYPE
  5
16
330
5
100
AcDbSymbolTableRecord
100
AcDbLinetypeTableRecord
  2
Continuous
 70
     0
  3
Solid line
 72
    65
 73
     0
 40
0.0
  0
ENDTAB
  0
TABLE
  2
LAYER
  5
2
330
0
100
AcDbSymbolTable
 70
     1
  0
LAYER
  5
10
330
2
100
AcDbSymbolTableRecord
100
AcDbLayerTableRecord
  2
0
 70
     0
 62
     7
  6
Continuous
370
    -3
390
F
  0
ENDTAB
  0
TABLE
  2
STYLE
  5
3
330
0
100
AcDbSymbolTable
 70
     1
  0
STYLE
  5
11
330
3
100
AcDbSymbolTableRecord
100
AcDbTextStyleTableRecord
  2
Standard
 70
     0
 40
0.0
 41
1.0
 50
0.0
 71
     0
 42
0.2
  3
txt
  4

  0
ENDTAB
  0
TABLE
  2
VIEW
  5
6
330
0
100
AcDbSymbolTable
 70
     0
  0
ENDTAB
  0
TABLE
  2
UCS
  5
7
330
0
100
AcDbSymbolTable
 70
     0
  0
ENDTAB
  0
TABLE
  2
APPID
  5
9
330
0
100
AcDbSymbolTable
 70
     1
  0
APPID
  5
12
330
9
100
AcDbSymbolTableRecord
100
AcDbRegAppTableRecord
  2
ACAD
 70
     0
  0
ENDTAB
  0
TABLE
  2
DIMSTYLE
  5
A
330
0
100
AcDbSymbolTable
 70
     1
100
AcDbDimStyleTable
  0
DIMSTYLE
105
27
330
A
100
AcDbSymbolTableRecord
100
AcDbDimStyleTableRecord
  2
Standard
 70
     0
340
11
  0
ENDTAB
  0
TABLE
  2
BLOCK_RECORD
  5
1
330
0
100
AcDbSymbolTable
 70
     1
  0
BLOCK_RECORD
  5
1F
330
1
100
AcDbSymbolTableRecord
100
AcDbBlockTableRecord
  2
*Model_Space
340
22
  0
BLOCK_RECORD
  5
1B
330
1
100
AcDbSymbolTableRecord
100
AcDbBlockTableRecord
  2
*Paper_Space
340
1E
  0
ENDTAB
  0
ENDSEC
  0
SECTION
  2
BLOCKS
  0
BLOCK
  5
20
330
1F
100
AcDbEntity
  8
0
100
AcDbBlockBegin
  2
*Model_Space
 70
     0
 10
0.0
 20
0.0
 30
0.0
  3
*Model_Space
  1

  0
ENDBLK
  5
21
330
1F
100
AcDbEntity
  8
0
100
AcDbBlockEnd
  0
BLOCK
  5
1C
330
1B
100
AcDbEntity
 67
     1
  8
0
100
AcDbBlockBegin
  2
*Paper_Space
 70
     0
 10
0.0
 20
0.0
 30
0.0
  3
*Paper_Space
  1

  0
ENDBLK
  5
1D
330
1B
100
AcDbEntity
 67
     1
  8
0
100
AcDbBlockEnd
  0
ENDSEC
  0
SECTION
  2
ENTITIES
  0
HATCH
  5
20000
100
AcDbEntity
  8
0
100
AcDbHatch
 10
0
 20
0
 30
0
210
0
220
0
230
1
  2
SOLID
 70
1
 71
0
 91
1
 92
2
 72
0
 73
1
 93
13
 10
5.3758595
 20
52.2453837
 10
5.3758615
 20
52.2453898
 10
5.3758471
 20
52.2453915
 10
5.3758489
 20
52.2453972
 10
5.3758363
 20
52.2454046
 10
5.3758422
 20
52.2454231
 10
5.3758582
 20
52.245427
 10
5.3758679
 20
52.2454577
 10
5.3760258
 20
52.245439
 10
5.376005
 20
52.2453729
 10
5.3759997
 20
52.2453735
 10
5.3759978
 20
52.2453674
 10
5.3758595
 20
52.2453837
 97
0
 75
0
 76
1
 98
0
  0
HATCH
  5
20001
100
AcDbEntity
  8
0
100
AcDbHatch
 10
0
 20
0
 30
0
210
0
220
0
230
1
  2
SOLID
 70
1
 71
0
 91
1
 92
2
 72
0
 73
1
 93
17
 10
5.3758595
 20
52.2453837
 10
5.3759978
 20
52.2453674
 10
5.3759951
 20
52.2453588
 10
5.3760005
 20
52.2453582
 10
5.3759797
 20
52.245292
 10
5.3758854
 20
52.2453031
 10
5.3758733
 20
52.2452955
 10
5.3758432
 20
52.2452991
 10
5.3758366
 20
52.2453089
 10
5.3758214
 20
52.2453107
 10
5.3758231
 20
52.2453161
 10
5.3758108
 20
52.2453236
 10
5.3758167
 20
52.245342
 10
5.3758327
 20
52.2453462
 10
5.3758424
 20
52.2453769
 10
5.3758567
 20
52.2453752
 10
5.3758595
 20
52.2453837
 97
0
 75
0
 76
1
 98
0
  0
HATCH
  5
20002
100
AcDbEntity
  8
0
100
AcDbHatch
 10
0
 20
0
 30
0
210
0
220
0
230
1
  2
SOLID
 70
1
 71
0
 91
1
 92
2
 72
0
 73
1
 93
5
 10
5.3763021
 20
52.2453825
 10
5.3763169
 20
52.2454289
 10
5.3764461
 20
52.2454134
 10
5.3764313
 20
52.245367
 10
5.3763021
 20
52.2453825
 97
0
 75
0
 76
1
 98
0
  0
HATCH
  5
20003
100
AcDbEntity
  8
0
100
AcDbHatch
 10
0
 20
0
 30
0
210
0
220
0
230
1
  2
SOLID
 70
1
 71
0
 91
1
 92
2
 72
0
 73
1
 93
5
 10
5.3762067
 20
52.2453939
 10
5.3762119
 20
52.2454107
 10
5.3762528
 20
52.2454059
 10
5.3762476
 20
52.245389
 10
5.3762067
 20
52.2453939
 97
0
 75
0
 76
1
 98
0
  0
HATCH
  5
20004
100
AcDbEntity
  8
0
100
AcDbHatch
 10
0
 20
0
 30
0
210
0
220
0
230
1
  2
SOLID
 70
1
 71
0
 91
1
 92
2
 72
0
 73
1
 93
5
 10
5.3762067
 20
52.2453939
 10
5.3762476
 20
52.245389
 10
5.3762409
 20
52.2453674
 10
5.3762
 20
52.2453722
 10
5.3762067
 20
52.2453939
 97
0
 75
0
 76
1
 98
0
  0
HATCH
  5
20005
100
AcDbEntity
  8
0
100
AcDbHatch
 10
0
 20
0
 30
0
210
0
220
0
230
1
  2
SOLID
 70
1
 71
0
 91
1
 92
2
 72
0
 73
1
 93
5
 10
5.3761825
 20
52.2453031
 10
5.3761888
 20
52.2453231
 10
5.3762316
 20
52.245318
 10
5.3762252
 20
52.245298
 10
5.3761825
 20
52.2453031
 97
0
 75
0
 76
1
 98
0
  0
HATCH
  5
20006
100
AcDbEntity
  8
0
100
AcDbHatch
 10
0
 20
0
 30
0
210
0
220
0
230
1
  2
SOLID
 70
1
 71
0
 91
1
 92
2
 72
0
 73
1
 93
5
 10
5.3761659
 20
52.2452982
 10
5.3760812
 20
52.2453084
 10
5.3760962
 20
52.2453556
 10
5.3761808
 20
52.2453454
 10
5.3761659
 20
52.2452982
 97
0
 75
0
 76
1
 98
0
  0
HATCH
  5
20007
100
AcDbEntity
  8
0
100
AcDbHatch
 10
0
 20
0
 30
0
210
0
220
0
230
1
  2
SOLID
 70
1
 71
0
 91
1
 92
2
 72
0
 73
1
 93
5
 10
5.3760991
 20
52.245422
 10
5.3761093
 20
52.2454551
 10
5.3762057
 20
52.2454439
 10
5.3761955
 20
52.2454108
 10
5.3760991
 20
52.245422
 97
0
 75
0
 76
1
 98
0
  0
HATCH
  5
20008
100
AcDbEntity
  8
0
100
AcDbHatch
 10
0
 20
0
 30
0
210
0
220
0
230
1
  2
SOLID
 70
1
 71
0
 91
1
 92
2
 72
0
 73
1
 93
5
 10
5.3761825
 20
52.2453031
 10
5.3762252
 20
52.245298
 10
5.3762191
 20
52.2452786
 10
5.3761763
 20
52.2452837
 10
5.3761825
 20
52.2453031
 97
0
 75
0
 76
1
 98
0
  0
HATCH
  5
20009
100
AcDbEntity
  8
0
100
AcDbHatch
 10
0
 20
0
 30
0
210
0
220
0
230
1
  2
SOLID
 70
1
 71
0
 91
1
 92
2
 72
0
 73
1
 93
5
 10
5.3762734
 20
52.2452922
 10
5.3762877
 20
52.2453373
 10
5.376417
 20
52.2453218
 10
5.3764026
 20
52.2452767
 10
5.3762734
 20
52.2452922
 97
0
 75
0
 76
1
 98
0
  0
HATCH
  5
2000A
100
AcDbEntity
  8
0
100
AcDbHatch
 10
0
 20
0
 30
0
210
0
220
0
230
1
  2
SOLID
 70
1
 71
0
 91
1
 92
2
 72
0
 73
1
 93
5
 10
5.3762734
 20
52.2452922
 10
5.3764026
 20
52.2452767
 10
5.3763878
 20
52.2452303
 10
5.3762586
 20
52.2452458
 10
5.3762734
 20
52.2452922
 97
0
 75
0
 76
1
 98
0
  0
HATCH
  5
2000B
100
AcDbEntity
  8
0
100
AcDbHatch
 10
0
 20
0
 30
0
210
0
220
0
230
1
  2
SOLID
 70
1
 71
0
 91
1
 92
2
 72
0
 73
1
 93
5
 10
5.3762877
 20
52.2453373
 10
5.3763021
 20
52.2453825
 10
5.3764313
 20
52.245367
 10
5.376417
 20
52.2453218
 10
5.3762877
 20
52.2453373
 97
0
 75
0
 76
1
 98
0
  0
HATCH
  5
2000C
100
AcDbEntity
  8
0
100
AcDbHatch
 10
0
 20
0
 30
0
210
0
220
0
230
1
  2
SOLID
 70
1
 71
0
 91
1
 92
2
 72
0
 73
1
 93
9
 10
5.3759033
 20
52.2455719
 10
5.3760302
 20
52.2455572
 10
5.3760119
 20
52.2454975
 10
5.3760614
 20
52.2454918
 10
5.3760523
 20
52.245462
 10
5.3758886
 20
52.2454808
 10
5.3758977
 20
52.2455106
 10
5.3758849
 20
52.2455121
 10
5.3759033
 20
52.2455719
 97
0
 75
0
 76
1
 98
0
  0
HATCH
  5
2000D
100
AcDbEntity
  8
0
100
AcDbHatch
 10
0
 20
0
 30
0
210
0
220
0
230
1
  2
SOLID
 70
1
 71
0
 91
1
 92
2
 72
0
 73
1
 93
9
 10
5.3759033
 20
52.2455719
 10
5.3759217
 20
52.2456317
 10
5.3760054
 20
52.2456221
 10
5.3760145
 20
52.2456516
 10
5.3761125
 20
52.2456404
 10
5.3761026
 20
52.2456082
 10
5.3760479
 20
52.2456145
 10
5.3760302
 20
52.2455572
 10
5.3759033
 20
52.2455719
 97
0
 75
0
 76
1
 98
0
  0
HATCH
  5
2000E
100
AcDbEntity
  8
0
100
AcDbHatch
 10
0
 20
0
 30
0
210
0
220
0
230
1
  2
SOLID
 70
1
 71
0
 91
1
 92
2
 72
0
 73
1
 93
5
 10
5.3762068
 20
52.2456287
 10
5.376198
 20
52.2455996
 10
5.3762432
 20
52.2455945
 10
5.376252
 20
52.2456236
 10
5.3762068
 20
52.2456287
 97
0
 75
0
 76
1
 98
0
  0
HATCH
  5
2000F
100
AcDbEntity
  8
0
100
AcDbHatch
 10
0
 20
0
 30
0
210
0
220
0
230
1
  2
SOLID
 70
1
 71
0
 91
1
 92
2
 72
0
 73
1
 93
9
 10
5.3761458
 20
52.2455307
 10
5.3761555
 20
52.245522
 10
5.3761721
 20
52.2455153
 10
5.3761907
 20
52.2455132
 10
5.3762116
 20
52.2455167
 10
5.3762246
 20
52.2455218
 10
5.3762282
 20
52.2455338
 10
5.3761494
 20
52.2455427
 10
5.3761458
 20
52.2455307
 97
0
 75
0
 76
1
 98
0
  0
ENDSEC
  0
SECTION
  2
OBJECTS
  0
DICTIONARY
  5
C
330
0
100
AcDbDictionary
281
     1
  3
ACAD_GROUP
350
D
  3
ACAD_LAYOUT
350
1A
  3
ACAD_MLEADERSTYLE
350
43
  3
ACAD_PLOTSETTINGS
350
19
  3
ACAD_PLOTSTYLENAME
350
E
  3
ACAD_TABLESTYLE
350
42
  0
DICTIONARY
  5
D
102
{ACAD_REACTORS
330
C
102
}
330
C
100
AcDbDictionary
281
     1
  0
DICTIONARY
  5
1A
102
{ACAD_REACTORS
330
C
102
}
330
C
100
AcDbDictionary
281
     1
  3
Layout1
350
1E
  3
Model
350
22
  0
DICTIONARY
  5
43
102
{ACAD_REACTORS
330
C
102
}
330
C
100
AcDbDictionary
281
     1
  0
DICTIONARY
  5
19
102
{ACAD_REACTORS
330
C
102
}
330
C
100
AcDbDictionary
281
     1
  0
ACDBDICTIONARYWDFLT
  5
E
102
{ACAD_REACTORS
330
C
102
}
330
C
100
AcDbDictionary
281
     1
  3
Normal
350
F
100
AcDbDictionaryWithDefault
340
F
  0
DICTIONARY
  5
42
102
{ACAD_REACTORS
330
C
102
}
330
C
100
AcDbDictionary
281
     1
  0
LAYOUT
  5
1E
102
{ACAD_REACTORS
330
1A
102
}
330
1A
100
AcDbPlotSettings
  1

  2
none_device
  4

  6

 40
0.0
 41
0.0
 42
0.0
 43
0.0
 44
0.0
 45
0.0
 46
0.0
 47
0.0
 48
0.0
 49
0.0
140
0.0
141
0.0
142
1.0
143
1.0
 70
   688
 72
     0
 73
     0
 74
     5
  7

 75
    16
 76
     0
 77
     2
 78
   300
147
1.0
148
0.0
149
0.0
100
AcDbLayout
  1
Layout1
 70
     1
 71
     1
 10
0.0
 20
0.0
 11
12.0
 21
9.0
 12
0.0
 22
0.0
 32
0.0
 14
1.000000000000000E+20
 24
1.000000000000000E+20
 34
1.000000000000000E+20
 15
-1.000000000000000E+20
 25
-1.000000000000000E+20
 35
-1.000000000000000E+20
146
0.0
 13
0.0
 23
0.0
 33
0.0
 16
1.0
 26
0.0
 36
0.0
 17
0.0
 27
1.0
 37
0.0
 76
     0
330
1B
  0
LAYOUT
  5
22
102
{ACAD_REACTORS
330
1A
102
}
330
1A
100
AcDbPlotSettings
  1

  2
none_device
  4

  6

 40
0.0
 41
0.0
 42
0.0
 43
0.0
 44
0.0
 45
0.0
 46
0.0
 47
0.0
 48
0.0
 49
0.0
140
0.0
141
0.0
142
1.0
143
1.0
 70
  1712
 72
     0
 73
     0
 74
     0
  7

 75
     0
 76
     0
 77
     2
 78
   300
147
1.0
148
0.0
149
0.0
100
AcDbLayout
  1
Model
 70
     1
 71
     0
 10
0.0
 20
0.0
 11
12.0
 21
9.0
 12
0.0
 22
0.0
 32
0.0
 14
30.0
 24
49.75
 34
0.0
 15
130.5
 25
163.1318914119703
 35
0.0
146
0.0
 13
0.0
 23
0.0
 33
0.0
 16
1.0
 26
0.0
 36
0.0
 17
0.0
 27
1.0
 37
0.0
 76
     0
330
1F
331
29
  0
ACDBPLACEHOLDER
  5
F
102
{ACAD_REACTORS
330
E
102
}
330
E
  0
ENDSEC
  0
EOF
